<svg version="1.1" xmlns="http://www.w3.org/2000/svg" xmlns:xlink="http://www.w3.org/1999/xlink" width="26.12073" height="47.22865" viewBox="0,0,26.12073,47.22865"><g transform="translate(-226.48936,-156.39915)"><g data-paper-data="{&quot;isPaintingLayer&quot;:true}" fill="#ff6e7e" fill-rule="nonzero" stroke="none" stroke-width="0.5" stroke-linecap="butt" stroke-linejoin="miter" stroke-miterlimit="10" stroke-dasharray="" stroke-dashoffset="0" style="mix-blend-mode: normal"><path d="M235.60295,165.1874c0.23179,0.67236 0.14114,1.30688 0.14114,1.30688c-1.0889,7.50718 -5.49887,15.54968 -3.97424,23.19877c0.54831,2.75085 1.66843,4.02978 3.19387,6.2538c1.53476,2.23761 2.30579,4.28533 5.26672,1.70563c1.14014,-0.99335 1.60749,-2.56222 2.44629,-3.82042c1.26865,-1.90298 3.22876,-4.08145 4.02331,-6.24538c0.37768,-1.02859 0.18114,-3.92321 0.2275,-4.71174c0.23158,-3.93871 1.13597,-8.77793 0.39528,-12.69827c-0.49154,-2.60162 -2.89464,-5.80325 -4.86891,-7.48742c-0.2523,-0.21523 -1.8058,-1.52655 -2.52886,-1.29023c-1.30808,0.42752 -2.11818,1.75748 -3.17504,2.63889zM230.9998,165.10565c-0.85806,-1.52692 0.50165,-2.88663 0.50165,-2.88663l1.87686,-1.87323c1.13402,-0.94439 4.00795,-3.53673 5.44069,-3.82291c6.34562,-1.26747 12.33307,7.4986 13.42358,12.76167c0.88313,4.26223 -0.07041,9.57995 -0.3227,13.8669c-0.13216,2.24558 0.28713,3.84131 -0.49048,6.05792c-0.26259,0.74853 -0.63029,1.49214 -1.05699,2.22604c-0.50048,2.51445 -1.31874,5.68469 -3.13027,7.24192c-1.21421,1.04376 -1.67718,1.08018 -2.75918,1.43469c-0.46933,0.68196 -0.84746,1.21072 -0.94351,1.28885c-8.24967,6.70992 -15.15841,-3.17673 -16.66862,-10.70798c-0.95069,-4.74101 0.02664,-9.38484 1.2756,-14.00287c0.04468,-0.67603 0.11835,-1.35088 0.23002,-2.02381c0.34327,-2.06864 1.16623,-3.88803 1.85466,-5.82027c0.22627,-1.01862 0.41996,-2.03795 0.56324,-3.05877c0,0 0.04326,-0.30284 0.20546,-0.68152z"/></g></g></svg>