<svg version="1.1" xmlns="http://www.w3.org/2000/svg" xmlns:xlink="http://www.w3.org/1999/xlink" width="31.57268" height="45.05964" viewBox="0,0,31.57268,45.05964"><g transform="translate(-224.21366,-157.47018)"><g data-paper-data="{&quot;isPaintingLayer&quot;:true}" fill="#ff0000" fill-rule="nonzero" stroke="none" stroke-width="0.5" stroke-linecap="butt" stroke-linejoin="miter" stroke-miterlimit="10" stroke-dasharray="" stroke-dashoffset="0" style="mix-blend-mode: normal"><path d="M228.52461,168.19677c-1.2443,-1.40865 0,-2.81728 0,-2.81728l0.87582,-0.97992c3.00395,-2.81563 6.56948,-4.36225 9.87206,-6.6341c1.17518,0.02672 2.59283,-0.7296 3.52555,0.08016c0.83505,0.72497 0.47656,2.32519 0.60674,3.50738c0.24637,2.23731 0.09673,5.02134 -0.00218,7.25073c-0.10721,2.41646 -0.62813,4.78966 -0.76029,7.19348c-0.21619,3.93197 0.11988,7.75145 -0.53086,11.66696c-0.57261,3.44539 -1.46893,6.60899 -1.68891,10.071c4.44171,0.30553 8.90856,0.73638 13.35142,0.72984h0.25269c0,0 1.7597,0 1.7597,1.99212c0,1.99212 -1.7597,1.99212 -1.7597,1.99212h-0.25269c-5.16458,-0.00688 -10.35874,-0.54442 -15.51107,-0.86123c-4.05201,-0.24916 -8.07107,0.56577 -12.06597,1.13191c0,0 -1.74611,0.24709 -1.96437,-1.72965c-0.21827,-1.97674 1.52785,-2.22383 1.52785,-2.22383c3.70279,-0.5232 7.4085,-1.21127 11.15203,-1.20208c0.23798,-3.64935 1.14023,-6.99962 1.73948,-10.63178c0.73155,-4.43407 0.22329,-8.89895 0.7437,-13.34344c0.30504,-2.60515 0.49093,-5.11612 0.4898,-7.74525c-0.00052,-1.20731 -0.23866,-2.45103 -0.11159,-3.63894c-2.71528,1.84205 -5.66117,3.11781 -8.12031,5.4554l-0.64029,0.73643c0,0 -1.2443,1.40865 -2.48859,0z"/></g></g></svg>