<svg version="1.1" xmlns="http://www.w3.org/2000/svg" xmlns:xlink="http://www.w3.org/1999/xlink" width="31.60517" height="44.02596" viewBox="0,0,31.60517,44.02596"><g transform="translate(-224.19742,-157.98702)"><g data-paper-data="{&quot;isPaintingLayer&quot;:true}" fill="#ff6f00" fill-rule="nonzero" stroke="none" stroke-width="0.5" stroke-linecap="butt" stroke-linejoin="miter" stroke-miterlimit="10" stroke-dasharray="" stroke-dashoffset="0" style="mix-blend-mode: normal"><path d="M255.80258,197.78621c0,2.5 -2.5,2.5 -2.5,2.5h-2.15393c-5.09902,0 -9.47927,1.04592 -14.53006,1.42675c-1.9242,0.14509 -3.98436,0.6264 -5.7887,-0.05767c-0.18032,-0.06837 -0.3561,-0.14488 -0.52791,-0.22853l-0.01574,0.03148l-3.54144,-1.77072c-0.84561,-0.40086 -1.43041,-1.26228 -1.43041,-2.26029c0,-0.99801 0.58479,-1.85943 1.43041,-2.26029l2.82347,-1.41173l0.01252,0.02503l0.08138,-0.06956c1.19663,-0.47865 2.39326,-0.9573 3.58989,-1.43595c4.91434,-2.46071 12.46494,-6.47211 13.26141,-12.7434c0.2024,-1.59368 -0.54729,-3.17234 -0.98931,-4.71681c-1.21747,-4.25408 -2.38627,-9.05139 -6.46085,-11.69443c-0.80386,-0.52144 -3.45283,1.24116 -3.53229,1.28853c-2.82345,1.68303 -4.85017,3.53031 -6.79358,6.15851c0,0 -1.5,2 -3.5,0.5c-2,-1.5 -0.5,-3.5 -0.5,-3.5c2.96421,-3.90618 10.35682,-11.63977 16.23929,-9.06644c5.67037,2.48054 7.86273,9.71138 9.33465,14.87073c0.62827,2.20222 1.44601,4.49809 1.16463,6.77083c-1.01437,8.19309 -9.48628,13.34524 -16.08698,16.64934c0.26841,-0.01493 0.53567,-0.03392 0.80094,-0.0602c5.18051,-0.51325 9.72034,-1.44516 14.9587,-1.44516h2.15393c0,0 2.5,0 2.5,2.5z"/></g></g></svg>