<svg version="1.1" xmlns="http://www.w3.org/2000/svg" xmlns:xlink="http://www.w3.org/1999/xlink" width="30.27484" height="46.39535" viewBox="0,0,30.27484,46.39535"><g transform="translate(-224.86258,-156.80233)"><g data-paper-data="{&quot;isPaintingLayer&quot;:true}" fill="#ffb900" fill-rule="nonzero" stroke="none" stroke-width="0.5" stroke-linecap="butt" stroke-linejoin="miter" stroke-miterlimit="10" stroke-dasharray="" stroke-dashoffset="0" style="mix-blend-mode: normal"><path d="M225.27357,198.28935c1.28624,-2.14373 3.42997,-0.85749 3.42997,-0.85749l0.5087,0.7207c4.76231,0 11.98613,1.01023 12.22337,-5.5531c0.03703,-1.02452 -0.08335,-2.05338 -0.00483,-3.07555c0.03326,-0.43294 0.59719,-0.90993 0.33772,-1.2581c-0.36358,-0.48789 -1.20162,-0.28853 -1.72347,-0.60143c-1.51615,-0.90907 -3.00199,-2.01111 -4.41284,-3.17923l-2.83006,0c-1.38071,0 -2.5,-1.11929 -2.5,-2.5c0,-1.38071 1.11929,-2.5 2.5,-2.5l2.40938,0c3.43265,-0.37528 7.18989,0.11445 10.00621,-2.30527c2.20621,-1.89552 5.43319,-5.7593 4.88358,-9.03377c-0.39281,-2.3403 -4.67817,-5.29452 -6.49239,-6.01276c-2.38968,-0.94606 -6.27526,0.24723 -8.58026,1.04317c0,0 -2.37171,0.79057 -3.16228,-1.58114c-0.79057,-2.37171 1.58114,-3.16228 1.58114,-3.16228c3.1999,-1.03656 8.1736,-2.38856 11.52311,-1.11076c3.59007,1.36957 9.24822,5.505 10.0211,9.78274c0.94299,5.21933 -2.85777,10.8047 -6.60406,13.94151c-1.69459,1.4189 -3.5036,2.15423 -5.39387,2.57682c1.0657,0.68579 2.4516,1.05841 3.09926,2.13276c0.65101,1.0799 0.27911,2.50815 0.33772,3.76774c0.18463,3.96771 0.10257,7.37464 -2.88617,10.3835c-3.89948,3.92574 -9.30543,3.24515 -14.33237,3.24515l-3.08118,-1.43323c0,0 -2.14373,-1.28624 -0.85749,-3.42997z"/></g></g></svg>