<svg version="1.1" xmlns="http://www.w3.org/2000/svg" xmlns:xlink="http://www.w3.org/1999/xlink" width="28.42134" height="47.71967" viewBox="0,0,28.42134,47.71967"><g transform="translate(-225.78933,-156.14017)"><g data-paper-data="{&quot;isPaintingLayer&quot;:true}" fill="#40ff00" fill-rule="nonzero" stroke="none" stroke-width="0.5" stroke-linecap="butt" stroke-linejoin="miter" stroke-miterlimit="10" stroke-dasharray="" stroke-dashoffset="0" style="mix-blend-mode: normal"><path d="M244.82458,203.85983c-1.76834,0 -1.76834,-1.76834 -1.76834,-1.76834l0.01366,-0.03459c-0.08806,-0.71362 -0.17611,-1.42724 -0.26416,-2.14085c-0.01042,-5.75288 0.41677,-11.42331 0.87254,-17.10761c-4.32129,0.46059 -9.1698,0.6866 -13.3863,-0.30621c-1.06988,-0.25191 -2.41991,0.02414 -3.21435,-0.73544c-1.18861,-1.13645 -1.03288,-5.48866 -1.03438,-7.09922c-0.00521,-5.59054 -0.24737,-11.18523 -0.25393,-16.75907c0,0 0,-1.76834 1.76834,-1.76834c1.76834,0 1.76834,1.76834 1.76834,1.76834c-0.00724,5.57171 0.25947,11.1695 0.25393,16.75907c-0.00119,1.19919 0.24655,2.39037 0.24027,3.58954c-0.00054,0.1029 -0.04967,0.21607 -0.11041,0.32931c0.42295,0.0134 0.80843,0.17533 1.106,0.43536c0.03423,-0.00284 0.06819,-0.00318 0.10178,-0.00047c0.66336,0.05355 1.27454,0.40873 1.93467,0.49322c3.39882,0.43502 7.36652,0.12506 10.74934,-0.25498c0.12151,-0.015 0.243,-0.0292 0.36445,-0.04265c0.12905,-1.63415 0.25336,-3.27111 0.36327,-4.91315c0.22788,-3.40446 0.20386,-6.79725 0.51169,-10.20722c0,0 0.1601,-1.76107 1.92117,-1.60097c1.76107,0.1601 1.60097,1.92117 1.60097,1.92117c-0.30923,3.37652 -0.28003,6.73494 -0.504,10.10679c-0.09939,1.4962 -0.21099,2.98794 -0.32743,4.47705c1.54705,-0.03268 3.09624,-0.00714 4.65672,-0.00714h0.25393c0,0 1.76834,0 1.76834,1.76834c0,1.76834 -1.76834,1.76834 -1.76834,1.76834h-0.25393c-1.65342,0 -3.29753,-0.0375 -4.93913,0.00855c-0.4584,5.70197 -0.90188,11.38664 -0.91371,17.15762c0.08123,0.64065 0.16246,1.28129 0.24368,1.92195l0.01366,0.47326c0,0 0,1.76834 -1.76834,1.76834z"/></g></g></svg>