<svg version="1.1" xmlns="http://www.w3.org/2000/svg" xmlns:xlink="http://www.w3.org/1999/xlink" width="35.26562" height="43.43023" viewBox="0,0,35.26562,43.43023"><g transform="translate(-222.36719,-158.28488)"><g data-paper-data="{&quot;isPaintingLayer&quot;:true}" fill="#00f1ff" fill-rule="nonzero" stroke="none" stroke-width="0.5" stroke-linecap="butt" stroke-linejoin="miter" stroke-miterlimit="10" stroke-dasharray="" stroke-dashoffset="0" style="mix-blend-mode: normal"><path d="M257.63281,162.36116c0,1.89055 -1.89055,1.89055 -1.89055,1.89055l-1.54442,-0.05645c-1.237,-0.31854 -2.53165,-0.34321 -3.79987,-0.4957c-3.98146,-0.47872 -7.64627,-1.66674 -11.60632,-1.55063c0.74798,2.58268 1.06842,5.30467 1.19301,7.9908c0.0715,1.54153 0.07617,3.90538 -0.28585,5.50312c-0.07036,0.31052 -0.59777,0.58125 -0.43093,0.85243c0.76983,1.25122 2.89515,0.6277 4.22682,1.24805c1.05683,0.49231 2.02618,1.17878 2.9139,1.93458c3.93769,3.35251 6.25009,8.75583 3.34432,13.53326c-0.9912,1.62966 -2.51128,2.74751 -3.91338,3.97897c-4.01278,3.29365 -8.85533,4.52854 -13.98698,4.52498c-2.36568,-0.00164 -6.07925,-0.03874 -7.88266,-1.94228c-0.70281,-0.74183 -0.81154,-1.87574 -1.21731,-2.81361l-0.35513,-1.65042c0,0 -0.37077,-1.85383 1.48307,-2.2246c1.85383,-0.37077 2.2246,1.48307 2.2246,1.48307l0.18781,1.06432c0.69332,2.57755 3.08735,2.30443 5.55962,2.30243c4.16903,-0.00337 8.28797,-0.86223 11.53157,-3.61924c3.57613,-3.11588 5.37657,-6.06331 1.95558,-10.10125c-1.18419,-1.39775 -1.63534,-2.26339 -3.41136,-3.02882c-2.31853,-0.99923 -4.52538,-0.37854 -6.08919,-3.09554c-0.34177,-0.59379 0.32246,-4.08882 0.37042,-4.98654c0.20586,-3.85386 -0.20514,-8.35306 -1.75111,-11.89708c0,0 -0.74472,-1.73769 0.99296,-2.48241c0.39765,-0.17042 0.7433,-0.21085 1.03993,-0.17185c2.65114,-0.33232 6.02484,-0.38989 8.64289,0.03571c1.90686,0.30999 3.71702,1.12948 5.6363,1.34984c1.45188,0.1667 2.92455,0.24389 4.34434,0.59019l0.62737,-0.05645c0,0 1.89055,0 1.89055,1.89055z"/></g></g></svg>