<svg version="1.1" xmlns="http://www.w3.org/2000/svg" xmlns:xlink="http://www.w3.org/1999/xlink" width="24.91701" height="48.35631" viewBox="0,0,24.91701,48.35631"><g transform="translate(-227.54149,-155.82184)"><g data-paper-data="{&quot;isPaintingLayer&quot;:true}" fill="#0077ff" fill-rule="nonzero" stroke="none" stroke-width="0.5" stroke-linecap="butt" stroke-linejoin="miter" stroke-miterlimit="10" stroke-dasharray="" stroke-dashoffset="0" style="mix-blend-mode: normal"><path d="M233.82187,182.66618c-0.19571,0.69755 -0.37768,1.39815 -0.54677,2.10011c-0.88218,3.66234 -1.49802,9.53532 1.19623,12.76903c1.4453,1.73468 6.7796,1.68723 8.89713,1.83805c5.49274,-4.34694 5.67745,-14.14589 -1.90374,-16.81549c-1.69698,-0.59757 -3.57961,-0.3665 -5.36707,-0.57103l-2.04911,0.63175c0,0 -0.08463,0.02418 -0.22668,0.04759zM235.7652,177.01688c5.0683,0.45111 9.21238,0.79625 13.00588,4.66103c4.34083,4.42238 4.68284,11.85331 1.89727,17.25922c-1.39424,2.70578 -3.35608,3.55574 -5.774,5.19771c-4.27158,0.12988 -10.88893,0.18448 -14.07815,-3.18779c-2.90997,-3.07699 -3.55442,-8.68259 -3.17683,-12.68173c0.88079,-9.32884 5.31529,-19.40679 11.85237,-25.9728c2.84438,-2.85697 5.07083,-5.17942 8.97872,-6.37986c0,0 2.40381,-0.6868 3.09061,1.71701c0.6868,2.40381 -1.71701,3.09061 -1.71701,3.09061c-3.04314,0.77027 -4.64223,2.9438 -6.81679,5.10778c-3.18181,3.16633 -5.53364,7.02995 -7.26207,11.18882z"/></g></g></svg>