<svg version="1.1" xmlns="http://www.w3.org/2000/svg" xmlns:xlink="http://www.w3.org/1999/xlink" width="32.45275" height="46.3024" viewBox="0,0,32.45275,46.3024"><g transform="translate(-223.77362,-156.8488)"><g data-paper-data="{&quot;isPaintingLayer&quot;:true}" fill="#a500ff" fill-rule="nonzero" stroke="none" stroke-width="0.5" stroke-linecap="butt" stroke-linejoin="miter" stroke-miterlimit="10" stroke-dasharray="" stroke-dashoffset="0" style="mix-blend-mode: normal"><path d="M232.0649,203.02779c-2.40381,-0.6868 -1.71701,-3.09061 -1.71701,-3.09061l0.85267,-2.87545c0.52615,-0.80631 1.0523,-1.61262 1.57845,-2.41893c2.05051,-3.579 4.92992,-6.7726 6.68572,-10.52058c1.15697,-2.46971 1.92283,-5.14567 3.37988,-7.45111c1.67726,-2.65386 3.83648,-6.4112 5.92318,-8.86412c0.53038,-0.62346 1.3077,-1.00773 1.82811,-1.63954c0.27346,-0.33199 0.84205,-0.92601 0.50159,-1.18885c-1.56533,-1.20849 -3.89687,-0.67628 -5.84428,-1.02028c-6.40825,-1.13198 -12.9934,-0.87754 -19.4536,-2.16659c0,0 -2.45145,-0.49029 -1.96116,-2.94174c0.49029,-2.45145 2.94174,-1.96116 2.94174,-1.96116c4.34443,0.871 8.72515,1.49753 13.15651,1.73917c3.34313,0.1823 6.76626,0.02446 10.00273,1.17683c1.86782,0.66505 4.36051,0.81912 5.39119,2.51285c2.90784,4.77847 -2.0307,7.41206 -3.93882,10.54254c-2.75019,4.51199 -5.16351,8.65157 -7.4037,13.39249c-1.85595,3.92777 -4.81555,7.26289 -6.95585,11.01875c-0.43115,0.62965 -0.86231,1.25929 -1.29346,1.88894l-0.58329,2.15039c0,0 -0.6868,2.40381 -3.09061,1.71701z"/></g></g></svg>