<svg version="1.1" xmlns="http://www.w3.org/2000/svg" xmlns:xlink="http://www.w3.org/1999/xlink" width="22.62694" height="54.67356" viewBox="0,0,22.62694,54.67356"><g transform="translate(-228.68654,-152.66322)"><g data-paper-data="{&quot;isPaintingLayer&quot;:true}" fill="#f46dff" fill-rule="nonzero" stroke="none" stroke-width="0.5" stroke-linecap="butt" stroke-linejoin="miter" stroke-miterlimit="10" stroke-dasharray="" stroke-dashoffset="0" style="mix-blend-mode: normal"><path d="M244.97968,155.16322c0,0.82092 -0.26956,1.37227 -0.63165,1.74258c5.64039,3.96277 7.86564,11.15998 3.38595,17.31616c-0.33317,0.45786 -0.69111,0.87295 -1.06826,1.25437c0.17004,0.21092 0.3309,0.43589 0.48157,0.67638c0.54271,0.86627 0.54895,1.97245 0.91322,2.92758c0.94938,2.48932 1.9096,3.7384 2.58508,6.33665c1.87121,7.19771 -0.01636,18.74545 -7.86849,21.69902c-2.63194,0.99 -6.94679,-1.61774 -8.90116,-2.51141c-2.29391,-2.30055 -3.00318,-2.41558 -3.86532,-5.72536c-0.57943,-2.22441 -0.20723,-4.60049 -0.07777,-6.89548c0.25581,-4.53497 0.60786,-9.78267 3.91337,-13.41295c1.0171,-1.11704 2.27644,-1.94502 3.59198,-2.71777c-2.82263,-0.97534 -5.63664,-1.92315 -7.47361,-4.62166c-0.6904,-1.0142 -0.91245,-2.30168 -1.08938,-3.51574c-0.8038,-5.51549 1.00673,-9.05002 4.5548,-11.64032c0.47407,-0.92159 1.44959,-1.1681 1.93755,-1.23404c0.84356,-0.47252 1.75414,-0.9126 2.72414,-1.32921c1.02123,-0.25805 2.04246,-0.5161 3.06369,-0.77416l1.32432,-0.07464c0,0 2.5,0 2.5,2.5zM242.6597,178.38862c-1.83517,1.07379 -3.69622,2.06683 -5.18811,3.62547c-1.12669,1.17711 -1.49409,3.22154 -1.92181,4.70896c-1.17558,4.08818 -2.13348,10.48461 1.17411,13.77186c1.54064,0.69415 3.18973,2.46788 4.74041,1.79645c4.83069,-2.09163 5.52226,-11.33967 4.33712,-15.6358c-0.55734,-2.02037 -1.72642,-3.92708 -2.44076,-5.86897c-0.45255,-1.23021 -0.25517,-1.81946 -0.70096,-2.39798zM236.46334,159.79728c-1.46933,0.91043 -2.56553,2.12913 -2.61714,4.13701c-0.00565,0.2197 -0.25806,3.78281 0.32724,4.59789c1.84327,2.56687 5.18245,3.06036 8.17779,4.15623c0.48098,-0.42021 0.93074,-0.88229 1.33595,-1.40303c3.30948,-4.25319 0.68801,-8.75783 -3.37866,-11.00242c-1.0146,-0.56001 -2.5992,-0.5242 -3.84519,-0.48568z"/></g></g></svg>