<svg version="1.1" xmlns="http://www.w3.org/2000/svg" xmlns:xlink="http://www.w3.org/1999/xlink" width="25.15936" height="65.31673" viewBox="0,0,25.15936,65.31673"><g transform="translate(-223.17446,-148.91557)"><g data-paper-data="{&quot;isPaintingLayer&quot;:true}" fill="#ff00b9" fill-rule="nonzero" stroke="none" stroke-width="0.5" stroke-linecap="butt" stroke-linejoin="miter" stroke-miterlimit="10" stroke-dasharray="" stroke-dashoffset="0" style="mix-blend-mode: normal"><path d="M242.3708,178.37886c0.27871,-6.1317 0.97159,-12.21577 0.96302,-18.34095c0.07261,-2.85909 -2.54071,-8.22209 -6.36749,-5.69601c-0.81852,0.54031 -3.89441,3.6543 -4.37573,4.16373c-2.41458,2.55563 -2.50017,4.68584 -3.36111,7.89541c-0.73363,2.73495 -1.84939,6.25556 -0.49663,9.13478c1.9333,4.11485 7.8074,7.89482 11.55162,4.47984l1.83367,-1.46757c0,0 0.09224,-0.07379 0.25265,-0.16924zM242.29675,184.91997c-0.47535,0.43434 -0.96707,0.84133 -1.55018,1.09564c-6.00801,2.62029 -14.12555,-3.06973 -16.58258,-8.44865c-1.79504,-3.9297 -0.79249,-8.58138 0.22135,-12.40454c0.6319,-2.38288 0.86452,-4.94662 2.05836,-7.1035c0.66038,-1.1931 4.11785,-4.68004 5.12689,-5.59912c1.96579,-1.79055 3.73913,-3.67053 6.70941,-3.53756c6.63316,0.29694 9.95204,5.10375 10.05382,11.11568c-0.00975,7.67438 -1.07697,15.26081 -1.07697,22.97528c0,5.73294 1.11621,11.2876 0.71169,17.04969c-0.14902,2.12269 -0.04632,4.27213 -0.39282,6.37165c-0.293,1.77541 -1.0666,3.49858 -1.03685,5.29776c0,0 0,2.5 -2.5,2.5c-2.5,0 -2.5,-2.5 -2.5,-2.5c0.04952,-4.09571 1.14114,-7.88452 1.44224,-12.02385c0.36313,-4.99208 -0.48679,-9.83815 -0.68437,-14.78848z"/></g></g></svg>