<svg version="1.1" width="69" height="87" viewBox="-1 -1 69 87" xmlns="http://www.w3.org/2000/svg" xmlns:xlink="http://www.w3.org/1999/xlink">
  <!-- Exported by Scratch - http://scratch.mit.edu/ -->
  <g id="ID0.33659785939380527" transform="matrix(1, 0, 0, 1, -207.5, -161)">
    <path id="ID0.7688141381368041" fill="none" stroke="#666666" stroke-width="15" stroke-linecap="round" d="M 215 169 C 215 169 219.972 181.711 223.500 187.500 C 226.518 192.452 230.661 196.653 234.500 201 C 241.988 209.479 249.562 217.940 257.500 226 C 260.402 228.947 267 234 267 234 "/>
    <path id="ID0.6242357580922544" fill="none" stroke="#666666" stroke-width="15" stroke-linecap="round" d="M 268 178.500 C 268 178.500 255.520 184.432 250 188.500 C 245.923 191.504 242.654 195.538 239.500 199.500 C 236.135 203.727 233.083 208.255 230.500 213 C 225.907 221.438 218 239 218 239 "/>
  </g>
</svg>