<svg version="1.1" width="298" height="235" viewBox="-1 -1 298 235" xmlns="http://www.w3.org/2000/svg" xmlns:xlink="http://www.w3.org/1999/xlink">
  <!-- Exported by Scratch - http://scratch.mit.edu/ -->
  <g id="ID0.07571939332410693" transform="matrix(1.30140221118927, 0, 0, 1.30140221118927, -222.2, -138.05)">
    <path id="ID0.3928354186937213" fill="none" stroke="#000000" stroke-width="2.5" stroke-linecap="round" d="M 215.900 181 L 195.650 188.500 L 180.900 165.500 " transform="matrix(1, 0, 0, 1, -8.9, -6.25)"/>
    <path id="ID0.9777051573619246" fill="none" stroke="#000000" stroke-width="2.5" stroke-linecap="round" d="M 268.450 170.450 L 285 157.650 L 283.700 132 " transform="matrix(0.6122865080833435, 0.7906360030174255, -0.7906360030174255, 0.6122865080833435, 225.4, -147.6)"/>
    <path id="ID0.49139608163386583" fill="none" stroke="#000000" stroke-width="2.5" stroke-linecap="round" d="M 232.167 202.833 L 230.833 239.500 " transform="matrix(1, 0, 0, 1, -8.9, -6.25)"/>
    <path id="ID0.23467008350417018" fill="none" stroke="#000000" stroke-width="2.5" stroke-linecap="round" d="M 251.167 202.500 L 251.167 234.500 " transform="matrix(1, 0, 0, 1, -8.9, -6.25)"/>
    <path id="ID0.421574464533478" fill="#cd8f00" stroke="none" stroke-width="0" stroke-linecap="butt" d="M 267.500 178 C 267.500 194.016 255.188 207 240 207 C 224.812 207 212.500 194.016 212.500 178 C 212.500 161.984 224.812 149 240 149 C 255.188 149 267.500 161.984 267.500 178 Z " transform="matrix(1, 0, 0, 1, -8.9, -6.25)"/>
    <path id="ID0.6969573837704957" fill="#000000" stroke="none" stroke-width="0.5" stroke-linecap="butt" d="M 250.953 165.500 C 250.953 164.119 252.072 163 253.453 163 C 254.834 163 255.953 164.119 255.953 165.500 C 255.953 166.881 254.834 168 253.453 168 C 252.072 168 250.953 166.881 250.953 165.500 Z " transform="matrix(1, 0, 0, 1, -8.9, -6.25)"/>
    <path id="ID0.5627772947773337" fill="#000000" stroke="none" stroke-width="0.5" stroke-linecap="butt" d="M 256.953 179.500 C 256.953 178.119 258.072 177 259.453 177 C 260.834 177 261.953 178.119 261.953 179.500 C 261.953 180.881 260.834 182 259.453 182 C 258.072 182 256.953 180.881 256.953 179.500 Z " transform="matrix(1, 0, 0, 1, -8.9, -6.25)"/>
    <path id="ID0.7080274573527277" fill="#000000" stroke="none" stroke-width="0.5" stroke-linecap="butt" d="M 230.953 175.500 C 230.953 174.119 232.072 173 233.453 173 C 234.834 173 235.953 174.119 235.953 175.500 C 235.953 176.881 234.834 178 233.453 178 C 232.072 178 230.953 176.881 230.953 175.500 Z " transform="matrix(1, 0, 0, 1, -8.9, -6.25)"/>
    <path id="ID0.5464623118750751" fill="#cd8f00" stroke="none" stroke-width="0" stroke-linecap="butt" d="M 260.250 163.145 C 260.250 166.931 257.340 170 253.750 170 C 250.160 170 247.250 166.931 247.250 163.145 C 247.250 159.360 250.160 156.291 253.750 156.291 C 257.340 156.291 260.250 159.360 260.250 163.145 Z " transform="matrix(1, 0, 0, 1, -8.9, -6.25)"/>
    <path id="ID0.6493992758914828" fill="#cd8f00" stroke="none" stroke-width="0" stroke-linecap="butt" d="M 266.448 180 C 266.448 184.280 263.158 187.750 259.099 187.750 C 255.040 187.750 251.750 184.280 251.750 180 C 251.750 175.720 255.040 172.250 259.099 172.250 C 263.158 172.250 266.448 175.720 266.448 180 Z " transform="matrix(1, 0, 0, 1, -8.9, -6.25)"/>
    <path id="ID0.17757336609065533" fill="#000000" stroke="none" stroke-width="0.5" stroke-linecap="butt" d="M 231.883 153.463 C 231.883 152.082 233.002 150.963 234.383 150.963 C 235.763 150.963 236.883 152.082 236.883 153.463 C 236.883 154.844 235.763 155.963 234.383 155.963 C 233.002 155.963 231.883 154.844 231.883 153.463 Z " transform="matrix(1, 0, 0, 1, -8.9, -6.25)"/>
    <path id="ID0.9235629197210073" fill="#000000" stroke="none" stroke-width="0.5" stroke-linecap="butt" d="M 238.290 156.944 C 238.290 155.564 239.409 154.444 240.790 154.444 C 242.171 154.444 243.290 155.564 243.290 156.944 C 243.290 158.325 242.171 159.444 240.790 159.444 C 239.409 159.444 238.290 158.325 238.290 156.944 Z " transform="matrix(1, 0, 0, 1, -8.9, -6.25)"/>
    <path id="ID0.7435574885457754" fill="#000000" stroke="none" stroke-width="0.5" stroke-linecap="butt" d="M 227.855 160.731 C 227.855 159.351 228.974 158.231 230.355 158.231 C 231.735 158.231 232.855 159.351 232.855 160.731 C 232.855 162.112 231.735 163.231 230.355 163.231 C 228.974 163.231 227.855 162.112 227.855 160.731 Z " transform="matrix(1, 0, 0, 1, -8.9, -6.25)"/>
    <path id="ID0.06367308693006635" fill="#000000" stroke="none" stroke-width="0.5" stroke-linecap="butt" d="M 244.286 173.500 C 244.286 172.119 245.406 171 246.786 171 C 248.167 171 249.286 172.119 249.286 173.500 C 249.286 174.881 248.167 176 246.786 176 C 245.406 176 244.286 174.881 244.286 173.500 Z " transform="matrix(1, 0, 0, 1, -8.9, -6.25)"/>
    <path id="ID0.6516056191176176" fill="none" stroke="#000000" stroke-width="2" stroke-linecap="round" d="M 218 183 L 231.750 186.250 "/>
    <g id="ID0.4393244250677526" transform="matrix(0.1879468560218811, -0.050796449184417725, 0.050796449184417725, 0.1879468560218811, 198.9, 117.7)">
      <path id="ID0.3763820603489876" fill="none" stroke="#666666" stroke-width="15" stroke-linecap="round" d="M 250.500 254.500 L 250.800 254.800 " transform="matrix(1, 0, 0, 1, -221, -133)"/>
      <path id="ID0.10798649629577994" fill="none" stroke="#666666" stroke-width="15" stroke-linecap="round" d="M 254 224.500 C 254 224.500 263.790 205.661 266.500 195.500 C 269.177 185.462 270.223 174.886 270 164.500 C 269.884 159.127 268.710 153.311 265.500 149 C 262.464 144.923 257.563 141.452 252.500 141 C 247.201 140.527 241.969 143.614 237.500 146.500 C 233.737 148.931 228.500 156.500 228.500 156.500 " transform="matrix(1, 0, 0, 1, -221, -133)"/>
    </g>
    <g id="ID0.4393244250677526" transform="matrix(0.17889755964279175, 0.07681120187044144, -0.07681120187044144, 0.17889755964279175, 250.35, 112.25)">
      <path id="ID0.3763820603489876" fill="none" stroke="#666666" stroke-width="15" stroke-linecap="round" d="M 250.500 254.500 L 250.800 254.800 " transform="matrix(1, 0, 0, 1, -221, -133)"/>
      <path id="ID0.10798649629577994" fill="none" stroke="#666666" stroke-width="15" stroke-linecap="round" d="M 254 224.500 C 254 224.500 263.790 205.661 266.500 195.500 C 269.177 185.462 270.223 174.886 270 164.500 C 269.884 159.127 268.710 153.311 265.500 149 C 262.464 144.923 257.563 141.452 252.500 141 C 247.201 140.527 241.969 143.614 237.500 146.500 C 233.737 148.931 228.500 156.500 228.500 156.500 " transform="matrix(1, 0, 0, 1, -221, -133)"/>
    </g>
    <g id="ID0.4393244250677526" transform="matrix(0.19447386264801025, -0.009176945313811302, 0.009176945313811302, 0.19447386264801025, 222.15, 106.95)">
      <path id="ID0.3763820603489876" fill="none" stroke="#666666" stroke-width="15" stroke-linecap="round" d="M 250.500 254.500 L 250.800 254.800 " transform="matrix(1, 0, 0, 1, -221, -133)"/>
      <path id="ID0.10798649629577994" fill="none" stroke="#666666" stroke-width="15" stroke-linecap="round" d="M 254 224.500 C 254 224.500 263.790 205.661 266.500 195.500 C 269.177 185.462 270.223 174.886 270 164.500 C 269.884 159.127 268.710 153.311 265.500 149 C 262.464 144.923 257.563 141.452 252.500 141 C 247.201 140.527 241.969 143.614 237.500 146.500 C 233.737 148.931 228.500 156.500 228.500 156.500 " transform="matrix(1, 0, 0, 1, -221, -133)"/>
    </g>
  </g>
</svg>