<svg version="1.1" width="100" height="100" viewBox="0 0 170 150" xmlns="http://www.w3.org/2000/svg" xmlns:xlink="http://www.w3.org/1999/xlink">
  <!-- Exported by Scratch - http://scratch.mit.edu/ -->
  <g id="ID0.5414144708774984" transform="matrix(1, 0, 0, 1, -152, -163)">
    <path id="ID0.750251698307693" fill="#663B00" stroke="none" d="M 152 170 L 319 170 L 319 287 L 152 287 L 152 170 Z "/>
    <g id="ID0.7999245012179017" transform="matrix(1, 0, 0, 1, 257.5, 187)">
      <g id="ID0.5905276453122497">
        <path id="ID0.48030624305829406" fill="#cd8f00" stroke="none" stroke-width="0" d="M 267.500 180 C 267.500 196.016 255.188 209 240 209 C 224.812 209 212.500 196.016 212.500 180 C 212.500 163.984 224.812 151 240 151 C 255.188 151 267.500 163.984 267.500 180 Z " transform="matrix(1, 0, 0, 1, -212.5, -151)"/>
        <path id="ID0.3983548623509705" fill="#000000" stroke="none" stroke-width="0.5" d="M 250.953 167.500 C 250.953 166.119 252.072 165 253.453 165 C 254.834 165 255.953 166.119 255.953 167.500 C 255.953 168.881 254.834 170 253.453 170 C 252.072 170 250.953 168.881 250.953 167.500 Z " transform="matrix(1, 0, 0, 1, -212.5, -151)"/>
        <path id="ID0.8496419964358211" fill="#000000" stroke="none" stroke-width="0.5" d="M 256.953 181.500 C 256.953 180.119 258.072 179 259.453 179 C 260.834 179 261.953 180.119 261.953 181.500 C 261.953 182.881 260.834 184 259.453 184 C 258.072 184 256.953 182.881 256.953 181.500 Z " transform="matrix(1, 0, 0, 1, -212.5, -151)"/>
        <path id="ID0.4627870712429285" fill="#000000" stroke="none" stroke-width="0.5" d="M 239.953 175.500 C 239.953 174.119 241.072 173 242.453 173 C 243.834 173 244.953 174.119 244.953 175.500 C 244.953 176.881 243.834 178 242.453 178 C 241.072 178 239.953 176.881 239.953 175.500 Z " transform="matrix(1, 0, 0, 1, -212.5, -151)"/>
        <path id="ID0.8781486041843891" fill="#cd8f00" stroke="none" stroke-width="0" d="M 260.250 165.145 C 260.250 168.931 257.340 172 253.750 172 C 250.160 172 247.250 168.931 247.250 165.145 C 247.250 161.360 250.160 158.291 253.750 158.291 C 257.340 158.291 260.250 161.360 260.250 165.145 Z " transform="matrix(1, 0, 0, 1, -212.5, -151)"/>
        <path id="ID0.984022309537977" fill="#cd8f00" stroke="none" stroke-width="0" d="M 266.448 182 C 266.448 186.280 263.158 189.750 259.099 189.750 C 255.040 189.750 251.750 186.280 251.750 182 C 251.750 177.720 255.040 174.250 259.099 174.250 C 263.158 174.250 266.448 177.720 266.448 182 Z " transform="matrix(1, 0, 0, 1, -212.5, -151)"/>
        <path id="ID0.6078920736908913" fill="#cd8f00" stroke="none" stroke-width="0" d="M 250.500 172.577 C 250.500 177.091 247.030 180.750 242.750 180.750 C 238.470 180.750 235 177.091 235 172.577 C 235 168.064 238.470 164.405 242.750 164.405 C 247.030 164.405 250.500 168.064 250.500 172.577 Z " transform="matrix(1, 0, 0, 1, -212.5, -151)"/>
        <path id="ID0.15769295068457723" fill="#000000" stroke="none" stroke-width="0.5" d="M 232.549 155.463 C 232.549 154.082 233.668 152.963 235.049 152.963 C 236.430 152.963 237.549 154.082 237.549 155.463 C 237.549 156.844 236.430 157.963 235.049 157.963 C 233.668 157.963 232.549 156.844 232.549 155.463 Z " transform="matrix(1, 0, 0, 1, -212.5, -151)"/>
        <path id="ID0.4021258605644107" fill="#000000" stroke="none" stroke-width="0.5" d="M 241.290 163.611 C 241.290 162.230 242.409 161.111 243.790 161.111 C 245.171 161.111 246.290 162.230 246.290 163.611 C 246.290 164.992 245.171 166.111 243.790 166.111 C 242.409 166.111 241.290 164.992 241.290 163.611 Z " transform="matrix(1, 0, 0, 1, -212.5, -151)"/>
        <path id="ID0.6135280933231115" fill="#000000" stroke="none" stroke-width="0.5" d="M 227.855 165.731 C 227.855 164.351 228.974 163.231 230.355 163.231 C 231.735 163.231 232.855 164.351 232.855 165.731 C 232.855 167.112 231.735 168.231 230.355 168.231 C 228.974 168.231 227.855 167.112 227.855 165.731 Z " transform="matrix(1, 0, 0, 1, -212.5, -151)"/>
      </g>
    </g>
    <path id="ID0.4637901340611279" fill="#FFE9CC" stroke="none" stroke-linecap="round" d="M 169.250 165.250 L 221 160.200 L 228 262 L 217 247 L 200 263 L 188 251 L 175 262 L 169.250 165.250 Z " transform="matrix(0.9970051050186157, 0.07733567804098129, -0.051447927951812744, 0.6632624268531799, 11.8, 44.05)"/>
  </g>
</svg>