<svg version="1.1" width="86" height="62" viewBox="-1 -1 86 62" xmlns="http://www.w3.org/2000/svg" xmlns:xlink="http://www.w3.org/1999/xlink">
  <!-- Exported by Scratch - http://scratch.mit.edu/ -->
  <g id="head" transform="matrix(1, 0, 0, 1, 0.5, 18.45)">
    <path id="ID0.7281943177804351" fill="#FFAB19" stroke="#001026" stroke-width="1.2" d="M 53.100 9 C 50.800 8.600 48.400 8.400 45.600 8.600 C 40.900 8.800 36.400 10.500 36.400 10.500 L 24.300 2.600 C 23.900 2.400 23.400 2.700 23.500 3.100 L 25.600 21 C 26.200 20.200 15 33.800 22.100 45.200 C 29.200 56.600 44.300 61.700 63.100 58 C 81.900 54.300 86.300 43.500 85.100 37.800 C 83.900 32.100 76.800 30 76.800 30 C 76.800 30 76.700 25.500 73.500 20 C 71.600 16.700 65.200 12 65.200 12 L 62.600 1.300 C 62.500 0.900 62 0.800 61.700 1 L 53.100 9 Z " transform="matrix(1, 0, 0, 1, -14, 0)"/>
    <path id="face" fill="#FFFFFF" stroke="none" stroke-width="1" d="M 76.500 30.400 C 76.500 30.400 83.400 32.200 84.600 37.900 C 85.800 43.600 81 53.900 62.400 57.500 C 38.200 62.500 26.700 48.100 33.400 37.500 C 40.100 26.800 51.600 35.900 60 35.300 C 67.200 34.800 68 28.500 76.500 30.400 Z " transform="matrix(1, 0, 0, 1, -14, 0)"/>
    <path id="mouth" fill="#FFFFFF" stroke="#001026" stroke-width="1.2" stroke-linecap="round" stroke-linejoin="round" d="M 45 41.100 C 45 40.700 45.400 40.400 45.800 40.500 C 47.700 41.200 53.100 42.800 59.100 43.200 C 64.500 43.500 67.700 43.200 69.200 42.900 C 69.700 42.800 70.100 43.300 69.900 43.800 C 69 46.500 65.200 54 54.700 53.400 C 45.600 52.400 44.700 46 45 41.100 Z " transform="matrix(1, 0, 0, 1, -14, 0)"/>
    <path id="whisker" fill="none" stroke="#001026" stroke-width="1.2" stroke-linecap="round" stroke-linejoin="round" d="M 83 35.400 C 83 35.400 90.200 35.300 94.900 31.500 " transform="matrix(1, 0, 0, 1, -14, 0)"/>
    <path id="whisker" fill="none" stroke="#001026" stroke-width="1.2" stroke-linecap="round" stroke-linejoin="round" d="M 83.400 41.300 C 83.400 41.300 87.300 43.200 93.600 42.700 " transform="matrix(1, 0, 0, 1, -14, 0)"/>
    <path id="nose" fill="#001026" stroke="#001026" stroke-width="1.2" stroke-linecap="round" stroke-linejoin="round" d="M 59.600 32.700 C 61.700 32.700 63.900 32.900 64 33.600 C 64.100 35 62.600 37.800 61 37.900 C 59.200 38.100 55 35.600 55 34 C 54.900 32.800 57.600 32.700 59.600 32.700 Z " transform="matrix(1, 0, 0, 1, -14, 0)"/>
    <path id="whisker" fill="none" stroke="#001026" stroke-width="1.2" stroke-linecap="round" stroke-linejoin="round" d="M 14.600 31.200 C 14.600 31.200 23.200 34 26.700 37.100 " transform="matrix(1, 0, 0, 1, -14, 0)"/>
    <path id="whisker" fill="none" stroke="#001026" stroke-width="1.2" stroke-linecap="round" stroke-linejoin="round" d="M 15.300 41.200 C 15.300 41.200 22.700 42.300 27 40.600 " transform="matrix(1, 0, 0, 1, -14, 0)"/>
    <g id="eye">
      <path id="pupil" fill="#FFFFFF" stroke="#001026" stroke-width="1.2" stroke-linecap="round" stroke-linejoin="round" d="M 71.400 21 C 74.300 25.500 74.400 30.600 71.600 32.400 C 68.800 34.200 64.200 32.100 61.200 27.600 C 58.300 23.100 58.200 18 61 16.200 C 63.800 14.300 68.500 16.500 71.400 21 Z " transform="matrix(1, 0, 0, 1, -14, 0)"/>
      <path id="pupil" fill="#001026" stroke="none" stroke-width="1" d="M 71 26.700 C 71 27.800 70.200 28.700 69.200 28.700 C 68.200 28.700 67.400 27.800 67.400 26.700 C 67.400 25.600 68.200 24.700 69.200 24.700 C 70.200 24.700 71 25.600 71 26.700 " transform="matrix(1, 0, 0, 1, -14, 0)"/>
    </g>
    <g id="eye">
      <path id="ID0.6164024411700666" fill="#FFFFFF" stroke="#001026" stroke-width="1.2" stroke-linecap="round" stroke-linejoin="round" d="M 46.600 23.800 C 49.600 28.200 49.400 33.600 46.700 35.500 C 43.400 37.400 39 36 36 31.600 C 32.900 27.200 32.700 21.500 35.800 19.300 C 38.900 17 43.600 19.400 46.600 23.800 Z " transform="matrix(1, 0, 0, 1, -14, 0)"/>
      <path id="pupil" fill="#001026" stroke="none" stroke-width="1" d="M 46 29.600 C 46 30.700 45.200 31.600 44.200 31.600 C 43.200 31.600 42.400 30.700 42.400 29.600 C 42.400 28.500 43.200 27.600 44.200 27.600 C 45.200 27.700 46 28.500 46 29.600 " transform="matrix(1, 0, 0, 1, -14, 0)"/>
    </g>
  </g>
  <g id="ID0.6404848755337298" transform="matrix(1, 0, 0, 1, 29, 37)">
    <g id="Layer_2">
      <path id="ID0.8546180119737983" fill="#FAA51D" stroke="#231F20" stroke-width="1.2" d="M 52.709 14.156 C 51.169 14.013 47.959 13.840 46.191 13.925 C 41.463 14.150 36.967 15.853 36.967 15.853 L 23.949 7.357 L 26.184 26.263 C 26.830 25.481 15.629 39.067 22.705 50.487 C 29.785 61.913 44.938 67.005 63.693 63.279 C 82.448 59.550 86.922 48.748 85.679 43.033 C 84.437 37.319 77.357 35.210 77.357 35.210 C 77.357 35.210 77.267 30.730 74.029 25.240 C 72.103 21.972 65.681 17.199 65.681 17.199 L 62.822 5.647 L 55.370 12.851 L 52.709 14.156 Z " transform="matrix(1, 0, 0, 1, -9, -4)"/>
      <path id="ID0.04567428072914481" fill="#FFFFFF" d="M 76.420 35.066 L 73.938 33.002 L 64.823 35.663 C 64.823 35.663 64.823 39.082 60.456 40.030 C 56.086 40.981 49.245 37.753 49.245 37.753 L 41.460 41.170 C 41.460 41.170 33.023 42.098 32.721 47.251 C 32.048 58.704 46.100 63.479 51.425 63.783 C 54.330 63.950 59.660 63.445 63.702 62.642 C 81.454 59.408 86.253 48.723 85.012 43.007 C 83.770 37.293 77.034 35.811 77.034 35.811 L 76.420 35.066 Z " transform="matrix(1, 0, 0, 1, -9, -4)"/>
      <path id="ID0.34308241307735443" fill="none" stroke="#231F20" stroke-width="1.2" d="M 10.673 46.155 C 10.673 46.155 14.780 46.529 16.647 46.423 C 18.512 46.316 22.139 45.836 22.139 45.836 " transform="matrix(1, 0, 0, 1, -9, -4)"/>
      <path id="ID0.2950857076793909" fill="none" stroke="#231F20" stroke-width="1.2" d="M 81.656 40.671 C 81.656 40.671 86.205 39.928 88.515 39.122 C 91.230 38.180 93.058 36.577 93.058 36.577 " transform="matrix(1, 0, 0, 1, -9, -4)"/>
      <path id="ID0.34142406238242984" fill="none" stroke="#231F20" stroke-width="1.2" d="M 22.337 41.909 C 22.337 41.909 19.953 40.132 16.220 38.479 C 12.086 36.648 9.815 36.176 9.815 36.176 " transform="matrix(1, 0, 0, 1, -9, -4)"/>
      <path id="ID0.3510675961151719" fill="none" stroke="#231F20" stroke-width="1.2" d="M 82.117 46.622 C 82.117 46.622 84.843 47.726 87.650 48.007 C 90.420 48.283 92.296 48.117 92.296 48.117 " transform="matrix(1, 0, 0, 1, -9, -4)"/>
      <path id="ID0.6497335419990122" fill="none" stroke="#000000" stroke-linecap="round" d="M 52.350 14.212 C 55.190 14.912 56.237 15.681 56.237 15.681 " transform="matrix(1, 0, 0, 1, -9, -4)"/>
      <path id="ID0.37330137146636844" fill="none" stroke="#000000" d="M 33.898 13.684 L 39.956 18.042 " transform="matrix(1, 0, 0, 1, -9, -4)"/>
    </g>
    <g id="Layer_5">
      <path id="ID0.4835193413309753" fill="#FFFFFF" stroke="#231F20" d="M 71.840 25.366 C 74.764 29.845 74.873 34.957 72.082 36.781 C 69.289 38.606 64.656 36.449 61.728 31.968 C 58.795 27.488 58.691 22.379 61.484 20.553 C 64.275 18.730 68.913 20.884 71.840 25.366 Z " transform="matrix(1, 0, 0, 1, -9, -4)"/>
      <path id="ID0.8123520566150546" fill="#231F20" d="M 71.089 32.522 C 71.089 33.602 70.287 34.478 69.289 34.478 C 68.296 34.478 67.486 33.601 67.486 32.522 C 67.486 31.442 68.296 30.564 69.289 30.564 C 70.287 30.564 71.089 31.442 71.089 32.522 " transform="matrix(1, 0, 0, 1, -9, -4)"/>
    </g>
    <g id="Layer_7">
      <path id="ID0.17737571569159627" fill="#FFFFFF" stroke="#231F20" d="M 47.867 28.619 C 50.793 33.099 50.486 38.481 47.186 40.634 C 43.884 42.793 38.835 40.906 35.910 36.426 C 32.982 31.946 33.286 26.566 36.588 24.409 C 39.891 22.253 44.938 24.137 47.867 28.619 Z " transform="matrix(1, 0, 0, 1, -9, -4)"/>
      <path id="ID0.6065893755294383" fill="#231F20" d="M 46.079 34.507 C 46.079 35.588 45.276 36.464 44.278 36.464 C 43.286 36.464 42.475 35.586 42.475 34.507 C 42.475 33.427 43.286 32.550 44.278 32.550 C 45.274 32.550 46.079 33.427 46.079 34.507 " transform="matrix(1, 0, 0, 1, -9, -4)"/>
    </g>
    <path id="ID0.33457673992961645" fill="#5E4A42" stroke="#000000" d="M 59.766 37.926 C 61.620 37.926 64.321 37.642 64.463 38.495 C 64.606 39.350 62.754 42.698 61.475 42.840 C 60.192 42.982 55.350 40.487 55.280 38.921 C 55.206 37.355 58.055 37.926 59.766 37.926 Z " transform="matrix(1, 0, 0, 1, -9, -4)"/>
    <g id="Layer_4">
      <path id="ID0.0926881805062294" fill="none" stroke="#231F20" stroke-width="1.2" d="M 46.774 45.235 C 46.774 45.235 57.121 48.289 60.991 49.132 C 64.859 49.974 71.842 50.816 71.842 50.816 C 71.842 50.816 63.852 61.061 54.514 58.460 C 45.176 55.863 45.345 49.975 46.774 45.235 Z " transform="matrix(1, 0, 0, 1, -9, -4)"/>
    </g>
  </g>
  <path id="ID0.20833052787929773" fill="none" stroke="#00FFFF" stroke-width="5" stroke-linecap="round" d="M 205.500 109.250 C 205.500 109.250 208.081 106.005 209.500 104.500 C 210.833 103.086 212.250 101.735 213.750 100.500 C 215.087 99.399 216.443 98.259 218 97.500 C 219.728 96.658 221.606 96.079 223.500 95.750 C 225.470 95.407 227.646 94.752 229.500 95.500 C 232.650 96.771 235.306 99.140 237.750 101.500 C 240.182 103.848 242.657 106.398 244 109.500 C 245.165 112.191 245 118.250 245 118.250 " transform="matrix(1, 0, 0, 1, -173, -92)"/>
  <path id="ID0.4129630592651665" fill="none" stroke="#00FFFF" stroke-width="5" stroke-linecap="round" d="M 238.250 113.250 C 238.250 113.250 239.471 117.671 241 119.250 C 242.248 120.538 244.304 121.833 246 121.250 C 247.769 120.642 248.254 118.216 249 116.500 C 249.935 114.350 251 109.750 251 109.750 " transform="matrix(1, 0, 0, 1, -173, -92)"/>
</svg>