<svg version="1.1" width="475" height="374" viewBox="-1 -1 475 374" xmlns="http://www.w3.org/2000/svg" xmlns:xlink="http://www.w3.org/1999/xlink">
  <defs>
    <radialGradient id="grad_1" cx="0.8583" cy="0.3111" r="1.1157899999999998">
      <stop offset="0" stop-color="#FF9999" stop-opacity="1"/>
      <stop offset="1" stop-color="#FF9999" stop-opacity="0"/>
    </radialGradient>
    <radialGradient id="grad_2" cx="0.4938" cy="0.5061" r="0.65806">
      <stop offset="0" stop-color="#FF0000" stop-opacity="1"/>
      <stop offset="1" stop-color="#FF0000" stop-opacity="0"/>
    </radialGradient>
    <radialGradient id="grad_3" cx="0.5367999999999999" cy="0.5157" r="0.69784">
      <stop offset="0" stop-color="#FF9400" stop-opacity="1"/>
      <stop offset="1" stop-color="#FF9400" stop-opacity="0"/>
    </radialGradient>
    <radialGradient id="grad_4" cx="0.5614" cy="0.46490000000000004" r="0.72982">
      <stop offset="0" stop-color="#1DB8FF" stop-opacity="1"/>
      <stop offset="1" stop-color="#1DB8FF" stop-opacity="0"/>
    </radialGradient>
  </defs>
  <!-- Exported by Scratch - http://scratch.mit.edu/ -->
  <g id="ID0.438914327416569" transform="matrix(1, 0, 0, 1, -6, 11)">
    <g id="ID0.03862778004258871" transform="matrix(1, 0, 0, 1, 6, -11)">
      <g id="ID0.5860644611530006">
        <path id="ID0.978407793212682" fill="none" stroke="#000000" stroke-width="2" stroke-linecap="round" d="M 205 157 L 212 199 " transform="matrix(1, 0, 0, 1, -134, 128)"/>
        <path id="ID0.49139608163386583" fill="none" stroke="#000000" stroke-width="2.5" stroke-linecap="round" d="M 232.167 202.833 L 230.833 239.500 " transform="matrix(1.30140221118927, 0, 0, 1.30140221118927, -275.75, 48.8)"/>
        <path id="ID0.23467008350417018" fill="none" stroke="#000000" stroke-width="2.5" stroke-linecap="round" d="M 251.167 202.500 L 251.167 234.500 " transform="matrix(1.30140221118927, 0, 0, 1.30140221118927, -275.75, 47.3)"/>
        <path id="ID0.421574464533478" fill="#cd8f00" stroke="none" stroke-width="0" stroke-linecap="butt" d="M 267.500 178 C 267.500 194.016 255.188 207 240 207 C 224.812 207 212.500 194.016 212.500 178 C 212.500 161.984 224.812 149 240 149 C 255.188 149 267.500 161.984 267.500 178 Z " transform="matrix(1.30140221118927, 0, 0, 1.30140221118927, -275.75, 45.8)"/>
        <path id="ID0.6969573837704957" fill="#000000" stroke="none" stroke-width="0.5" stroke-linecap="butt" d="M 250.953 165.500 C 250.953 164.119 252.072 163 253.453 163 C 254.834 163 255.953 164.119 255.953 165.500 C 255.953 166.881 254.834 168 253.453 168 C 252.072 168 250.953 166.881 250.953 165.500 Z " transform="matrix(1.30140221118927, 0, 0, 1.30140221118927, -275.75, 45.8)"/>
        <path id="ID0.5627772947773337" fill="#000000" stroke="none" stroke-width="0.5" stroke-linecap="butt" d="M 256.953 179.500 C 256.953 178.119 258.072 177 259.453 177 C 260.834 177 261.953 178.119 261.953 179.500 C 261.953 180.881 260.834 182 259.453 182 C 258.072 182 256.953 180.881 256.953 179.500 Z " transform="matrix(1.30140221118927, 0, 0, 1.30140221118927, -275.75, 45.8)"/>
        <path id="ID0.7080274573527277" fill="#000000" stroke="none" stroke-width="0.5" stroke-linecap="butt" d="M 230.953 175.500 C 230.953 174.119 232.072 173 233.453 173 C 234.834 173 235.953 174.119 235.953 175.500 C 235.953 176.881 234.834 178 233.453 178 C 232.072 178 230.953 176.881 230.953 175.500 Z " transform="matrix(1.30140221118927, 0, 0, 1.30140221118927, -262.75, 41.8)"/>
        <path id="ID0.5464623118750751" fill="#cd8f00" stroke="none" stroke-width="0" stroke-linecap="butt" d="M 260.250 163.145 C 260.250 166.931 257.340 170 253.750 170 C 250.160 170 247.250 166.931 247.250 163.145 C 247.250 159.360 250.160 156.291 253.750 156.291 C 257.340 156.291 260.250 159.360 260.250 163.145 Z " transform="matrix(1.30140221118927, 0, 0, 1.30140221118927, -275.75, 45.8)"/>
        <path id="ID0.6493992758914828" fill="#cd8f00" stroke="none" stroke-width="0" stroke-linecap="butt" d="M 266.448 180 C 266.448 184.280 263.158 187.750 259.099 187.750 C 255.040 187.750 251.750 184.280 251.750 180 C 251.750 175.720 255.040 172.250 259.099 172.250 C 263.158 172.250 266.448 175.720 266.448 180 Z " transform="matrix(1.30140221118927, 0, 0, 1.30140221118927, -275.75, 45.8)"/>
        <path id="ID0.17757336609065533" fill="#000000" stroke="none" stroke-width="0.5" stroke-linecap="butt" d="M 231.883 153.463 C 231.883 152.082 233.002 150.963 234.383 150.963 C 235.763 150.963 236.883 152.082 236.883 153.463 C 236.883 154.844 235.763 155.963 234.383 155.963 C 233.002 155.963 231.883 154.844 231.883 153.463 Z " transform="matrix(1.30140221118927, 0, 0, 1.30140221118927, -275.75, 45.8)"/>
        <path id="ID0.9235629197210073" fill="#000000" stroke="none" stroke-width="0.5" stroke-linecap="butt" d="M 238.290 156.944 C 238.290 155.564 239.409 154.444 240.790 154.444 C 242.171 154.444 243.290 155.564 243.290 156.944 C 243.290 158.325 242.171 159.444 240.790 159.444 C 239.409 159.444 238.290 158.325 238.290 156.944 Z " transform="matrix(1.30140221118927, 0, 0, 1.30140221118927, -275.75, 45.8)"/>
        <path id="ID0.7435574885457754" fill="#000000" stroke="none" stroke-width="0.5" stroke-linecap="butt" d="M 227.855 160.731 C 227.855 159.351 228.974 158.231 230.355 158.231 C 231.735 158.231 232.855 159.351 232.855 160.731 C 232.855 162.112 231.735 163.231 230.355 163.231 C 228.974 163.231 227.855 162.112 227.855 160.731 Z " transform="matrix(1.30140221118927, 0, 0, 1.30140221118927, -275.75, 45.8)"/>
        <path id="ID0.06367308693006635" fill="#000000" stroke="none" stroke-width="0.5" stroke-linecap="butt" d="M 244.286 173.500 C 244.286 172.119 245.406 171 246.786 171 C 248.167 171 249.286 172.119 249.286 173.500 C 249.286 174.881 248.167 176 246.786 176 C 245.406 176 244.286 174.881 244.286 173.500 Z " transform="matrix(1.30140221118927, 0, 0, 1.30140221118927, -266.75, 38.8)"/>
        <g id="ID0.17466429062187672">
          <path id="ID0.04342304915189743" fill="#660000" stroke="#000000" stroke-width="2" stroke-linecap="round" d="M 167.500 153.750 C 171.931 151.676 177.299 155.379 182.250 155.750 C 183.854 155.715 185.910 153.558 187 154.750 C 188.513 156.422 187.898 159.033 187.500 161 C 187.199 162.703 186.280 164.462 185 165.250 C 181.378 167.471 177.452 169.525 173.250 170.250 C 171.437 170.562 169.418 169.743 168 168.500 C 166.683 167.103 165.866 164.982 165.750 163 C 165.568 159.897 164.663 155.081 167.500 153.750 Z " transform="matrix(0.7734375, 0, 0, 0.7734375, -95.25, 167.5)"/>
          <path id="ID0.07360242400318384" fill="#FFCCCC" stroke="#FF9999" stroke-linecap="round" d="M 217.125 165.500 C 217.918 165.500 218.776 165.546 219.157 166.050 C 219.409 166.388 218.411 166.768 218.200 167.250 C 218.079 167.763 218.494 168.410 218.200 168.900 C 218.007 169.206 217.503 169.265 217.125 169.250 C 216.072 169.207 214.865 169.217 214 168.600 C 213.607 168.397 214.078 167.803 214.250 167.375 C 214.446 166.892 214.572 166.389 215.093 166.050 C 215.613 165.710 216.332 165.500 217.125 165.500 Z " transform="matrix(0.8482863306999207, 0, 0, 1.196792721748352, -145.3, 96.45)"/>
          <path id="ID0.22346897842362523" fill="#000000" stroke="none" stroke-linecap="round" d="M 211.850 169.650 L 211.700 168.350 L 215.700 169.850 L 219.200 169.750 L 219.200 171.250 L 215.700 171.750 L 211.850 169.650 Z " transform="matrix(0.7734375, 0, 0, 0.7734375, -129.1, 166.95)"/>
        </g>
        <path id="ID0.2603455469943583" fill="none" stroke="#000000" stroke-width="2" stroke-linecap="round" d="M 139 159 L 133 202 " transform="matrix(1, 0, 0, 1, -127, 125)"/>
      </g>
      <path id="ID0.47460990585386753" fill="url(#grad_1)" stroke="none" d="M 304.250 146.500 C 312.872 146.500 320.684 150.002 326.341 155.659 C 331.998 161.316 335.500 169.128 335.500 177.750 C 335.500 186.372 331.998 194.184 326.341 199.841 C 320.684 205.498 312.872 209 304.250 209 C 295.628 209 287.816 205.498 282.159 199.841 C 276.502 194.184 273 186.372 273 177.750 C 273 169.128 276.502 161.316 282.159 155.659 C 287.816 150.002 295.628 146.500 304.250 146.500 Z " transform="matrix(1.7272239923477173, -0.31322717666625977, 0.31322717666625977, 1.7272239923477173, -511.25, 44.2)"/>
    </g>
    <path id="ID0.8696074425242841" fill="none" stroke="#FF0000" stroke-width="2" stroke-linecap="round" d="M 199 123 C 199 123 197.549 117.021 197 114 C 196.863 113.245 197.247 112.618 197 112 C 196.554 110.885 195.618 110.030 195 109 C 194.617 108.362 194.333 107.666 194 107 C 193.334 105.668 192.666 104.332 192 103 C 191.667 102.334 191.333 101.666 191 101 C 190.667 100.334 190.447 99.596 190 99 C 189.435 98.247 188.666 97.666 188 97 C 187.334 96.334 186.753 95.565 186 95 C 185.404 94.553 184.596 94.447 184 94 C 183.247 93.435 182.753 92.565 182 92 C 181.404 91.553 180.666 91.333 180 91 C 179.334 90.667 178.666 90.333 178 90 C 177.334 89.667 176.527 89.527 176 89 C 175.473 88.473 175.596 87.447 175 87 C 174.158 86.368 172.903 86.542 172 86 C 171.192 85.515 170.565 84.753 170 84 C 169.553 83.404 169.620 82.413 169 82 C 168.446 81.631 167.646 82.162 167 82 C 166.278 81.819 165.722 81.181 165 81 C 164.354 80.838 163.646 81.162 163 81 C 162.278 80.819 161.730 80.146 161 80 C 160.020 79.804 158.999 80 158 80 C 157.334 80 156.646 80.162 156 80 C 155.278 79.819 154.722 79.181 154 79 C 153.354 78.838 152.646 79.162 152 79 C 151.278 78.819 150.666 78.333 150 78 C 149.334 77.667 148.666 77.333 148 77 C 147.833 76.917 148 77 148 77 "/>
    <path id="ID0.48199246264994144" fill="none" stroke="#FF0000" stroke-width="2" stroke-linecap="round" d="M 190 128 C 190 128 188.084 130.736 187 132 C 186.081 133.073 184.883 133.897 184 135 C 183.535 135.581 183.527 136.473 183 137 C 182.473 137.527 181.413 137.380 181 138 C 180.631 138.554 181.369 139.446 181 140 C 180.587 140.620 179.596 140.553 179 141 C 178.247 141.565 177.588 142.265 177 143 C 176.250 143.938 175.849 145.151 175 146 C 174.151 146.849 172.720 147.039 172 148 C 171.600 148.533 172.162 149.354 172 150 C 171.819 150.722 171.447 151.404 171 152 C 170.435 152.753 169.421 153.158 169 154 C 168.702 154.596 169.109 155.343 169 156 C 168.774 157.354 168.269 158.654 168 160 C 167.933 160.337 168 161 168 161 "/>
    <path id="ID0.38983358070254326" fill="none" stroke="#FF0000" stroke-width="2" stroke-linecap="round" d="M 204 156 C 204 156 206.118 158.588 207 160 C 207.789 161.263 208.334 162.668 209 164 C 209.666 165.332 210.334 166.668 211 168 C 211.333 168.666 211.667 169.334 212 170 C 212.333 170.666 212.723 171.309 213 172 C 213.391 172.978 213.609 174.022 214 175 C 214.277 175.691 214.819 176.278 215 177 C 215.162 177.646 214.702 178.404 215 179 C 215.421 179.842 216.435 180.247 217 181 C 217.447 181.596 217.819 182.278 218 183 C 218.162 183.646 217.838 184.354 218 185 C 218.181 185.722 218.723 186.309 219 187 C 219.391 187.978 219.609 189.022 220 190 C 220.277 190.691 220.819 191.278 221 192 C 221.162 192.646 221 193.334 221 194 C 221 194.666 221 195.334 221 196 C 221 196.333 221 197 221 197 "/>
    <path id="ID0.7956984317861497" fill="none" stroke="#FF0000" stroke-width="2" stroke-linecap="round" d="M 235 150 C 235 150 237.617 148.553 239 148 C 240.955 147.218 243.045 146.782 245 146 C 246.383 145.447 247.788 144.866 249 144 C 250.150 143.179 250.915 141.904 252 141 C 252.922 140.231 254.062 139.750 255 139 C 255.735 138.412 256.247 137.565 257 137 C 257.596 136.553 258.404 136.447 259 136 C 259.753 135.435 260.216 134.522 261 134 C 261.277 133.815 262 134 262 134 "/>
    <path id="ID0.27894381852820516" fill="none" stroke="#FF0000" stroke-width="2" stroke-linecap="round" d="M 240 119 C 240 119 239.283 107.664 239 102 C 238.929 100.584 239.196 99.980 239 99 C 238.854 98.270 238.181 97.722 238 97 C 237.838 96.354 238.162 95.646 238 95 C 237.819 94.278 237.447 93.596 237 93 C 236.435 92.247 235.666 91.666 235 91 C 234.667 90.667 234 90 234 90 "/>
    <path id="ID0.9636758510023355" fill="none" stroke="#FF0000" stroke-width="2" stroke-linecap="round" d="M 226 107 C 226 107 224.030 102.317 223 100 C 222.698 99.320 222.333 98.666 222 98 C 221.667 97.334 221.333 96.666 221 96 C 220.667 95.334 220.447 94.596 220 94 C 219.435 93.247 218.421 92.842 218 92 C 217.702 91.404 218.369 90.554 218 90 C 217.587 89.380 216.527 89.527 216 89 C 215.473 88.473 215.235 87.706 215 87 C 214.566 85.697 214.614 84.228 214 83 C 213.579 82.158 212.485 81.808 212 81 C 211.458 80.097 211.333 78.999 211 78 C 210.667 77.001 210.207 76.033 210 75 C 209.869 74.347 210.369 73.554 210 73 C 209.587 72.380 208.447 72.596 208 72 C 207.368 71.158 207.391 69.978 207 69 C 206.723 68.309 206.413 67.620 206 67 C 205.739 66.608 205 66 205 66 "/>
    <path id="ID0.5952114649116993" fill="none" stroke="#FF0000" stroke-width="2" stroke-linecap="round" d="M 234 161 C 234 161 235.261 165.028 236 167 C 236.261 167.697 236.553 168.404 237 169 C 237.565 169.753 238.650 170.125 239 171 C 239.371 171.928 238.804 173.020 239 174 C 239.146 174.730 239.723 175.309 240 176 C 240.391 176.978 240.793 177.967 241 179 C 241.131 179.653 240.869 180.347 241 181 C 241.207 182.033 241.609 183.022 242 184 C 242.277 184.691 242.878 185.266 243 186 C 243.219 187.314 243 188.668 243 190 C 243 190.666 243 191.334 243 192 C 243 192.999 243 194.001 243 195 C 243 195.666 243 196.334 243 197 C 243 198.332 243.219 199.686 243 201 C 242.878 201.734 242.146 202.270 242 203 C 241.804 203.980 242 205.001 242 206 C 242 206.333 242 207 242 207 "/>
    <path id="ID0.8043823973275721" fill="none" stroke="#FF0000" stroke-width="2" stroke-linecap="round" d="M 182 171 C 182 171 181.333 173.001 181 174 C 180.667 174.999 180.207 175.967 180 177 C 179.869 177.653 180.343 178.429 180 179 C 179.273 180.211 177.727 180.789 177 182 C 176.657 182.571 177.247 183.382 177 184 C 176.554 185.115 175.618 185.970 175 187 C 174.617 187.638 174.146 188.270 174 189 C 173.804 189.980 174.196 191.020 174 192 C 173.854 192.730 173.527 193.473 173 194 C 172.765 194.235 172 194 172 194 "/>
    <path id="ID0.5191191448830068" fill="none" stroke="#FF0000" stroke-width="2" stroke-linecap="round" d="M 150 120 C 150 120 145.340 120.740 143 121 C 142.338 121.074 141.666 121 141 121 C 140.334 121 139.653 120.869 139 121 C 137.967 121.207 136.978 121.609 136 122 C 135.309 122.277 134.666 122.667 134 123 C 133.334 123.333 132.413 123.380 132 124 C 131.631 124.554 132.471 125.529 132 126 C 131.529 126.471 130.471 125.529 130 126 C 128.947 127.053 128.969 128.869 128 130 C 126.916 131.264 125.279 131.934 124 133 C 123.276 133.603 122.784 134.478 122 135 C 121.723 135.185 121 135 121 135 "/>
    <path id="ID0.43766447016969323" fill="none" stroke="#FF0000" stroke-width="2" stroke-linecap="round" d="M 260 102 C 260 102 268 101.286 272 101 C 273 100.929 273.334 101 274 101 C 274.666 101 275.334 101 276 101 C 276.999 101 278.001 101 279 101 C 279.666 101 280.354 100.838 281 101 C 281.722 101.181 282.309 101.723 283 102 C 283.978 102.391 285.022 102.609 286 103 C 286.691 103.277 287.278 103.819 288 104 C 288.646 104.162 289.354 103.838 290 104 C 290.722 104.181 291.278 104.819 292 105 C 292.646 105.162 293.446 104.631 294 105 C 294.620 105.413 294.380 106.587 295 107 C 295.554 107.369 296.347 106.869 297 107 C 298.033 107.207 299.097 107.458 300 108 C 300.808 108.485 301.334 109.334 302 110 C 302.166 110.166 302 110 302 110 "/>
    <path id="ID0.4335761917755008" fill="url(#grad_2)" stroke="none" d="M 228.500 101 C 239.674 101 249.799 105.538 257.130 112.870 C 264.462 120.201 269 130.326 269 141.500 C 269 152.674 264.462 162.799 257.130 170.130 C 249.799 177.462 239.674 182 228.500 182 C 217.326 182 207.201 177.462 199.870 170.130 C 192.538 162.799 188 152.674 188 141.500 C 188 130.326 192.538 120.201 199.870 112.870 C 207.201 105.538 217.326 101 228.500 101 Z " transform="matrix(1.3580247163772583, 0, 0, 1.3580247163772583, -94.3, -56.15)"/>
    <path id="ID0.7142498940229416" fill="url(#grad_3)" stroke="none" d="M 399.500 167 C 412.605 167 424.480 172.323 433.079 180.921 C 441.677 189.520 447 201.395 447 214.500 C 447 227.605 441.677 239.480 433.079 248.079 C 424.480 256.677 412.605 262 399.500 262 C 386.395 262 374.520 256.677 365.921 248.079 C 357.323 239.480 352 227.605 352 214.500 C 352 201.395 357.323 189.520 365.921 180.921 C 374.520 172.323 386.395 167 399.500 167 Z "/>
    <path id="ID0.3808402270078659" fill="none" stroke="#FF9400" stroke-width="2" stroke-linecap="round" d="M 369 149 C 369 149 367.666 146.332 367 145 C 366.667 144.334 366.447 143.596 366 143 C 365.435 142.247 364.666 141.666 364 141 C 363.001 140.001 361.883 139.103 361 138 C 360.535 137.419 360.465 136.581 360 136 C 359.117 134.897 357.821 134.150 357 133 C 356.134 131.788 355.666 130.332 355 129 C 354.667 128.334 354.527 127.527 354 127 C 353.473 126.473 352.666 126.333 352 126 C 351.334 125.667 350.666 125.333 350 125 C 349.834 124.917 350 125 350 125 "/>
    <path id="ID0.9067736472934484" fill="none" stroke="#FF9400" stroke-width="2" stroke-linecap="round" d="M 348 250 C 348 250 347.213 254.655 347 257 C 346.879 258.327 347.111 259.673 347 261 C 346.777 263.675 346.495 266.361 346 269 C 345.494 271.699 344 277 344 277 "/>
    <path id="ID0.4789487970992923" fill="none" stroke="#FF9400" stroke-width="2" stroke-linecap="round" d="M 341 201 C 341 201 337.013 201.776 335 202 C 334.007 202.110 332.999 202 332 202 C 331.334 202 330.646 201.838 330 202 C 329.278 202.181 328.722 202.819 328 203 C 327.354 203.162 326.646 202.838 326 203 C 325.278 203.181 324.722 203.819 324 204 C 323.354 204.162 322 204 322 204 "/>
    <path id="ID0.44487068708986044" fill="none" stroke="#FF9400" stroke-width="2" stroke-linecap="round" d="M 390 271 C 390 271 393.317 273.691 395 275 C 396.314 276.022 397.615 277.076 399 278 C 399.620 278.413 400.380 278.587 401 279 C 402.385 279.924 403.721 280.934 405 282 C 405.724 282.603 406.247 283.435 407 284 C 407.596 284.447 408.404 284.553 409 285 C 409.753 285.565 410.247 286.435 411 287 C 411.596 287.447 412.404 287.553 413 288 C 413.753 288.565 414.247 289.435 415 290 C 415.596 290.447 416.473 290.473 417 291 C 417.527 291.527 417.404 292.553 418 293 C 418.842 293.632 420.158 293.368 421 294 C 421.596 294.447 421.667 295.334 422 296 C 422.083 296.166 422 296 422 296 "/>
    <path id="ID0.22844376415014267" fill="none" stroke="#FF9400" stroke-width="2" stroke-linecap="round" d="M 454 240 C 454 240 456.646 240.774 458 241 C 458.657 241.109 459.334 241 460 241 C 460.666 241 461.334 241 462 241 C 462.666 241 463.334 241 464 241 C 464.666 241 465.354 240.838 466 241 C 466.722 241.181 467.278 241.819 468 242 C 468.646 242.162 469.446 241.631 470 242 C 470.620 242.413 470.473 243.473 471 244 C 471.235 244.235 472 244 472 244 "/>
    <path id="ID0.8897590655833483" fill="none" stroke="#FF9400" stroke-width="2" stroke-linecap="round" d="M 450 166 C 450 166 450.566 163.303 451 162 C 451.235 161.294 451.765 160.706 452 160 C 452.434 158.697 452.566 157.303 453 156 C 453.235 155.294 453.707 154.684 454 154 C 454.706 152.352 455.611 150.751 456 149 C 456.289 147.700 456 146.332 456 145 C 456 141.337 456 134 456 134 "/>
    <path id="ID0.5177748673595488" fill="none" stroke="#FF9400" stroke-width="2" stroke-linecap="round" d="M 406 145 C 406 145 405.609 130.308 405 123 C 404.848 121.173 404.181 121.722 404 121 C 403.838 120.354 404.369 119.554 404 119 C 403.587 118.380 402.706 118.235 402 118 C 401.684 117.895 401 118 401 118 "/>
    <path id="ID0.46799610229209065" fill="url(#grad_4)" stroke="none" d="M 409 26 C 424.726 26 438.976 32.387 449.294 42.706 C 459.613 53.024 466 67.274 466 83 C 466 98.726 459.613 112.976 449.294 123.294 C 438.976 133.613 424.726 140 409 140 C 393.274 140 379.024 133.613 368.706 123.294 C 358.387 112.976 352 98.726 352 83 C 352 67.274 358.387 53.024 368.706 42.706 C 379.024 32.387 393.274 26 409 26 Z " transform="matrix(1, 0, 0, 1, -5, -37)"/>
    <path id="ID0.6130037335678935" fill="none" stroke="#1DB8FF" stroke-width="2" stroke-linecap="round" d="M 335 37 C 335 37 332.978 37.609 332 38 C 331.309 38.277 330.666 38.667 330 39 C 329.334 39.333 328.527 39.473 328 40 C 327.473 40.527 327.638 41.617 327 42 C 325.823 42.706 324.303 42.566 323 43 C 322.294 43.235 321.722 43.819 321 44 C 320.354 44.162 319.646 43.838 319 44 C 318.278 44.181 317.722 44.819 317 45 C 316.354 45.162 315.554 44.631 315 45 C 314.380 45.413 314.527 46.473 314 47 C 313.765 47.235 313 47 313 47 "/>
    <path id="ID0.2332339002750814" fill="none" stroke="#1DB8FF" stroke-width="2" stroke-linecap="round" d="M 346 83 C 346 83 344.567 86.299 344 88 C 343.566 89.303 343.434 90.697 343 92 C 342.765 92.706 342.181 93.278 342 94 C 341.509 95.965 341.711 98.103 341 100 C 340.669 100.882 339.485 101.192 339 102 C 338.458 102.903 338.391 104.022 338 105 C 337.723 105.691 337.162 106.273 337 107 C 336.489 109.299 336.511 111.701 336 114 C 335.838 114.727 335 116 335 116 "/>
    <path id="ID0.47821283200755715" fill="none" stroke="#23C8FF" stroke-width="2" stroke-linecap="round" d="M 387 123 C 387 123 386.188 126.312 386 128 C 385.853 129.324 385.835 130.678 386 132 C 386.170 133.362 386.863 134.634 387 136 C 387.199 137.988 387 142 387 142 "/>
    <path id="ID0.925104365684092" fill="none" stroke="#23C8FF" stroke-width="2" stroke-linecap="round" d="M 425 117 C 425 117 426.507 120.276 427 122 C 427.183 122.640 427 123.334 427 124 C 427 125.998 427 130 427 130 "/>
    <path id="ID0.6751342145726085" fill="none" stroke="#23C8FF" stroke-width="2" stroke-linecap="round" d="M 452 88 C 452 88 455.618 88.013 457 89 C 458.212 89.866 458.070 91.837 459 93 C 459.465 93.581 461 94 461 94 "/>
    <path id="ID0.4474248541519046" fill="none" stroke="#23C8FF" stroke-width="2" stroke-linecap="round" d="M 468 39 C 468 39 468.955 34.829 470 33 C 470.369 32.353 471.473 32.527 472 32 C 472.527 31.473 472.819 30.722 473 30 C 473.162 29.354 473 28 473 28 "/>
    <path id="ID0.5075809620320797" fill="none" stroke="#23C8FF" stroke-width="2" stroke-linecap="round" d="M 379 40 C 379 40 377.030 41.382 376 42 C 375.362 42.383 374.596 42.553 374 43 C 373.247 43.565 372.565 44.247 372 45 C 371.553 45.596 371.527 46.473 371 47 C 370.473 47.527 369.527 47.473 369 48 C 368.473 48.527 368.333 49.334 368 50 C 367.667 50.666 367.596 51.553 367 52 C 366.158 52.632 364.893 52.442 364 53 C 362.192 54.130 360.665 55.668 359 57 C 358.584 57.333 359 57 359 57 "/>
    <path id="ID0.22096660500392318" fill="none" stroke="#23C8FF" stroke-width="2" stroke-linecap="round" d="M 386 52 C 386 52 388.032 54.645 389 56 C 389.698 56.977 390.302 58.023 391 59 C 391.968 60.355 393.076 61.615 394 63 C 395.077 64.616 395.923 66.384 397 68 C 397.924 69.385 399.045 70.636 400 72 C 401.377 73.967 402.668 76.002 404 78 C 404.666 78.999 405.527 79.896 406 81 C 406.541 82.262 406.319 83.808 407 85 C 407.701 86.227 409.001 87.001 410 88 C 410.666 88.666 411.533 89.182 412 90 C 412.890 91.557 414 95 414 95 "/>
    <path id="ID0.76963278837502" fill="none" stroke="#23C8FF" stroke-width="2" stroke-linecap="round" d="M 398 38 C 398 38 393.347 34.643 391 33 C 390.016 32.311 388.849 31.849 388 31 C 387.473 30.473 387.596 29.447 387 29 C 386.158 28.368 384.822 28.658 384 28 C 383.062 27.250 382.849 25.849 382 25 C 381.473 24.473 380.638 24.383 380 24 C 378.970 23.382 377.849 22.849 377 22 C 376.473 21.473 376.620 20.413 376 20 C 375.446 19.631 374.646 20.162 374 20 C 373.278 19.819 372.722 19.181 372 19 C 371.354 18.838 370.666 19 370 19 C 369.334 19 368.646 19.162 368 19 C 367.278 18.819 366.691 18.277 366 18 C 365.022 17.609 364.033 17.207 363 17 C 362.347 16.869 361.666 17 361 17 C 360.001 17 358.999 17 358 17 C 357.334 17 356.646 17.162 356 17 C 355.278 16.819 354.722 16.181 354 16 C 353.354 15.838 352.666 16 352 16 C 351.334 16 350.666 16 350 16 C 349.334 16 348.666 16 348 16 C 347.334 16 346.666 16 346 16 C 345.334 16 344.666 16 344 16 C 343.334 16 342.666 16 342 16 C 341.334 16 340.666 16 340 16 C 339.834 16 340 16 340 16 "/>
    <path id="ID0.05446114344522357" fill="none" stroke="#23C8FF" stroke-width="2" stroke-linecap="round" d="M 309 39 C 309 39 304.199 41.460 302 43 C 300.843 43.810 300.176 45.216 299 46 C 298.124 46.584 296.942 46.529 296 47 C 294.926 47.537 293.999 48.334 293 49 C 292.001 49.666 290.999 50.334 290 51 C 289.001 51.666 287.849 52.151 287 53 C 286.473 53.527 286.527 54.473 286 55 C 285.473 55.527 284.333 55.334 284 56 C 283.553 56.894 284.196 58.020 284 59 C 283.854 59.730 283 61 283 61 "/>
    <path id="ID0.2778165000490844" fill="none" stroke="#23C8FF" stroke-width="2" stroke-linecap="round" d="M 318 126 C 316.823 135.658 317.574 136.027 317 141 C 316.573 144.699 315 152 315 152 "/>
  </g>
</svg>