<svg version="1.1" width="187" height="96" viewBox="-1 -1 187 96" xmlns="http://www.w3.org/2000/svg" xmlns:xlink="http://www.w3.org/1999/xlink">
  <!-- Exported by Scratch - http://scratch.mit.edu/ -->
  <g id="ID0.8698517545126379" transform="matrix(1, 0, 0, 1, -140, -144)">
    <path id="ID0.42386655788868666" fill="#FFFFFF" stroke="#FFFFFF" stroke-width="15" stroke-linecap="round" d="M 233 317 C 230.606 315.589 230.382 306.056 230.500 300.500 C 230.717 290.279 233.114 280.185 234 270 C 234.447 264.855 234.388 259.663 234.500 254.500 C 234.554 252.003 234.500 247 234.500 247 C 230.500 246 241.450 244.650 247 244.500 C 252.150 244.300 257.300 244.800 262.500 245 C 267.650 245.150 272.800 245.650 278 245.500 C 283.500 245.300 288.950 244.250 294.500 244 C 310.800 243.250 327.150 242.950 343.500 242.500 C 347.550 242.350 344 242.500 344 242.500 C 343 241.500 343.100 252.850 342.500 258.500 C 341.900 263.550 339.900 268.400 339.500 273.500 C 338.600 283.750 338.500 294.150 338.500 304.500 C 338.500 307.650 339.500 314 339.500 314 C 339.500 314 327.800 314.800 322 315 C 316.150 315.150 310.300 314.750 304.500 315 C 294.150 315.400 283.800 316.550 273.500 317 C 268.500 317.200 263.461 317 258.500 317 C 250.002 317 236.658 319.156 233 317 Z " transform="matrix(1, 0, 0, 1, -31.5, -89)"/>
    <path id="ID0.8784878868609667" fill="none" stroke="#666666" stroke-width="8" stroke-linecap="round" d="M 317.650 267 L 343.500 317 " transform="matrix(0.9345335364341736, 0, 0, 0.9345335364341736, -8.8, -68)"/>
    <path id="ID0.9376575318165123" fill="none" stroke="#666666" stroke-width="8" stroke-linecap="round" d="M 256 270 L 226.500 324 " transform="matrix(1, 0, 0, 1, -31.5, -89)"/>
    <path id="ID0.8363002091646194" fill="none" stroke="#666666" stroke-width="8" stroke-linecap="round" d="M 227 239 L 287.500 298.500 L 352 239.500 " transform="matrix(1, 0, 0, 1, -31.5, -89)"/>
    <path id="ID0.28953033639118075" fill="none" stroke="#000000" stroke-width="3" stroke-linecap="round" d="M 205 309 L 180 310.500 " transform="matrix(1, 0, 0, 1, -31.5, -89)"/>
    <path id="ID0.9853255585767329" fill="none" stroke="#000000" stroke-width="3" stroke-linecap="round" d="M 204.500 286 L 173 287 " transform="matrix(1, 0, 0, 1, -31.5, -89)"/>
    <path id="ID0.47806099709123373" fill="none" stroke="#000000" stroke-width="3" stroke-linecap="round" d="M 205.500 262.500 L 173 265.500 " transform="matrix(1, 0, 0, 1, -31.5, -89)"/>
  </g>
</svg>