<svg version="1.1" width="86" height="93" viewBox="-1 0 86 93" xmlns="http://www.w3.org/2000/svg" xmlns:xlink="http://www.w3.org/1999/xlink">
  <!-- Exported by Scratch - http://scratch.mit.edu/ -->
  <g id="ID0.11269457638263702" transform="matrix(1, 0, 0, 1, -219, -147.5)">
    <path id="ID0.5339609617367387" fill="#0033CC" stroke="none" d="M 228 208.250 L 242.750 208.250 L 242.750 243.250 L 228 243.250 L 228 208.250 Z " transform="matrix(1, 0, 0, 1, 8.75, -3)"/>
    <g id="ID0.38046515733003616">
      <g id="ID0.3475507157854736">
        <path id="ID0.5076905828900635" fill="#FFFFFF" stroke="none" d="M 279.750 196.500 L 303.250 196.500 L 303.250 220 L 279.750 220 L 279.750 196.500 Z " transform="matrix(0.9510340690612793, 0.3090860843658447, -0.19728897511959076, 0.6070430278778076, 43.3, -14.25)"/>
        <path id="ID0.304235580842942" fill="#FFFFFF" stroke="none" d="M 289.750 179 L 306 179 L 306 195.250 L 289.750 195.250 L 289.750 179 Z " transform="matrix(1, 0, 0, 1, -27.75, 2.25)"/>
        <path id="ID0.07663642568513751" fill="#FFFFCC" stroke="none" d="M 259.750 182.750 L 300.500 182.750 L 300.500 197.250 L 259.750 197.250 L 259.750 182.750 Z " transform="matrix(0.6061894297599792, -0.40684637427330017, 0.5572769641876221, 0.8303266763687134, -13.4, 137.35)"/>
        <path id="ID0.5555851282551885" fill="#FFFFCC" stroke="none" stroke-linecap="round" d="M 260.750 211.500 L 279.750 211.500 L 279.750 221 L 260.750 221 L 260.750 211.500 Z " transform="matrix(0.6283370852470398, 0.7779411673545837, -0.7779411673545837, 0.6283370852470398, 267.85, -141.35)"/>
        <path id="ID0.8420171798206866" fill="#FFFFCC" stroke="none" d="M 238 225 L 266.250 225 L 266.250 234 L 238 234 L 238 225 Z " transform="matrix(0.8808243870735168, -0.4734431207180023, 0.4734431207180023, 0.8808243870735168, -62.6, 110.95)"/>
        <g id="ID0.83181257173419">
          <path id="ID0.04229475324973464" fill="#0033CC" stroke="none" stroke-linecap="round" d="M 219.750 170.750 L 221.750 169 L 267.750 170.750 L 268.250 170.750 L 270.250 208 L 268.250 209 L 221.250 210.500 L 219.750 209 L 219.750 170.750 Z "/>
          <path id="ID0.021279372740536928" fill="none" stroke="#FF0000" stroke-width="9" stroke-linecap="round" d="M 207.500 179.500 L 180.750 181 L 175 158.750 " transform="matrix(0.03480476886034012, 0.9993941187858582, 0.9993941187858582, -0.03480476886034012, 62.15, -15.75)"/>
        </g>
      </g>
      <path id="ID0.9685403690673411" fill="#0033CC" stroke="none" stroke-linecap="round" d="M 273.625 200 C 279.798 200 285.392 200.644 289.442 201.685 C 293.493 202.726 295.810 203.868 296 205.750 C 296.160 207.375 292.367 208.329 290.250 208.500 C 285.543 209.269 280.710 208.599 276 208.500 C 272.502 208.454 268.906 208.942 265.500 208.500 C 260.715 207.864 253.877 207.907 251.250 205.750 C 249.880 204.622 253.757 202.726 257.808 201.685 C 261.858 200.644 267.452 200 273.625 200 Z " transform="matrix(1, 0, 0, 1, 8.25, 1)"/>
    </g>
  </g>
</svg>