<svg version="1.1" width="182" height="96" viewBox="3 -1 182 96" xmlns="http://www.w3.org/2000/svg" xmlns:xlink="http://www.w3.org/1999/xlink">
  <defs>
    <linearGradient id="grad_1" y2="1">
      <stop offset="0" stop-color="#000000" stop-opacity="1"/>
      <stop offset="1" stop-color="#000000" stop-opacity="0"/>
    </linearGradient>
    <linearGradient id="grad_2" y2="1">
      <stop offset="0" stop-color="#000000" stop-opacity="1"/>
      <stop offset="1" stop-color="#000000" stop-opacity="0"/>
    </linearGradient>
  </defs>
  <!-- Exported by Scratch - http://scratch.mit.edu/ -->
  <path id="ID0.49139608163386583" fill="none" stroke="url(#grad_1)" stroke-width="2.5" stroke-linecap="round" d="M 232.167 202.833 L 231.900 215.650 " transform="matrix(1.30140221118927, 0, 0, 1.30140221118927, -270.75, -193.15)"/>
  <path id="ID0.23467008350417018" fill="none" stroke="url(#grad_2)" stroke-width="2.5" stroke-linecap="round" d="M 251.167 202.500 L 250.700 214.500 " transform="matrix(1.30140221118927, 0, 0, 1.30140221118927, -270.75, -193.15)"/>
  <path id="ID0.421574464533478" fill="#cd8f00" stroke="none" stroke-width="0" stroke-linecap="butt" d="M 267.500 178 C 267.500 194.016 255.188 207 240 207 C 224.812 207 212.500 194.016 212.500 178 C 212.500 161.984 224.812 149 240 149 C 255.188 149 267.500 161.984 267.500 178 Z " transform="matrix(1.30140221118927, 0, 0, 1.30140221118927, -270.75, -193.15)"/>
  <path id="ID0.6969573837704957" fill="#000000" stroke="none" stroke-width="0.5" stroke-linecap="butt" d="M 250.953 165.500 C 250.953 164.119 252.072 163 253.453 163 C 254.834 163 255.953 164.119 255.953 165.500 C 255.953 166.881 254.834 168 253.453 168 C 252.072 168 250.953 166.881 250.953 165.500 Z " transform="matrix(1.30140221118927, 0, 0, 1.30140221118927, -270.75, -193.15)"/>
  <path id="ID0.5627772947773337" fill="#000000" stroke="none" stroke-width="0.5" stroke-linecap="butt" d="M 256.953 179.500 C 256.953 178.119 258.072 177 259.453 177 C 260.834 177 261.953 178.119 261.953 179.500 C 261.953 180.881 260.834 182 259.453 182 C 258.072 182 256.953 180.881 256.953 179.500 Z " transform="matrix(1.30140221118927, 0, 0, 1.30140221118927, -270.75, -193.15)"/>
  <path id="ID0.7080274573527277" fill="#000000" stroke="none" stroke-width="0.5" stroke-linecap="butt" d="M 230.953 175.500 C 230.953 174.119 232.072 173 233.453 173 C 234.834 173 235.953 174.119 235.953 175.500 C 235.953 176.881 234.834 178 233.453 178 C 232.072 178 230.953 176.881 230.953 175.500 Z " transform="matrix(1.30140221118927, 0, 0, 1.30140221118927, -270.75, -193.15)"/>
  <path id="ID0.5464623118750751" fill="#cd8f00" stroke="none" stroke-width="0" stroke-linecap="butt" d="M 260.250 163.145 C 260.250 166.931 257.340 170 253.750 170 C 250.160 170 247.250 166.931 247.250 163.145 C 247.250 159.360 250.160 156.291 253.750 156.291 C 257.340 156.291 260.250 159.360 260.250 163.145 Z " transform="matrix(1.30140221118927, 0, 0, 1.30140221118927, -270.75, -193.15)"/>
  <path id="ID0.6493992758914828" fill="#cd8f00" stroke="none" stroke-width="0" stroke-linecap="butt" d="M 266.448 180 C 266.448 184.280 263.158 187.750 259.099 187.750 C 255.040 187.750 251.750 184.280 251.750 180 C 251.750 175.720 255.040 172.250 259.099 172.250 C 263.158 172.250 266.448 175.720 266.448 180 Z " transform="matrix(1.30140221118927, 0, 0, 1.30140221118927, -269.75, -192.65)"/>
  <path id="ID0.17757336609065533" fill="#000000" stroke="none" stroke-width="0.5" stroke-linecap="butt" d="M 231.883 153.463 C 231.883 152.082 233.002 150.963 234.383 150.963 C 235.763 150.963 236.883 152.082 236.883 153.463 C 236.883 154.844 235.763 155.963 234.383 155.963 C 233.002 155.963 231.883 154.844 231.883 153.463 Z " transform="matrix(1.30140221118927, 0, 0, 1.30140221118927, -270.75, -193.15)"/>
  <path id="ID0.9235629197210073" fill="#000000" stroke="none" stroke-width="0.5" stroke-linecap="butt" d="M 238.290 156.944 C 238.290 155.564 239.409 154.444 240.790 154.444 C 242.171 154.444 243.290 155.564 243.290 156.944 C 243.290 158.325 242.171 159.444 240.790 159.444 C 239.409 159.444 238.290 158.325 238.290 156.944 Z " transform="matrix(1.30140221118927, 0, 0, 1.30140221118927, -270.75, -193.15)"/>
  <path id="ID0.7435574885457754" fill="#000000" stroke="none" stroke-width="0.5" stroke-linecap="butt" d="M 227.855 160.731 C 227.855 159.351 228.974 158.231 230.355 158.231 C 231.735 158.231 232.855 159.351 232.855 160.731 C 232.855 162.112 231.735 163.231 230.355 163.231 C 228.974 163.231 227.855 162.112 227.855 160.731 Z " transform="matrix(1.30140221118927, 0, 0, 1.30140221118927, -270.75, -193.15)"/>
  <path id="ID0.06367308693006635" fill="#000000" stroke="none" stroke-width="0.5" stroke-linecap="butt" d="M 244.286 173.500 C 244.286 172.119 245.406 171 246.786 171 C 248.167 171 249.286 172.119 249.286 173.500 C 249.286 174.881 248.167 176 246.786 176 C 245.406 176 244.286 174.881 244.286 173.500 Z " transform="matrix(1.30140221118927, 0, 0, 1.30140221118927, -270.75, -193.15)"/>
  <path id="ID0.6516056191176176" fill="none" stroke="#000000" stroke-width="2" stroke-linecap="round" d="M 218 183 L 221.350 186.350 L 231.750 186.250 " transform="matrix(1.30140221118927, 0, 0, 1.30140221118927, -259.6, -190.05)"/>
  <g id="ID0.16960606910288334" transform="matrix(0.11175818741321564, -0.0414276048541069, 0.0414276048541069, 0.11175818741321564, 29.05, 64.05)">
    <path id="ID0.42386655788868666" fill="#FFFFFF" stroke="#FFFFFF" stroke-width="15" stroke-linecap="round" d="M 233 317 C 230.606 315.589 230.382 306.056 230.500 300.500 C 230.717 290.279 233.114 280.185 234 270 C 234.447 264.855 234.388 259.663 234.500 254.500 C 234.554 252.003 234.500 247 234.500 247 C 230.500 246 241.450 244.650 247 244.500 C 252.150 244.300 257.300 244.800 262.500 245 C 267.650 245.150 272.800 245.650 278 245.500 C 283.500 245.300 288.950 244.250 294.500 244 C 310.800 243.250 327.150 242.950 343.500 242.500 C 347.550 242.350 344 242.500 344 242.500 C 343 241.500 343.100 252.850 342.500 258.500 C 341.900 263.550 339.900 268.400 339.500 273.500 C 338.600 283.750 338.500 294.150 338.500 304.500 C 338.500 307.650 339.500 314 339.500 314 C 339.500 314 327.800 314.800 322 315 C 316.150 315.150 310.300 314.750 304.500 315 C 294.150 315.400 283.800 316.550 273.500 317 C 268.500 317.200 263.461 317 258.500 317 C 250.002 317 236.658 319.156 233 317 Z " transform="matrix(1, 0, 0, 1, -171.5, -233)"/>
    <path id="ID0.8784878868609667" fill="none" stroke="#666666" stroke-width="8" stroke-linecap="round" d="M 317.650 267 L 343.500 317 " transform="matrix(0.9345335364341736, 0, 0, 0.9345335364341736, -148.8, -212)"/>
    <path id="ID0.9376575318165123" fill="none" stroke="#666666" stroke-width="8" stroke-linecap="round" d="M 256 270 L 226.500 324 " transform="matrix(1, 0, 0, 1, -171.5, -233)"/>
    <path id="ID0.8363002091646194" fill="none" stroke="#666666" stroke-width="8" stroke-linecap="round" d="M 227 239 L 287.500 298.500 L 352 239.500 " transform="matrix(1, 0, 0, 1, -171.5, -233)"/>
  </g>
  <path id="ID0.3928354186937213" fill="none" stroke="#000000" stroke-width="2.5" stroke-linecap="round" d="M 210.950 187.300 L 195.650 188.500 L 182.700 165.150 " transform="matrix(1.2919265031814575, 0.15676096081733704, -0.15676096081733704, 1.2919265031814575, -204.15, -207)"/>
  <path id="ID0.9777051573619246" fill="none" stroke="#000000" stroke-width="2.5" stroke-linecap="round" d="M 268.450 169.100 L 285 157.650 L 283.700 132 " transform="matrix(0.6687032580375671, 1.1164603233337402, 1.1164603233337402, -0.6687032580375671, -293.85, -165.15)"/>
</svg>