<svg version="1.1" width="151" height="166" viewBox="-1 -1 151 166" xmlns="http://www.w3.org/2000/svg" xmlns:xlink="http://www.w3.org/1999/xlink">
  <!-- Exported by Scratch - http://scratch.mit.edu/ -->
  <g id="ID0.46390747325494885" transform="matrix(-1, 0, 0, 1, 508, -151)">
    <path id="ID0.4207402649335563" fill="#FFFFFF" stroke="none" d="M 347.500 244 C 358.950 244 369.325 247.474 376.837 253.086 C 384.350 258.697 389 266.447 389 275 C 389 283.553 384.350 291.303 376.837 296.914 C 369.325 302.526 358.950 306 347.500 306 C 336.050 306 325.675 302.526 318.163 296.914 C 310.650 291.303 306 283.553 306 275 C 306 266.447 310.650 258.697 318.163 253.086 C 325.675 247.474 336.050 244 347.500 244 Z " transform="matrix(1, 0, 0, 1, 119, 10)"/>
    <path id="ID0.596929766703397" fill="none" stroke="#FFFFFF" stroke-width="13" stroke-linecap="round" d="M 369 253 L 370 159 L 446 165 L 439 272 "/>
    <path id="ID0.9268153626471758" fill="#FFFFFF" stroke="none" d="M 448 261 C 456.829 261 464.829 263.689 470.621 268.034 C 476.414 272.379 480 278.379 480 285 C 480 291.621 476.414 297.621 470.621 301.966 C 464.829 306.311 456.829 309 448 309 C 439.171 309 431.171 306.311 425.379 301.966 C 419.586 297.621 416 291.621 416 285 C 416 278.379 419.586 272.379 425.379 268.034 C 431.171 263.689 439.171 261 448 261 Z " transform="matrix(1, 0, 0, 1, -57, -15)"/>
  </g>
</svg>