<svg version="1.1" xmlns="http://www.w3.org/2000/svg" xmlns:xlink="http://www.w3.org/1999/xlink" width="55" height="58" viewBox="0,0,55,58"><g transform="translate(-212.5,-151)"><g data-paper-data="{&quot;isPaintingLayer&quot;:true}" fill-rule="nonzero" stroke="none" stroke-linecap="butt" stroke-linejoin="miter" stroke-miterlimit="10" stroke-dasharray="" stroke-dashoffset="0" style="mix-blend-mode: normal"><path d="M267.5,180c0,16.01626 -12.31217,29 -27.5,29c-15.18783,0 -27.5,-12.98374 -27.5,-29c0,-16.01626 12.31217,-29 27.5,-29c15.18783,0 27.5,12.98374 27.5,29z" fill="#cd8f00" stroke-width="0"/><path d="M250.95313,167.5c0,-1.38071 1.11929,-2.5 2.5,-2.5c1.38071,0 2.5,1.11929 2.5,2.5c0,1.38071 -1.11929,2.5 -2.5,2.5c-1.38071,0 -2.5,-1.11929 -2.5,-2.5z" fill="#000000" stroke-width="0.5"/><path d="M256.95313,181.5c0,-1.38071 1.11929,-2.5 2.5,-2.5c1.38071,0 2.5,1.11929 2.5,2.5c0,1.38071 -1.11929,2.5 -2.5,2.5c-1.38071,0 -2.5,-1.11929 -2.5,-2.5z" fill="#000000" stroke-width="0.5"/><path d="M239.95313,175.5c0,-1.38071 1.11929,-2.5 2.5,-2.5c1.38071,0 2.5,1.11929 2.5,2.5c0,1.38071 -1.11929,2.5 -2.5,2.5c-1.38071,0 -2.5,-1.11929 -2.5,-2.5z" fill="#000000" stroke-width="0.5"/><path d="M260.25,165.14545c0,3.78566 -2.91015,6.85455 -6.5,6.85455c-3.58985,0 -6.5,-3.06888 -6.5,-6.85455c0,-3.78566 2.91015,-6.85455 6.5,-6.85455c3.58985,0 6.5,3.06888 6.5,6.85455z" fill="#cd8f00" stroke-width="0"/><path d="M266.44828,182c0,4.28021 -3.29032,7.75 -7.34914,7.75c-4.05882,0 -7.34914,-3.46979 -7.34914,-7.75c0,-4.28021 3.29032,-7.75 7.34914,-7.75c4.05882,0 7.34914,3.46979 7.34914,7.75z" fill="#cd8f00" stroke-width="0"/><path d="M250.5,172.57727c0,4.51367 -3.46979,8.17273 -7.75,8.17273c-4.28021,0 -7.75,-3.65905 -7.75,-8.17273c0,-4.51367 3.46979,-8.17273 7.75,-8.17273c4.28021,0 7.75,3.65905 7.75,8.17273z" fill="#cd8f00" stroke-width="0"/><path d="M232.54919,155.46296c0,-1.38071 1.11929,-2.5 2.5,-2.5c1.38071,0 2.5,1.11929 2.5,2.5c0,1.38071 -1.11929,2.5 -2.5,2.5c-1.38071,0 -2.5,-1.11929 -2.5,-2.5z" fill="#000000" stroke-width="0.5"/><path d="M241.28994,163.61111c0,-1.38071 1.11929,-2.5 2.5,-2.5c1.38071,0 2.5,1.11929 2.5,2.5c0,1.38071 -1.11929,2.5 -2.5,2.5c-1.38071,0 -2.5,-1.11929 -2.5,-2.5z" fill="#000000" stroke-width="0.5"/><path d="M227.85475,165.73148c0,-1.38071 1.11929,-2.5 2.5,-2.5c1.38071,0 2.5,1.11929 2.5,2.5c0,1.38071 -1.11929,2.5 -2.5,2.5c-1.38071,0 -2.5,-1.11929 -2.5,-2.5z" fill="#000000" stroke-width="0.5"/></g></g></svg>