<svg version="1.1" width="128" height="144" viewBox="-1 -1 128 144" xmlns="http://www.w3.org/2000/svg" xmlns:xlink="http://www.w3.org/1999/xlink">
  <!-- Exported by Scratch - http://scratch.mit.edu/ -->
  <g id="ID0.94098502676934" transform="matrix(1, 0, 0, 1, -169, -107)">
    <path id="ID0.3685486284084618" fill="none" stroke="#000000" stroke-width="9" stroke-linecap="round" d="M 240 180 L 291 245 "/>
    <path id="ID0.5300194402225316" fill="none" stroke="#000000" stroke-width="9" d="M 213 112 C 223.760 112 233.510 116.370 240.570 123.430 C 247.630 130.490 252 140.240 252 151 C 252 161.760 247.630 171.510 240.570 178.570 C 233.510 185.630 223.760 190 213 190 C 202.240 190 192.490 185.630 185.430 178.570 C 178.370 171.510 174 161.760 174 151 C 174 140.240 178.370 130.490 185.430 123.430 C 192.490 116.370 202.240 112 213 112 Z "/>
  </g>
</svg>