<svg version="1.1" width="103" height="113" viewBox="5 1 103 113" xmlns="http://www.w3.org/2000/svg" xmlns:xlink="http://www.w3.org/1999/xlink">
  <!-- Exported by Scratch - http://scratch.mit.edu/ -->
  <path id="ID0.9539269581437111" fill="#00FF55" stroke="none" stroke-linecap="round" d="M 280.750 237.750 C 295.125 240.845 310.052 241.056 324.750 241.500 C 330.759 241.681 336.897 240.309 343 239.350 C 344.433 239.196 346.186 236.969 346.750 238.250 C 348.052 241.318 347.594 245.318 346.450 248.500 C 344.935 252.124 339.913 253.945 339.150 257.700 C 338.119 262.794 341.388 268.019 341 273.200 C 340.419 278.314 341.445 286.032 336.300 287.950 C 323.288 292.542 308.475 289.998 294.750 288.300 C 289.274 287.623 284.948 282.820 280 280.750 C 278.763 280.232 278.439 280.726 277.750 281.250 C 275.003 283.337 270.497 284.845 269.600 288.350 C 268.099 295.479 271.183 302.937 271.200 310.300 C 271.224 320.477 271.287 330.651 270.250 340.850 C 269.966 343.257 268.505 342.847 268.050 340.350 C 266.229 330.364 265.357 320.143 264.700 310.050 C 263.507 294.122 261.500 278.122 262.500 262.250 C 263.191 251.291 265.970 240.435 269.500 230 C 270.344 227.430 272.312 229.243 273.348 229.997 C 276.269 232.126 277.156 236.976 280.750 237.750 Z " transform="matrix(0.9729699492454529, 0.23093178868293762, -0.23093178868293762, 0.9729699492454529, -175.5, -282.25)"/>
</svg>