<svg version="1.1" width="100" height="100" viewBox="5 13 100 100" xmlns="http://www.w3.org/2000/svg" xmlns:xlink="http://www.w3.org/1999/xlink">
  <!-- Exported by Scratch - http://scratch.mit.edu/ -->
  <path id="ID0.035036444664001465" fill="none" stroke="#000000" stroke-width="2.5" stroke-linecap="round" d="M 214.833 184.833 L 212.167 218.500 " transform="matrix(1, 0, 0, 1, -204.9, -134.25)"/>
  <path id="ID0.5366705930791795" fill="none" stroke="#000000" stroke-width="2.5" stroke-linecap="round" d="M 260.650 182.250 L 281.400 171.500 L 257.150 154.250 " transform="matrix(1, 0, 0, 1, -204.9, -134.25)"/>
  <path id="ID0.2282258765771985" fill="none" stroke="#000000" stroke-width="2.5" stroke-linecap="round" d="M 232.167 202.833 L 230.833 239.500 " transform="matrix(1, 0, 0, 1, -204.9, -134.25)"/>
  <path id="ID0.747193300165236" fill="none" stroke="#000000" stroke-width="2.5" stroke-linecap="round" d="M 251.167 202.500 L 251.167 234.500 " transform="matrix(1, 0, 0, 1, -204.9, -134.25)"/>
  <path id="ID0.24366871314123273" fill="#cd8f00" stroke="none" stroke-width="0" stroke-linecap="butt" d="M 267.500 178 C 267.500 194.016 255.188 207 240 207 C 224.812 207 212.500 194.016 212.500 178 C 212.500 161.984 224.812 149 240 149 C 255.188 149 267.500 161.984 267.500 178 Z " transform="matrix(1, 0, 0, 1, -205.15, -134.25)"/>
  <path id="ID0.04243278317153454" fill="#000000" stroke="none" stroke-width="0.5" stroke-linecap="butt" d="M 250.953 165.500 C 250.953 164.119 252.072 163 253.453 163 C 254.834 163 255.953 164.119 255.953 165.500 C 255.953 166.881 254.834 168 253.453 168 C 252.072 168 250.953 166.881 250.953 165.500 Z " transform="matrix(1, 0, 0, 1, -204.9, -134.25)"/>
  <path id="ID0.9270544787868857" fill="#000000" stroke="none" stroke-width="0.5" stroke-linecap="butt" d="M 256.953 179.500 C 256.953 178.119 258.072 177 259.453 177 C 260.834 177 261.953 178.119 261.953 179.500 C 261.953 180.881 260.834 182 259.453 182 C 258.072 182 256.953 180.881 256.953 179.500 Z " transform="matrix(1, 0, 0, 1, -204.9, -134.25)"/>
  <path id="ID0.4626881298609078" fill="#000000" stroke="none" stroke-width="0.5" stroke-linecap="butt" d="M 230.953 175.500 C 230.953 174.119 232.072 173 233.453 173 C 234.834 173 235.953 174.119 235.953 175.500 C 235.953 176.881 234.834 178 233.453 178 C 232.072 178 230.953 176.881 230.953 175.500 Z " transform="matrix(1, 0, 0, 1, -201.9, -127.5)"/>
  <path id="ID0.3180009941570461" fill="#cd8f00" stroke="none" stroke-width="0" stroke-linecap="butt" d="M 260.250 163.145 C 260.250 166.931 257.340 170 253.750 170 C 250.160 170 247.250 166.931 247.250 163.145 C 247.250 159.360 250.160 156.291 253.750 156.291 C 257.340 156.291 260.250 159.360 260.250 163.145 Z " transform="matrix(1, 0, 0, 1, -204.9, -134.25)"/>
  <path id="ID0.8762101894244552" fill="#cd8f00" stroke="none" stroke-width="0" stroke-linecap="butt" d="M 266.448 180 C 266.448 184.280 263.158 187.750 259.099 187.750 C 255.040 187.750 251.750 184.280 251.750 180 C 251.750 175.720 255.040 172.250 259.099 172.250 C 263.158 172.250 266.448 175.720 266.448 180 Z " transform="matrix(1, 0, 0, 1, -204.9, -134.25)"/>
  <path id="ID0.2420216822065413" fill="#000000" stroke="none" stroke-width="0.5" stroke-linecap="butt" d="M 231.883 153.463 C 231.883 152.082 233.002 150.963 234.383 150.963 C 235.763 150.963 236.883 152.082 236.883 153.463 C 236.883 154.844 235.763 155.963 234.383 155.963 C 233.002 155.963 231.883 154.844 231.883 153.463 Z " transform="matrix(1, 0, 0, 1, -204.9, -134.25)"/>
  <path id="ID0.353383157402277" fill="#000000" stroke="none" stroke-width="0.5" stroke-linecap="butt" d="M 238.290 156.944 C 238.290 155.564 239.409 154.444 240.790 154.444 C 242.171 154.444 243.290 155.564 243.290 156.944 C 243.290 158.325 242.171 159.444 240.790 159.444 C 239.409 159.444 238.290 158.325 238.290 156.944 Z " transform="matrix(1, 0, 0, 1, -204.9, -134.25)"/>
  <path id="ID0.5826170668005943" fill="#000000" stroke="none" stroke-width="0.5" stroke-linecap="butt" d="M 227.855 160.731 C 227.855 159.351 228.974 158.231 230.355 158.231 C 231.735 158.231 232.855 159.351 232.855 160.731 C 232.855 162.112 231.735 163.231 230.355 163.231 C 228.974 163.231 227.855 162.112 227.855 160.731 Z " transform="matrix(1, 0, 0, 1, -204.9, -134.25)"/>
  <path id="ID0.2417500731535256" fill="#000000" stroke="none" stroke-width="0.5" stroke-linecap="butt" d="M 244.286 173.500 C 244.286 172.119 245.406 171 246.786 171 C 248.167 171 249.286 172.119 249.286 173.500 C 249.286 174.881 248.167 176 246.786 176 C 245.406 176 244.286 174.881 244.286 173.500 Z " transform="matrix(1, 0, 0, 1, -203.15, -128.25)"/>
  <g id="ID0.463027719873935" transform="matrix(1, 0, 0, 1, -8.25, -6.5)">
    <path id="ID0.018648815341293812" fill="#990000" stroke="#000000" stroke-width="2" stroke-linecap="round" d="M 228.100 181.150 L 251.600 176.100 L 252.050 176.550 L 250 196 L 247.500 197.250 L 243 198.500 L 233 201.500 L 222 201.250 L 216.250 200.500 L 213.250 199.500 L 209 197.750 L 207.500 196.750 L 206.250 195.250 L 207 187.500 L 207.500 183.250 L 228.100 181.150 Z " transform="matrix(0.27144408226013184, 0, 0, 0.27144408226013184, -29.3, 15.7)"/>
    <path id="ID0.681087467353791" fill="#E76B91" stroke="none" stroke-linecap="round" d="M 225 193.250 C 226.586 193.250 228.024 193.600 229.065 194.166 C 230.106 194.732 230.566 195.472 230.750 196.375 C 231.045 197.791 232.027 200.337 230.750 201 C 224 200.007 221.720 200.934 219 199.750 C 218.012 199.251 218.938 197.422 219.250 196.375 C 219.512 195.493 219.894 194.732 220.935 194.166 C 221.976 193.600 223.414 193.250 225 193.250 Z " transform="matrix(0.27144408226013184, 0, 0, 0.27144408226013184, -29.3, 15.7)"/>
  </g>
  <g id="ID0.7120693852193654" transform="matrix(0.9525899291038513, 0.3042571544647217, -0.3042571544647217, 0.9525899291038513, 9.05, -15.75)">
    <path id="ID0.8860743856057525" fill="#FFFF00" stroke="#CCCC00" stroke-width="3" stroke-linecap="round" d="M 199.250 203.500 C 202.513 209.184 207.962 214.536 214.200 217 C 225.721 221.392 238.317 223.602 250.150 222.650 C 263.902 222.004 278.092 219.645 289.300 212.300 C 294.244 209.139 296.647 200.400 293.900 195.250 C 291.211 190.238 283.483 191.521 278.450 189.400 C 274.348 187.766 269.891 186.490 267.100 183 C 263.394 179.622 263.352 173.604 259.800 169.750 C 256.777 166.449 252.865 164.691 248 163.250 C 242.759 161.677 237.169 159.972 231.750 160.750 C 222.345 162.100 212.553 164.449 204.250 169.250 C 199.921 171.906 196.543 176.955 195.750 182 C 194.624 189.165 195.641 197.216 199.250 203.500 Z " transform="matrix(0.4972371459007263, -0.27850696444511414, 0.2912105321884155, 0.49252328276634216, -142.55, 4.75)"/>
    <path id="ID0.30652253003790975" fill="none" stroke="#CCCC00" stroke-width="1" stroke-linecap="round" d="M 242.750 264.500 L 248.500 278.900 " transform="matrix(1.3564960956573486, -0.6015413999557495, 0.5373508334159851, 1.2117441892623901, -460.95, -144.5)"/>
    <path id="ID0.8631140049546957" fill="none" stroke="#CCCC00" stroke-width="1" stroke-linecap="round" d="M 249 261 L 256.300 277.400 " transform="matrix(1.3564960956573486, -0.6015413999557495, 0.5373508334159851, 1.2117441892623901, -460.95, -144.5)"/>
    <path id="ID0.21986069111153483" fill="none" stroke="#CCCC00" stroke-width="1" stroke-linecap="round" d="M 258.250 259.500 L 262.950 276.550 " transform="matrix(1.3564960956573486, -0.6015413999557495, 0.5373508334159851, 1.2117441892623901, -461.05, -142.95)"/>
  </g>
  <path id="ID0.6109243091195822" fill="none" stroke="#000000" stroke-width="2" stroke-linecap="round" d="M 247.500 147.750 L 259.500 156.250 " transform="matrix(1, 0, 0, 1, -196, -128.25)"/>
</svg>