<svg version="1.1" width="57" height="60" viewBox="-1 -1 57 60" xmlns="http://www.w3.org/2000/svg" xmlns:xlink="http://www.w3.org/1999/xlink">
  <!-- Exported by Scratch - http://scratch.mit.edu/ -->
  <g id="ID0.018955946899950504" transform="matrix(1, 0, 0, 1, -203.2, -141.85)">
    <path id="ID0.9379542539827526" fill="#B2B2B2" stroke="none" stroke-width="0" stroke-linecap="butt" d="M 267.500 178 C 267.500 194.016 255.188 207 240 207 C 224.812 207 212.500 194.016 212.500 178 C 212.500 161.984 224.812 149 240 149 C 255.188 149 267.500 161.984 267.500 178 Z " transform="matrix(1, 0, 0, 1, -8.9, -6.25)"/>
    <path id="ID0.20519144320860505" fill="#000000" stroke="none" stroke-width="0.5" stroke-linecap="butt" d="M 250.953 165.500 C 250.953 164.119 252.072 163 253.453 163 C 254.834 163 255.953 164.119 255.953 165.500 C 255.953 166.881 254.834 168 253.453 168 C 252.072 168 250.953 166.881 250.953 165.500 Z " transform="matrix(1, 0, 0, 1, -8.9, -6.25)"/>
    <path id="ID0.43150508776307106" fill="#000000" stroke="none" stroke-width="0.5" stroke-linecap="butt" d="M 256.953 179.500 C 256.953 178.119 258.072 177 259.453 177 C 260.834 177 261.953 178.119 261.953 179.500 C 261.953 180.881 260.834 182 259.453 182 C 258.072 182 256.953 180.881 256.953 179.500 Z " transform="matrix(1, 0, 0, 1, -8.9, -6.25)"/>
    <path id="ID0.9705995484255254" fill="#B2B2B2" stroke="none" stroke-width="0" stroke-linecap="butt" d="M 260.250 163.145 C 260.250 166.931 257.340 170 253.750 170 C 250.160 170 247.250 166.931 247.250 163.145 C 247.250 159.360 250.160 156.291 253.750 156.291 C 257.340 156.291 260.250 159.360 260.250 163.145 Z " transform="matrix(1, 0, 0, 1, -8.9, -6.25)"/>
    <path id="ID0.2075601746328175" fill="#B2B2B2" stroke="#B2B2B2" stroke-width="2" stroke-linecap="butt" d="M 266.448 180 C 266.448 184.280 263.158 187.750 259.099 187.750 C 255.040 187.750 251.750 184.280 251.750 180 C 251.750 175.720 255.040 172.250 259.099 172.250 C 263.158 172.250 266.448 175.720 266.448 180 Z " transform="matrix(1, 0, 0, 1, -8.9, -6.25)"/>
    <path id="ID0.49057897878810763" fill="#000000" stroke="none" stroke-width="0.5" stroke-linecap="butt" d="M 231.883 153.463 C 231.883 152.082 233.002 150.963 234.383 150.963 C 235.763 150.963 236.883 152.082 236.883 153.463 C 236.883 154.844 235.763 155.963 234.383 155.963 C 233.002 155.963 231.883 154.844 231.883 153.463 Z " transform="matrix(1, 0, 0, 1, -8.9, -6.25)"/>
    <path id="ID0.4592564459890127" fill="#000000" stroke="none" stroke-width="0.5" stroke-linecap="butt" d="M 238.290 156.944 C 238.290 155.564 239.409 154.444 240.790 154.444 C 242.171 154.444 243.290 155.564 243.290 156.944 C 243.290 158.325 242.171 159.444 240.790 159.444 C 239.409 159.444 238.290 158.325 238.290 156.944 Z " transform="matrix(1, 0, 0, 1, -8.9, -6.25)"/>
    <path id="ID0.23243986442685127" fill="#000000" stroke="none" stroke-width="0.5" stroke-linecap="butt" d="M 227.855 160.731 C 227.855 159.351 228.974 158.231 230.355 158.231 C 231.735 158.231 232.855 159.351 232.855 160.731 C 232.855 162.112 231.735 163.231 230.355 163.231 C 228.974 163.231 227.855 162.112 227.855 160.731 Z " transform="matrix(1, 0, 0, 1, -8.9, -6.25)"/>
    <path id="ID0.9113547326996922" fill="none" stroke="#000000" stroke-width="2" stroke-linecap="round" d="M 222.250 164.500 L 230.750 176.250 "/>
    <path id="ID0.8937523700296879" fill="none" stroke="#000000" stroke-width="2" stroke-linecap="round" d="M 229.250 166.250 L 222.750 174.250 "/>
    <path id="ID0.13649349100887775" fill="none" stroke="#000000" stroke-width="2" stroke-linecap="round" d="M 233.750 163.500 L 241.500 172.250 "/>
    <path id="ID0.854501816444099" fill="none" stroke="#000000" stroke-width="2" stroke-linecap="round" d="M 240.500 162.500 L 234.750 171 "/>
  </g>
</svg>