<svg version="1.1" width="273" height="223" viewBox="-1 -1 273 223" xmlns="http://www.w3.org/2000/svg" xmlns:xlink="http://www.w3.org/1999/xlink">
  <!-- Exported by Scratch - http://scratch.mit.edu/ -->
  <g id="ID0.017340172547847033" transform="matrix(1, 0, 0, 1, -148.05, -136.5)">
    <g id="ID0.4928931877948344" transform="matrix(0.9202243685722351, 0.39139118790626526, -0.39139118790626526, 0.9202243685722351, 55.7, -70.4)">
      <g id="ID0.23393888911232352" transform="matrix(1, 0, 0, 1, 13.5, 4.5)">
        <path id="ID0.30964211327955127" fill="none" stroke="#000000" stroke-width="2.5" stroke-linecap="round" d="M 260.833 164.833 L 286.833 133.500 " transform="matrix(0.8686740398406982, 0.49538421630859375, -0.49538421630859375, 0.8686740398406982, 87.95, -91.25)"/>
        <g id="ID0.9727817857638001" transform="matrix(1, 0, 0, 1, -18, 0.5)">
          <path id="ID0.7283680606633425" fill="none" stroke="#000000" stroke-width="2.5" stroke-linecap="round" d="M 214.833 184.833 L 212.167 218.500 " transform="matrix(1, 0, 0, 1, -9.15, 2.5)"/>
          <g id="ID0.8517000409774482" transform="matrix(0.9728745818138123, 0.23133312165737152, -0.23133312165737152, 0.9728745818138123, 58.35, -4.5)">
            <path id="ID0.6700011673383415" fill="#cd8f00" stroke="none" stroke-width="0" stroke-linecap="butt" d="M 267.500 178 C 267.500 194.016 255.188 207 240 207 C 224.812 207 212.500 194.016 212.500 178 C 212.500 161.984 224.812 149 240 149 C 255.188 149 267.500 161.984 267.500 178 Z " transform="matrix(0.8243752121925354, -0.5660437345504761, 0.5660437345504761, 0.8243752121925354, -90.25, 130.75)"/>
            <path id="ID0.40611921437084675" fill="#000000" stroke="none" stroke-width="0.5" stroke-linecap="butt" d="M 250.953 165.500 C 250.953 164.119 252.072 163 253.453 163 C 254.834 163 255.953 164.119 255.953 165.500 C 255.953 166.881 254.834 168 253.453 168 C 252.072 168 250.953 166.881 250.953 165.500 Z " transform="matrix(0.8243752121925354, -0.5660437345504761, 0.5660437345504761, 0.8243752121925354, -90.25, 130.75)"/>
            <path id="ID0.15264039253816009" fill="#000000" stroke="none" stroke-width="0.5" stroke-linecap="butt" d="M 256.953 179.500 C 256.953 178.119 258.072 177 259.453 177 C 260.834 177 261.953 178.119 261.953 179.500 C 261.953 180.881 260.834 182 259.453 182 C 258.072 182 256.953 180.881 256.953 179.500 Z " transform="matrix(0.8243752121925354, -0.5660437345504761, 0.5660437345504761, 0.8243752121925354, -90.25, 130.75)"/>
            <path id="ID0.3758176388218999" fill="#000000" stroke="none" stroke-width="0.5" stroke-linecap="butt" d="M 230.953 175.500 C 230.953 174.119 232.072 173 233.453 173 C 234.834 173 235.953 174.119 235.953 175.500 C 235.953 176.881 234.834 178 233.453 178 C 232.072 178 230.953 176.881 230.953 175.500 Z " transform="matrix(0.8243752121925354, -0.5660437345504761, 0.5660437345504761, 0.8243752121925354, -84.15, 122.55)"/>
            <path id="ID0.19529257994145155" fill="#cd8f00" stroke="none" stroke-width="0" stroke-linecap="butt" d="M 260.250 163.145 C 260.250 166.931 257.340 170 253.750 170 C 250.160 170 247.250 166.931 247.250 163.145 C 247.250 159.360 250.160 156.291 253.750 156.291 C 257.340 156.291 260.250 159.360 260.250 163.145 Z " transform="matrix(0.8243752121925354, -0.5660437345504761, 0.5660437345504761, 0.8243752121925354, -90.25, 130.75)"/>
            <path id="ID0.5293280873447657" fill="#cd8f00" stroke="none" stroke-width="0" stroke-linecap="butt" d="M 266.448 180 C 266.448 184.280 263.158 187.750 259.099 187.750 C 255.040 187.750 251.750 184.280 251.750 180 C 251.750 175.720 255.040 172.250 259.099 172.250 C 263.158 172.250 266.448 175.720 266.448 180 Z " transform="matrix(0.8243752121925354, -0.5660437345504761, 0.5660437345504761, 0.8243752121925354, -90.25, 130.75)"/>
            <path id="ID0.4893970927223563" fill="#000000" stroke="none" stroke-width="0.5" stroke-linecap="butt" d="M 231.883 153.463 C 231.883 152.082 233.002 150.963 234.383 150.963 C 235.763 150.963 236.883 152.082 236.883 153.463 C 236.883 154.844 235.763 155.963 234.383 155.963 C 233.002 155.963 231.883 154.844 231.883 153.463 Z " transform="matrix(0.8243752121925354, -0.5660437345504761, 0.5660437345504761, 0.8243752121925354, -90.25, 130.75)"/>
            <path id="ID0.29244967829436064" fill="#000000" stroke="none" stroke-width="0.5" stroke-linecap="butt" d="M 238.290 156.944 C 238.290 155.564 239.409 154.444 240.790 154.444 C 242.171 154.444 243.290 155.564 243.290 156.944 C 243.290 158.325 242.171 159.444 240.790 159.444 C 239.409 159.444 238.290 158.325 238.290 156.944 Z " transform="matrix(0.8243752121925354, -0.5660437345504761, 0.5660437345504761, 0.8243752121925354, -90.25, 130.75)"/>
            <path id="ID0.9234023680910468" fill="#000000" stroke="none" stroke-width="0.5" stroke-linecap="butt" d="M 227.855 160.731 C 227.855 159.351 228.974 158.231 230.355 158.231 C 231.735 158.231 232.855 159.351 232.855 160.731 C 232.855 162.112 231.735 163.231 230.355 163.231 C 228.974 163.231 227.855 162.112 227.855 160.731 Z " transform="matrix(0.8243752121925354, -0.5660437345504761, 0.5660437345504761, 0.8243752121925354, -90.25, 130.75)"/>
            <path id="ID0.5718387304805219" fill="#000000" stroke="none" stroke-width="0.5" stroke-linecap="butt" d="M 244.286 173.500 C 244.286 172.119 245.406 171 246.786 171 C 248.167 171 249.286 172.119 249.286 173.500 C 249.286 174.881 248.167 176 246.786 176 C 245.406 176 244.286 174.881 244.286 173.500 Z " transform="matrix(0.8243752121925354, -0.5660437345504761, 0.5660437345504761, 0.8243752121925354, -86.35, 119.8)"/>
            <path id="ID0.27401776844635606" fill="#000000" stroke="#000000" stroke-width="2" stroke-linecap="round" d="M 245.250 185.250 C 246.360 185.554 245.823 187.632 245.500 188.750 C 245.194 189.838 244.671 191.473 243.500 192 C 241.605 192.526 238.821 192.679 237.500 191.500 C 236.559 190.658 237.862 188.293 239 187.500 C 240.713 185.994 243.191 184.692 245.250 185.250 Z " transform="matrix(0.8243752121925354, -0.5660437345504761, 0.5660437345504761, 0.8243752121925354, -80.35, 121.3)"/>
          </g>
        </g>
      </g>
      <g id="ID0.400559410918504" transform="matrix(0.8669728636741638, -0.49835529923439026, 0.49835529923439026, 0.8669728636741638, 246.65, 132.5)">
        <path id="ID0.6786938994191587" fill="none" stroke="#000000" stroke-width="2" stroke-linecap="round" d="M 218 184.250 L 224 194.250 L 230 199.250 L 238 199 L 257.750 190.750 " transform="matrix(1, 0, 0, 1, -211, -143)"/>
        <path id="ID0.3499478381127119" fill="#FF0000" stroke="#000000" stroke-width="2" stroke-linecap="round" d="M 205.750 164.500 L 263.500 153.750 L 266 191.750 L 207 184.250 L 205.750 164.500 Z " transform="matrix(1, 0, 0, 1, -204, -143)"/>
        <path id="ID0.19160578679293394" fill="none" stroke="#000000" stroke-width="2" stroke-linecap="round" d="M 273.750 155.500 L 303 144.500 " transform="matrix(1, 0, 0, 1, -204, -143)"/>
        <path id="ID0.846036828123033" fill="none" stroke="#000000" stroke-width="2" stroke-linecap="round" d="M 273.500 182 L 301.250 189.500 " transform="matrix(1, 0, 0, 1, -204, -143)"/>
        <path id="ID0.572039230260998" fill="none" stroke="#000000" stroke-width="2" stroke-linecap="round" d="M 280.250 168.750 L 318.750 166.250 " transform="matrix(1, 0, 0, 1, -204, -143)"/>
      </g>
    </g>
  </g>
</svg>