<svg version="1.1" xmlns="http://www.w3.org/2000/svg" xmlns:xlink="http://www.w3.org/1999/xlink" width="77.16667" height="108.5" viewBox="0,0,77.16667,108.5"><g transform="translate(-210.91667,-132.25)"><g data-paper-data="{&quot;isPaintingLayer&quot;:true}" fill-rule="nonzero" stroke-linejoin="miter" stroke-miterlimit="10" stroke-dasharray="" stroke-dashoffset="0" style="mix-blend-mode: normal"><g><path d="M214.83333,184.83333l-2.66667,33.66667" fill="none" stroke="#000000" stroke-width="2.5" stroke-linecap="round"/><path d="M260.83333,164.83333l26,-31.33333" fill="none" stroke="#000000" stroke-width="2.5" stroke-linecap="round"/><path d="M232.16667,202.83333l-1.33333,36.66667" fill="none" stroke="#000000" stroke-width="2.5" stroke-linecap="round"/><path d="M251.16667,202.5v32" fill="none" stroke="#000000" stroke-width="2.5" stroke-linecap="round"/><path d="M267.5,178c0,16.01626 -12.31217,29 -27.5,29c-15.18783,0 -27.5,-12.98374 -27.5,-29c0,-16.01626 12.31217,-29 27.5,-29c15.18783,0 27.5,12.98374 27.5,29z" fill="#cd8f00" stroke="none" stroke-width="0" stroke-linecap="butt"/><path d="M250.95313,165.5c0,-1.38071 1.11929,-2.5 2.5,-2.5c1.38071,0 2.5,1.11929 2.5,2.5c0,1.38071 -1.11929,2.5 -2.5,2.5c-1.38071,0 -2.5,-1.11929 -2.5,-2.5z" fill="#000000" stroke="none" stroke-width="0.5" stroke-linecap="butt"/><path d="M256.95313,179.5c0,-1.38071 1.11929,-2.5 2.5,-2.5c1.38071,0 2.5,1.11929 2.5,2.5c0,1.38071 -1.11929,2.5 -2.5,2.5c-1.38071,0 -2.5,-1.11929 -2.5,-2.5z" fill="#000000" stroke="none" stroke-width="0.5" stroke-linecap="butt"/><path d="M230.95313,175.5c0,-1.38071 1.11929,-2.5 2.5,-2.5c1.38071,0 2.5,1.11929 2.5,2.5c0,1.38071 -1.11929,2.5 -2.5,2.5c-1.38071,0 -2.5,-1.11929 -2.5,-2.5z" fill="#000000" stroke="none" stroke-width="0.5" stroke-linecap="butt"/><path d="M260.25,163.14545c0,3.78566 -2.91015,6.85455 -6.5,6.85455c-3.58985,0 -6.5,-3.06888 -6.5,-6.85455c0,-3.78566 2.91015,-6.85455 6.5,-6.85455c3.58985,0 6.5,3.06888 6.5,6.85455z" fill="#cd8f00" stroke="none" stroke-width="0" stroke-linecap="butt"/><path d="M266.44828,180c0,4.28021 -3.29032,7.75 -7.34914,7.75c-4.05882,0 -7.34914,-3.46979 -7.34914,-7.75c0,-4.28021 3.29032,-7.75 7.34914,-7.75c4.05882,0 7.34914,3.46979 7.34914,7.75z" fill="#cd8f00" stroke="none" stroke-width="0" stroke-linecap="butt"/><path d="M231.88252,153.46296c0,-1.38071 1.11929,-2.5 2.5,-2.5c1.38071,0 2.5,1.11929 2.5,2.5c0,1.38071 -1.11929,2.5 -2.5,2.5c-1.38071,0 -2.5,-1.11929 -2.5,-2.5z" fill="#000000" stroke="none" stroke-width="0.5" stroke-linecap="butt"/><path d="M238.28994,156.94444c0,-1.38071 1.11929,-2.5 2.5,-2.5c1.38071,0 2.5,1.11929 2.5,2.5c0,1.38071 -1.11929,2.5 -2.5,2.5c-1.38071,0 -2.5,-1.11929 -2.5,-2.5z" fill="#000000" stroke="none" stroke-width="0.5" stroke-linecap="butt"/><path d="M227.85475,160.73148c0,-1.38071 1.11929,-2.5 2.5,-2.5c1.38071,0 2.5,1.11929 2.5,2.5c0,1.38071 -1.11929,2.5 -2.5,2.5c-1.38071,0 -2.5,-1.11929 -2.5,-2.5z" fill="#000000" stroke="none" stroke-width="0.5" stroke-linecap="butt"/><path d="M244.28646,173.5c0,-1.38071 1.11929,-2.5 2.5,-2.5c1.38071,0 2.5,1.11929 2.5,2.5c0,1.38071 -1.11929,2.5 -2.5,2.5c-1.38071,0 -2.5,-1.11929 -2.5,-2.5z" fill="#000000" stroke="none" stroke-width="0.5" stroke-linecap="butt"/></g></g></g></svg>