<svg version="1.1" width="299" height="234" viewBox="-1 -1 299 234" xmlns="http://www.w3.org/2000/svg" xmlns:xlink="http://www.w3.org/1999/xlink">
  <!-- Exported by Scratch - http://scratch.mit.edu/ -->
  <g id="ID0.16143911890685558" transform="matrix(1, 0, 0, 1, -205, -133)">
    <path id="ID0.4090446252375841" fill="none" stroke="#000000" stroke-width="2.5" stroke-linecap="round" d="M 214.833 184.833 L 212.167 218.500 " transform="matrix(0.992143988609314, -0.12510111927986145, 0.12510111927986145, 0.992143988609314, -25.65, 22.9)"/>
    <path id="ID0.2508059092797339" fill="none" stroke="#000000" stroke-width="2.5" stroke-linecap="round" d="M 260.833 164.833 L 286.833 133.500 " transform="matrix(0.3674279451370239, 0.9300519824028015, -0.9300519824028015, 0.3674279451370239, 315.2, -140.6)"/>
    <path id="ID0.823760402854532" fill="none" stroke="#000000" stroke-width="2.5" stroke-linecap="round" d="M 232.167 202.833 L 230.833 239.500 " transform="matrix(1, 0, 0, 1, -2.15, -8.25)"/>
    <path id="ID0.30309085873886943" fill="none" stroke="#000000" stroke-width="2.5" stroke-linecap="round" d="M 251.167 202.500 L 251.167 234.500 " transform="matrix(1, 0, 0, 1, -7.65, -7.75)"/>
    <path id="ID0.1079838084988296" fill="#cd8f00" stroke="none" stroke-width="0" stroke-linecap="butt" d="M 267.500 178 C 267.500 194.016 255.188 207 240 207 C 224.812 207 212.500 194.016 212.500 178 C 212.500 161.984 224.812 149 240 149 C 255.188 149 267.500 161.984 267.500 178 Z " transform="matrix(1, 0, 0, 1, -6.15, -8.75)"/>
    <path id="ID0.5411827568896115" fill="#000000" stroke="none" stroke-width="0.5" stroke-linecap="butt" d="M 250.953 165.500 C 250.953 164.119 252.072 163 253.453 163 C 254.834 163 255.953 164.119 255.953 165.500 C 255.953 166.881 254.834 168 253.453 168 C 252.072 168 250.953 166.881 250.953 165.500 Z " transform="matrix(1, 0, 0, 1, -6.15, -8.75)"/>
    <path id="ID0.024197877384722233" fill="#000000" stroke="none" stroke-width="0.5" stroke-linecap="butt" d="M 256.953 179.500 C 256.953 178.119 258.072 177 259.453 177 C 260.834 177 261.953 178.119 261.953 179.500 C 261.953 180.881 260.834 182 259.453 182 C 258.072 182 256.953 180.881 256.953 179.500 Z " transform="matrix(1, 0, 0, 1, -6.15, -8.75)"/>
    <path id="ID0.3663033861666918" fill="#000000" stroke="none" stroke-width="0.5" stroke-linecap="butt" d="M 230.953 175.500 C 230.953 174.119 232.072 173 233.453 173 C 234.834 173 235.953 174.119 235.953 175.500 C 235.953 176.881 234.834 178 233.453 178 C 232.072 178 230.953 176.881 230.953 175.500 Z " transform="matrix(1, 0, 0, 1, 3.75, -8.05)"/>
    <path id="ID0.3236095788888633" fill="#cd8f00" stroke="none" stroke-width="0" stroke-linecap="butt" d="M 260.250 163.145 C 260.250 166.931 257.340 170 253.750 170 C 250.160 170 247.250 166.931 247.250 163.145 C 247.250 159.360 250.160 156.291 253.750 156.291 C 257.340 156.291 260.250 159.360 260.250 163.145 Z " transform="matrix(1, 0, 0, 1, -6.15, -8.75)"/>
    <path id="ID0.6640998627990484" fill="#cd8f00" stroke="none" stroke-width="0" stroke-linecap="butt" d="M 266.448 180 C 266.448 184.280 263.158 187.750 259.099 187.750 C 255.040 187.750 251.750 184.280 251.750 180 C 251.750 175.720 255.040 172.250 259.099 172.250 C 263.158 172.250 266.448 175.720 266.448 180 Z " transform="matrix(1, 0, 0, 1, -6.15, -8.75)"/>
    <path id="ID0.7113750390708447" fill="#000000" stroke="none" stroke-width="0.5" stroke-linecap="butt" d="M 231.883 153.463 C 231.883 152.082 233.002 150.963 234.383 150.963 C 235.763 150.963 236.883 152.082 236.883 153.463 C 236.883 154.844 235.763 155.963 234.383 155.963 C 233.002 155.963 231.883 154.844 231.883 153.463 Z " transform="matrix(1, 0, 0, 1, -6.15, -8.75)"/>
    <path id="ID0.8256397196091712" fill="#000000" stroke="none" stroke-width="0.5" stroke-linecap="butt" d="M 238.290 156.944 C 238.290 155.564 239.409 154.444 240.790 154.444 C 242.171 154.444 243.290 155.564 243.290 156.944 C 243.290 158.325 242.171 159.444 240.790 159.444 C 239.409 159.444 238.290 158.325 238.290 156.944 Z " transform="matrix(1, 0, 0, 1, -6.15, -8.75)"/>
    <path id="ID0.30098077561706305" fill="#000000" stroke="none" stroke-width="0.5" stroke-linecap="butt" d="M 227.855 160.731 C 227.855 159.351 228.974 158.231 230.355 158.231 C 231.735 158.231 232.855 159.351 232.855 160.731 C 232.855 162.112 231.735 163.231 230.355 163.231 C 228.974 163.231 227.855 162.112 227.855 160.731 Z " transform="matrix(1, 0, 0, 1, -6.15, -8.75)"/>
    <path id="ID0.11951954755932093" fill="#000000" stroke="none" stroke-width="0.5" stroke-linecap="butt" d="M 244.286 173.500 C 244.286 172.119 245.406 171 246.786 171 C 248.167 171 249.286 172.119 249.286 173.500 C 249.286 174.881 248.167 176 246.786 176 C 245.406 176 244.286 174.881 244.286 173.500 Z " transform="matrix(1, 0, 0, 1, 0.25, -6.8)"/>
    <g id="ID0.463027719873935" transform="matrix(1, 0, 0, 1, 109, 133)">
      <path id="ID0.018648815341293812" fill="#990000" stroke="#000000" stroke-width="2" stroke-linecap="round" d="M 228.100 181.150 L 251.600 176.100 L 252.050 176.550 L 250 196 L 247.500 197.250 L 243 198.500 L 233 201.500 L 222 201.250 L 216.250 200.500 L 213.250 199.500 L 209 197.750 L 207.500 196.750 L 206.250 195.250 L 207 187.500 L 207.500 183.250 L 228.100 181.150 Z " transform="matrix(0.27144408226013184, 0, 0, 0.27144408226013184, 57.95, -0.8)"/>
      <path id="ID0.681087467353791" fill="#E76B91" stroke="none" stroke-linecap="round" d="M 225 193.250 C 226.586 193.250 228.024 193.600 229.065 194.166 C 230.106 194.732 230.566 195.472 230.750 196.375 C 231.045 197.791 232.027 200.337 230.750 201 C 224 200.007 221.720 200.934 219 199.750 C 218.012 199.251 218.938 197.422 219.250 196.375 C 219.512 195.493 219.894 194.732 220.935 194.166 C 221.976 193.600 223.414 193.250 225 193.250 Z " transform="matrix(0.27144408226013184, 0, 0, 0.27144408226013184, 57.95, -0.8)"/>
    </g>
    <g id="ID0.5006190645508468" transform="matrix(1, 0, 0, 1, 109, 133)">
      <path id="ID0.8860743856057525" fill="#003FFF" stroke="#003FFF" stroke-width="15" stroke-linecap="round" d="M 199.250 203.500 C 203.009 208.970 209.930 212.550 216.500 213.500 C 228.842 215.281 241.581 212.434 254 210.500 C 268.351 208.764 284.600 210.384 296.750 202.500 C 301.703 199.275 296.958 189.212 293.500 184 C 290.339 179.244 284.281 176.689 279 174.500 C 273.151 172.441 266.463 173.751 260.750 171.500 C 256.047 169.652 252.696 165.077 248 163.250 C 242.900 161.265 237.169 159.972 231.750 160.750 C 222.345 162.100 212.553 164.449 204.250 169.250 C 199.921 171.906 196.543 176.955 195.750 182 C 194.624 189.165 195.146 197.520 199.250 203.500 Z " transform="matrix(0.4388185739517212, 0, 0, 0.4388185739517212, 13.95, -66.95)"/>
      <g id="ID0.16960606910288334">
        <path id="ID0.42386655788868666" fill="#FFFFFF" stroke="#FFFFFF" stroke-width="15" stroke-linecap="round" d="M 233 317 C 230.606 315.589 230.382 306.056 230.500 300.500 C 230.717 290.279 233.114 280.185 234 270 C 234.447 264.855 234.388 259.663 234.500 254.500 C 234.554 252.003 234.500 247 234.500 247 C 230.500 246 241.450 244.650 247 244.500 C 252.150 244.300 257.300 244.800 262.500 245 C 267.650 245.150 272.800 245.650 278 245.500 C 283.500 245.300 288.950 244.250 294.500 244 C 310.800 243.250 327.729 238.296 343.500 242.500 C 348.828 243.924 347.404 253.261 347.700 258.900 C 348.378 271.114 350.506 284.323 345.750 295.700 C 343.229 302.487 334.690 305.099 327.950 308.200 C 320.564 311.599 312.354 313.853 304.500 315 C 294.265 316.486 283.800 316.550 273.500 317 C 268.500 317.200 263.461 317 258.500 317 C 250.002 317 236.658 319.156 233 317 Z " transform="matrix(0.11755900830030441, -0.03156793862581253, 0.03156793862581253, 0.11755900830030441, 79.5, -8.5)"/>
        <path id="ID0.8784878868609667" fill="none" stroke="#666666" stroke-width="8" stroke-linecap="round" d="M 317.650 267 L 335.550 301.700 L 342.550 309.100 " transform="matrix(0.10986283421516418, -0.02950129844248295, 0.02950129844248295, 0.10986283421516418, 82.85, -6.75)"/>
        <path id="ID0.9376575318165123" fill="none" stroke="#666666" stroke-width="8" stroke-linecap="round" d="M 256 270 L 226.500 324 " transform="matrix(0.11755900830030441, -0.03156793862581253, 0.03156793862581253, 0.11755900830030441, 79.5, -8.5)"/>
        <path id="ID0.8363002091646194" fill="none" stroke="#666666" stroke-width="8" stroke-linecap="round" d="M 227 239 L 287.500 298.500 L 312.300 272.550 L 332.200 254.100 L 349 242 " transform="matrix(0.11755900830030441, -0.03156793862581253, 0.03156793862581253, 0.11755900830030441, 79.5, -8.5)"/>
        <path id="ID0.28953033639118075" fill="none" stroke="#000000" stroke-width="3" stroke-linecap="round" d="M 205 309 L 189.650 308.500 L 173.350 305.250 " transform="matrix(0.11755900830030441, -0.03156793862581253, 0.03156793862581253, 0.11755900830030441, 79.5, -8.5)"/>
        <path id="ID0.9853255585767329" fill="none" stroke="#000000" stroke-width="3" stroke-linecap="round" d="M 204.500 286 L 188.300 285.750 L 172.750 283.150 " transform="matrix(0.11755900830030441, -0.03156793862581253, 0.03156793862581253, 0.11755900830030441, 79.5, -8.5)"/>
        <path id="ID0.47806099709123373" fill="none" stroke="#000000" stroke-width="3" stroke-linecap="round" d="M 205.500 262.500 L 183.600 264.900 L 171.200 264.550 " transform="matrix(0.11755900830030441, -0.03156793862581253, 0.03156793862581253, 0.11755900830030441, 79.5, -8.5)"/>
      </g>
    </g>
    <path id="ID0.7285760170780122" fill="none" stroke="#003FFF" stroke-width="10" stroke-linecap="round" d="M 260.750 166.500 C 260.750 166.500 257.520 173.670 254.950 176.550 C 250.463 181.302 245.415 185.602 239.850 189.100 C 230.987 194.668 211.800 203.300 211.800 203.300 " transform="matrix(0.6777003407478333, 0, 0, 0.6777003407478333, 84.35, 55.35)"/>
    <g id="ID0.6823234683834016" transform="matrix(1, 0, 0, 1, 109, 133)">
      <path id="ID0.42386655788868666" fill="#FFFFFF" stroke="#FFFFFF" stroke-width="15" stroke-linecap="round" d="M 233 317 C 230.606 315.589 230.382 306.056 230.500 300.500 C 230.717 290.279 233.114 280.185 234 270 C 234.447 264.855 234.388 259.663 234.500 254.500 C 234.554 252.003 234.500 247 234.500 247 C 230.500 246 241.450 244.650 247 244.500 C 252.150 244.300 257.300 244.800 262.500 245 C 267.650 245.150 272.800 245.650 278 245.500 C 283.500 245.300 288.950 244.250 294.500 244 C 310.800 243.250 327.150 242.950 343.500 242.500 C 347.550 242.350 344 242.500 344 242.500 C 343 241.500 343.100 252.850 342.500 258.500 C 341.900 263.550 339.900 268.400 339.500 273.500 C 338.600 283.750 338.500 294.150 338.500 304.500 C 338.500 307.650 339.500 314 339.500 314 C 339.500 314 327.800 314.800 322 315 C 316.150 315.150 310.300 314.750 304.500 315 C 294.150 315.400 283.800 316.550 273.500 317 C 268.500 317.200 263.461 317 258.500 317 C 250.002 317 236.658 319.156 233 317 Z " transform="matrix(0.0998779758810997, -0.03573615476489067, 0.03573615476489067, 0.0998779758810997, 147.85, 26.4)"/>
      <path id="ID0.8784878868609667" fill="none" stroke="#666666" stroke-width="8" stroke-linecap="round" d="M 317.650 267 L 343.500 317 " transform="matrix(0.09333931654691696, -0.033396635204553604, 0.033396635204553604, 0.09333931654691696, 150.9, 27.7)"/>
      <path id="ID0.9376575318165123" fill="none" stroke="#666666" stroke-width="8" stroke-linecap="round" d="M 256 270 L 226.500 324 " transform="matrix(0.0998779758810997, -0.03573615476489067, 0.03573615476489067, 0.0998779758810997, 147.85, 26.4)"/>
      <path id="ID0.8363002091646194" fill="none" stroke="#666666" stroke-width="8" stroke-linecap="round" d="M 227 239 L 287.500 298.500 L 352 239.500 " transform="matrix(0.0998779758810997, -0.03573615476489067, 0.03573615476489067, 0.0998779758810997, 147.85, 26.4)"/>
    </g>
    <g id="ID0.05649811215698719" transform="matrix(0.94801265001297, 0.3182327151298523, -0.3182327151298523, 0.94801265001297, 182.85, -34.9)">
      <path id="ID0.8837652164511383" fill="#003FFF" stroke="#002699" stroke-width="10" stroke-linecap="round" d="M 251.900 193.350 C 254.671 193.010 258.625 191.171 262.600 191.700 C 265.925 192.143 269.440 193.878 271.400 196.600 C 273.403 199.382 274.908 203.621 273.400 206.700 C 271.907 209.749 267.526 210.307 264.250 211.200 C 260.816 212.136 256.958 213.280 253.600 212.100 C 249.904 210.802 245.979 208.070 244.750 204.350 C 243.704 201.185 246.246 197.744 247.900 194.850 C 248.399 193.977 249.767 194.061 250.750 193.850 Z " transform="matrix(0.5532994866371155, 0, 0, 0.5532994866371155, -33.25, 95.35)"/>
      <g id="ID0.6823234683834016" transform="matrix(1, 0, 0, 1, 96, 139.15)">
        <path id="ID0.42386655788868666" fill="#FFFFFF" stroke="#FFFFFF" stroke-width="15" stroke-linecap="round" d="M 233 317 C 230.606 315.589 230.382 306.056 230.500 300.500 C 230.717 290.279 233.114 280.185 234 270 C 234.447 264.855 234.388 259.663 234.500 254.500 C 234.554 252.003 234.500 247 234.500 247 C 230.500 246 241.450 244.650 247 244.500 C 252.150 244.300 257.300 244.800 262.500 245 C 267.650 245.150 272.800 245.650 278 245.500 C 283.500 245.300 288.950 244.250 294.500 244 C 310.800 243.250 327.150 242.950 343.500 242.500 C 347.550 242.350 344 242.500 344 242.500 C 343 241.500 343.100 252.850 342.500 258.500 C 341.900 263.550 339.900 268.400 339.500 273.500 C 338.600 283.750 338.500 294.150 338.500 304.500 C 338.500 307.650 339.500 314 339.500 314 C 339.500 314 327.800 314.800 322 315 C 316.150 315.150 310.300 314.750 304.500 315 C 294.150 315.400 283.800 316.550 273.500 317 C 268.500 317.200 263.461 317 258.500 317 C 250.002 317 236.658 319.156 233 317 Z " transform="matrix(-0.02538893185555935, -0.054388001561164856, 0.054388001561164856, -0.02538893185555935, 3.2, 87.7)"/>
        <path id="ID0.8784878868609667" fill="none" stroke="#666666" stroke-width="8" stroke-linecap="round" d="M 317.650 267 L 343.500 317 " transform="matrix(-0.0237268079072237, -0.05082741007208824, 0.05082741007208824, -0.0237268079072237, 3.75, 85.9)"/>
        <path id="ID0.9376575318165123" fill="none" stroke="#666666" stroke-width="8" stroke-linecap="round" d="M 256 270 L 226.500 324 " transform="matrix(-0.02538893185555935, -0.054388001561164856, 0.054388001561164856, -0.02538893185555935, 3.2, 87.7)"/>
        <path id="ID0.8363002091646194" fill="none" stroke="#666666" stroke-width="8" stroke-linecap="round" d="M 227 239 L 287.500 298.500 L 352 239.500 " transform="matrix(-0.02538893185555935, -0.054388001561164856, 0.054388001561164856, -0.02538893185555935, 3.2, 87.7)"/>
      </g>
      <g id="ID0.6823234683834016" transform="matrix(1, 0, 0, 1, 99.5, 138.25)">
        <path id="ID0.42386655788868666" fill="#FFFFFF" stroke="#FFFFFF" stroke-width="15" stroke-linecap="round" d="M 233 317 C 230.606 315.589 230.382 306.056 230.500 300.500 C 230.717 290.279 233.114 280.185 234 270 C 234.447 264.855 234.388 259.663 234.500 254.500 C 234.554 252.003 234.500 247 234.500 247 C 230.500 246 241.450 244.650 247 244.500 C 252.150 244.300 257.300 244.800 262.500 245 C 267.650 245.150 272.800 245.650 278 245.500 C 283.500 245.300 288.950 244.250 294.500 244 C 310.800 243.250 327.150 242.950 343.500 242.500 C 347.550 242.350 344 242.500 344 242.500 C 343 241.500 343.100 252.850 342.500 258.500 C 341.900 263.550 339.900 268.400 339.500 273.500 C 338.600 283.750 338.500 294.150 338.500 304.500 C 338.500 307.650 339.500 314 339.500 314 C 339.500 314 327.800 314.800 322 315 C 316.150 315.150 310.300 314.750 304.500 315 C 294.150 315.400 283.800 316.550 273.500 317 C 268.500 317.200 263.461 317 258.500 317 C 250.002 317 236.658 319.156 233 317 Z " transform="matrix(0.03560701757669449, -0.04831969365477562, 0.04831969365477562, 0.03560701757669449, -6.55, 70.6)"/>
        <path id="ID0.8784878868609667" fill="none" stroke="#666666" stroke-width="8" stroke-linecap="round" d="M 317.650 267 L 343.500 317 " transform="matrix(0.03327595070004463, -0.04515637457370758, 0.04515637457370758, 0.03327595070004463, -4.75, 70.25)"/>
        <path id="ID0.9376575318165123" fill="none" stroke="#666666" stroke-width="8" stroke-linecap="round" d="M 256 270 L 226.500 324 " transform="matrix(0.03560701757669449, -0.04831969365477562, 0.04831969365477562, 0.03560701757669449, -6.55, 70.6)"/>
        <path id="ID0.8363002091646194" fill="none" stroke="#666666" stroke-width="8" stroke-linecap="round" d="M 227 239 L 287.500 298.500 L 352 239.500 " transform="matrix(0.03560701757669449, -0.04831969365477562, 0.04831969365477562, 0.03560701757669449, -6.55, 70.6)"/>
      </g>
      <g id="ID0.6823234683834016" transform="matrix(1, 0, 0, 1, 97.75, 138.9)">
        <path id="ID0.42386655788868666" fill="#FFFFFF" stroke="#FFFFFF" stroke-width="15" stroke-linecap="round" d="M 233 317 C 230.606 315.589 230.382 306.056 230.500 300.500 C 230.717 290.279 233.114 280.185 234 270 C 234.447 264.855 234.388 259.663 234.500 254.500 C 234.554 252.003 234.500 247 234.500 247 C 230.500 246 241.450 244.650 247 244.500 C 252.150 244.300 257.300 244.800 262.500 245 C 267.650 245.150 272.800 245.650 278 245.500 C 283.500 245.300 288.950 244.250 294.500 244 C 310.800 243.250 327.150 242.950 343.500 242.500 C 347.550 242.350 344 242.500 344 242.500 C 343 241.500 343.100 252.850 342.500 258.500 C 341.900 263.550 339.900 268.400 339.500 273.500 C 338.600 283.750 338.500 294.150 338.500 304.500 C 338.500 307.650 339.500 314 339.500 314 C 339.500 314 327.800 314.800 322 315 C 316.150 315.150 310.300 314.750 304.500 315 C 294.150 315.400 283.800 316.550 273.500 317 C 268.500 317.200 263.461 317 258.500 317 C 250.002 317 236.658 319.156 233 317 Z " transform="matrix(0.016541801393032074, -0.05769767239689827, 0.05769767239689827, 0.016541801393032074, -4.3, 76.15)"/>
        <path id="ID0.8784878868609667" fill="none" stroke="#666666" stroke-width="8" stroke-linecap="round" d="M 317.650 267 L 343.500 317 " transform="matrix(0.015458867885172367, -0.05392041057348251, 0.05392041057348251, 0.015458867885172367, -2.7, 75.2)"/>
        <path id="ID0.9376575318165123" fill="none" stroke="#666666" stroke-width="8" stroke-linecap="round" d="M 256 270 L 226.500 324 " transform="matrix(0.016541801393032074, -0.05769767239689827, 0.05769767239689827, 0.016541801393032074, -4.3, 76.15)"/>
        <path id="ID0.8363002091646194" fill="none" stroke="#666666" stroke-width="8" stroke-linecap="round" d="M 227 239 L 287.500 298.500 L 352 239.500 " transform="matrix(0.016541801393032074, -0.05769767239689827, 0.05769767239689827, 0.016541801393032074, -4.3, 76.15)"/>
      </g>
      <g id="ID0.6823234683834016" transform="matrix(1, 0, 0, 1, 97.75, 138.9)">
        <path id="ID0.42386655788868666" fill="#FFFFFF" stroke="#FFFFFF" stroke-width="15" stroke-linecap="round" d="M 233 317 C 230.606 315.589 230.382 306.056 230.500 300.500 C 230.717 290.279 233.114 280.185 234 270 C 234.447 264.855 234.388 259.663 234.500 254.500 C 234.554 252.003 234.500 247 234.500 247 C 230.500 246 241.450 244.650 247 244.500 C 252.150 244.300 257.300 244.800 262.500 245 C 267.650 245.150 272.800 245.650 278 245.500 C 283.500 245.300 288.950 244.250 294.500 244 C 310.800 243.250 327.150 242.950 343.500 242.500 C 347.550 242.350 344 242.500 344 242.500 C 343 241.500 343.100 252.850 342.500 258.500 C 341.900 263.550 339.900 268.400 339.500 273.500 C 338.600 283.750 338.500 294.150 338.500 304.500 C 338.500 307.650 339.500 314 339.500 314 C 339.500 314 327.800 314.800 322 315 C 316.150 315.150 310.300 314.750 304.500 315 C 294.150 315.400 283.800 316.550 273.500 317 C 268.500 317.200 263.461 317 258.500 317 C 250.002 317 236.658 319.156 233 317 Z " transform="matrix(-0.02538893185555935, -0.054388001561164856, 0.054388001561164856, -0.02538893185555935, -2, 90.2)"/>
        <path id="ID0.8784878868609667" fill="none" stroke="#666666" stroke-width="8" stroke-linecap="round" d="M 317.650 267 L 343.500 317 " transform="matrix(-0.0237268079072237, -0.05082741007208824, 0.05082741007208824, -0.0237268079072237, -1.45, 88.4)"/>
        <path id="ID0.9376575318165123" fill="none" stroke="#666666" stroke-width="8" stroke-linecap="round" d="M 256 270 L 226.500 324 " transform="matrix(-0.02538893185555935, -0.054388001561164856, 0.054388001561164856, -0.02538893185555935, -2, 90.2)"/>
        <path id="ID0.8363002091646194" fill="none" stroke="#666666" stroke-width="8" stroke-linecap="round" d="M 227 239 L 287.500 298.500 L 352 239.500 " transform="matrix(-0.02538893185555935, -0.054388001561164856, 0.054388001561164856, -0.02538893185555935, -2, 90.2)"/>
      </g>
      <path id="ID0.3304692539386451" fill="#FFFFCC" stroke="none" d="M 131.500 216 L 143.150 216 L 143.150 229.500 L 131.500 229.500 L 131.500 216 Z " transform="matrix(0.5538678765296936, -0.13020028173923492, 0.13020028173923492, 0.5538678765296936, 5.5, 97.2)"/>
      <path id="ID0.3304692539386451" fill="#FFFFCC" stroke="none" d="M 131.500 216 L 143.150 216 L 143.150 229.500 L 131.500 229.500 L 131.500 216 Z " transform="matrix(0.39699649810791016, 0.4075727164745331, -0.4075727164745331, 0.39699649810791016, 151.25, 61.85)"/>
      <path id="ID0.9788970029912889" fill="#003FFF" stroke="none" stroke-linecap="round" d="M 125.100 208.750 L 121.750 209.550 L 118.400 209.350 L 116.700 209 L 113.450 207.500 L 111.500 204.500 L 121.900 199.550 L 130.650 204.500 L 128.700 207.400 L 125.100 208.750 Z " transform="matrix(1.0819672346115112, 0, 0, 1.0833333730697632, -20.5, -11.15)"/>
      <path id="ID0.007174021098762751" fill="none" stroke="#0033CC" stroke-width="4" stroke-linecap="round" d="M 147.550 204.450 C 147.550 204.450 151.902 200.417 154.700 199.750 C 155.951 199.458 156.805 201.200 157.950 201.750 C 160.102 202.784 164.450 204.250 164.450 204.250 " transform="matrix(1.078125, 0, 0, 1, -57.8, 4.65)"/>
    </g>
  </g>
</svg>