<svg version="1.1" width="457" height="378" viewBox="-1 -1 457 378" xmlns="http://www.w3.org/2000/svg" xmlns:xlink="http://www.w3.org/1999/xlink">
  <!-- Exported by Scratch - http://scratch.mit.edu/ -->
  <g id="ID0.2610622397623956" transform="matrix(1, 0, 0, 1, -170, -87)">
    <path id="ID0.4195671547204256" fill="#CAFFBD" stroke="none" stroke-linecap="round" d="M 205 277 C 214.932 277 225.783 279.026 230.449 286.818 C 245.592 312.115 261.748 341.358 262 371 C 262.066 381.290 241.733 363.309 232 366 C 218.418 369.822 210.902 392.316 196 392 C 182.394 391.020 178.773 367.301 166 363 C 156.362 359.809 133.801 378.761 136 369 C 140.576 340.670 160.345 311.705 179.551 286.818 C 185.097 279.628 195.068 277 205 277 Z " transform="matrix(0.46179163455963135, -0.8869884610176086, 0.8869884610176086, 0.46179163455963135, 2.3, 325.5)"/>
    <path id="ID0.5457380805164576" fill="#99FFBB" stroke="none" d="M 268 188 C 300.555 188 330.055 195.844 351.416 208.516 C 372.778 221.188 386 238.688 386 258 C 386 277.312 372.778 294.812 351.416 307.484 C 330.055 320.156 300.555 328 268 328 C 235.445 328 205.945 320.156 184.584 307.484 C 163.222 294.812 150 277.312 150 258 C 150 238.688 163.222 221.188 184.584 208.516 C 205.945 195.844 235.445 188 268 188 Z " transform="matrix(1, 0, 0, 1, 20, 8)"/>
    <g id="ID0.46390747325494885" transform="matrix(1, 0, 0, 1, 177, 129)">
      <path id="ID0.4207402649335563" fill="#FFFFFF" stroke="none" d="M 347.500 244 C 358.950 244 369.325 247.474 376.837 253.086 C 384.350 258.697 389 266.447 389 275 C 389 283.553 384.350 291.303 376.837 296.914 C 369.325 302.526 358.950 306 347.500 306 C 336.050 306 325.675 302.526 318.163 296.914 C 310.650 291.303 306 283.553 306 275 C 306 266.447 310.650 258.697 318.163 253.086 C 325.675 247.474 336.050 244 347.500 244 Z " transform="matrix(-1, 0, 0, 1, 389, -141)"/>
      <path id="ID0.596929766703397" fill="none" stroke="#FFFFFF" stroke-width="13" stroke-linecap="round" d="M 369 253 L 370 159 L 446 165 L 439 272 " transform="matrix(-1, 0, 0, 1, 508, -151)"/>
      <path id="ID0.9268153626471758" fill="#FFFFFF" stroke="none" d="M 448 261 C 456.829 261 464.829 263.689 470.621 268.034 C 476.414 272.379 480 278.379 480 285 C 480 291.621 476.414 297.621 470.621 301.966 C 464.829 306.311 456.829 309 448 309 C 439.171 309 431.171 306.311 425.379 301.966 C 419.586 297.621 416 291.621 416 285 C 416 278.379 419.586 272.379 425.379 268.034 C 431.171 263.689 439.171 261 448 261 Z " transform="matrix(-1, 0, 0, 1, 565, -166)"/>
    </g>
    <path id="ID0.4195671547204256" fill="#CAFFBD" stroke="none" d="M 205 277 C 214.932 277 223.932 280.754 230.449 286.818 C 236.966 292.883 241 301.258 241 310.500 C 241 319.742 236.966 328.117 230.449 334.182 C 223.932 340.246 214.932 344 205 344 C 195.068 344 186.068 340.246 179.551 334.182 C 173.034 328.117 169 319.742 169 310.500 C 169 301.258 173.034 292.883 179.551 286.818 C 186.068 280.754 195.068 277 205 277 Z " transform="matrix(1, 0, 0, 1, 128, -190)"/>
  </g>
</svg>