<svg version="1.1" width="413" height="337" viewBox="-1 -1 413 337" xmlns="http://www.w3.org/2000/svg" xmlns:xlink="http://www.w3.org/1999/xlink">
  <!-- Exported by Scratch - http://scratch.mit.edu/ -->
  <g id="ID0.16127498913556337" transform="matrix(1, 0, 0, 1, -92, -63)">
    <g id="ID0.0004649409092962742">
      <g id="ID0.7876573479734361" transform="matrix(1.8117228746414185, 0, 0, 1.8117228746414185, 100, 65)">
        <path id="ID0.09171729208901525" fill="#FFFFFF" stroke="none" d="M 217.750 155.750 L 281.250 155.750 L 281.250 231.750 L 217.750 231.750 L 217.750 155.750 Z " transform="matrix(0.9460375308990479, -0.32405704259872437, 0.32405704259872437, 0.9460375308990479, -256.3, -55.7)"/>
        <path id="ID0.85975122731179" fill="none" stroke="#000000" stroke-width="2" stroke-linecap="round" d="M 224.250 167.750 C 224.250 167.750 224.247 170.947 225.250 172 C 226.197 172.994 227.881 172.891 229.250 173 C 230.015 173.061 230.797 172.808 231.500 172.500 C 232.156 172.213 232.648 171.637 233.250 171.250 C 233.815 170.887 234.427 170.599 235 170.250 C 236.342 169.433 237.572 168.404 239 167.750 C 239.610 167.470 240.330 167.463 241 167.500 C 241.848 167.547 242.684 167.767 243.500 168 C 244.437 168.268 245.360 168.604 246.250 169 C 246.863 169.273 247.490 169.563 248 170 C 248.672 170.576 249.148 171.352 249.750 172 C 250.231 172.518 250.731 173.021 251.250 173.500 C 251.814 174.021 252.356 174.583 253 175 C 253.781 175.506 254.579 176.118 255.500 176.250 C 256.421 176.382 257.367 176.044 258.250 175.750 C 259.133 175.456 259.899 174.878 260.750 174.500 C 261.400 174.211 262.084 174 262.750 173.750 C 263.416 173.500 264.062 173.181 264.750 173 C 265.650 172.763 266.600 172.737 267.500 172.500 C 268.188 172.319 268.864 172.068 269.500 171.750 C 270.534 171.233 272.500 170 272.500 170 " transform="matrix(0.9460375308990479, -0.32405704259872437, 0.32405704259872437, 0.9460375308990479, -256.3, -55.7)"/>
        <path id="ID0.14192898198962212" fill="none" stroke="#000000" stroke-width="2" stroke-linecap="round" d="M 224.750 189.750 C 224.750 189.750 226.015 188.338 226.750 187.750 C 227.274 187.331 227.842 186.882 228.500 186.750 C 229.158 186.618 229.859 186.800 230.500 187 C 231.211 187.222 231.869 187.605 232.500 188 C 233.206 188.441 233.834 189 234.500 189.500 C 235.166 190 235.774 190.592 236.500 191 C 237.120 191.349 237.815 191.560 238.500 191.750 C 239.318 191.977 240.152 192.297 241 192.250 C 241.710 192.211 242.393 191.871 243 191.500 C 243.910 190.944 244.647 190.140 245.500 189.500 C 246.646 188.641 247.767 187.729 249 187 C 249.612 186.638 250.290 186.292 251 186.250 C 251.766 186.205 252.503 186.574 253.250 186.750 C 253.918 186.907 254.607 187.009 255.250 187.250 C 255.947 187.511 256.630 187.837 257.250 188.250 C 257.889 188.676 258.308 189.418 259 189.750 C 260.424 190.434 261.958 190.907 263.500 191.250 C 264.231 191.413 265.010 191.368 265.750 191.250 C 267.106 191.033 268.447 190.684 269.750 190.250 C 271.202 189.766 272.604 189.128 274 188.500 C 274.349 188.343 274.750 188 274.750 188 " transform="matrix(0.9460375308990479, -0.32405704259872437, 0.32405704259872437, 0.9460375308990479, -256.3, -55.7)"/>
        <path id="ID0.8980405773036182" fill="none" stroke="#000000" stroke-width="2" stroke-linecap="round" d="M 224.750 209.750 C 224.750 209.750 226.354 210.716 227.250 210.750 C 228.604 210.802 229.921 210.266 231.250 210 C 232.003 209.849 232.764 209.717 233.500 209.500 C 234.182 209.299 234.825 208.975 235.500 208.750 C 236.574 208.392 237.638 207.964 238.750 207.750 C 239.816 207.545 240.925 207.353 242 207.500 C 242.812 207.611 243.585 208.020 244.250 208.500 C 245.109 209.120 245.802 209.953 246.500 210.750 C 246.972 211.289 247.447 211.851 247.750 212.500 C 248.040 213.122 247.788 213.992 248.250 214.500 C 248.728 215.026 249.539 215.250 250.250 215.250 C 251.119 215.250 251.939 214.812 252.750 214.500 C 253.030 214.392 253.500 214 253.500 214 " transform="matrix(0.9460375308990479, -0.32405704259872437, 0.32405704259872437, 0.9460375308990479, -256.3, -55.7)"/>
      </g>
      <g id="ID0.7973384009674191" transform="matrix(2.895289182662964, 0, 0, 2.895289182662964, 42.35, -5.25)">
        <path id="ID0.10558312525972724" fill="#FFFFFF" stroke="#E5E5E5" stroke-width="2" stroke-linecap="round" d="M 211.500 200.750 C 210.898 200.587 212.150 198.836 212.750 198 C 213.109 197.394 213.500 196.750 214 196.250 C 214.450 195.700 214.950 195.200 215.500 194.750 C 216.050 194.200 217.250 193.250 217.250 193.250 C 217.500 192.250 219.692 192.241 220.750 192 C 221.550 191.818 222.277 191.386 223 191 C 224.777 190.052 226.502 188.999 228.250 188 C 228.833 187.667 229.435 187.363 230 187 C 230.602 186.613 231.187 186.192 231.750 185.750 C 232.354 185.276 232.861 184.676 233.500 184.250 C 234.617 183.505 235.834 182.916 237 182.250 C 238.748 181.251 240.413 180.074 242.250 179.250 C 242.862 178.975 243.583 178.922 244.250 179 C 246.439 179.258 248.619 179.686 250.750 180.250 C 251.470 180.441 252.018 181.113 252.750 181.250 C 253.410 181.374 254.150 181.300 254.750 181 C 255.542 180.604 256.124 179.876 256.750 179.250 C 257.293 178.707 257.824 178.139 258.250 177.500 C 258.663 176.880 258.989 176.197 259.250 175.500 C 259.491 174.857 259.665 174.181 259.750 173.500 C 259.833 172.839 259.833 172.161 259.750 171.500 C 259.665 170.819 259.505 170.137 259.250 169.500 C 259.001 168.877 258.647 168.291 258.250 167.750 C 257.727 167.036 257.191 166.303 256.500 165.750 C 255.919 165.285 255.222 164.931 254.500 164.750 C 253.854 164.588 253.165 164.715 252.500 164.750 C 251.582 164.798 250.659 164.864 249.750 165 C 248.991 165.114 248.235 165.279 247.500 165.500 C 246.567 165.780 245.674 166.192 244.750 166.500 C 243.925 166.775 243.055 166.922 242.250 167.250 C 240.801 167.840 239.388 168.528 238 169.250 C 237.303 169.612 236.711 170.166 236 170.500 C 235.285 170.836 234.456 170.897 233.750 171.250 C 233.109 171.570 232.609 172.123 232 172.500 C 230.859 173.207 229.600 173.730 228.500 174.500 C 227.921 174.905 227.500 175.500 227 176 C 225.834 177.166 224.740 178.415 223.500 179.500 C 222.735 180.169 221.701 180.514 221 181.250 C 220.012 182.287 219.186 183.493 218.500 184.750 C 218.171 185.353 218.228 186.103 218 186.750 C 217.727 187.523 217.231 188.213 217 189 C 216.811 189.644 216.962 190.363 216.750 191 C 216.538 191.637 216.225 192.275 215.750 192.750 C 215.275 193.225 214.558 193.378 214 193.750 C 212.808 194.544 211.305 195.066 210.500 196.250 C 209.784 197.303 209.460 199.775 209.750 200 Z " transform="matrix(0.9861854314804077, 0.16564500331878662, -0.16564500331878662, 0.9861854314804077, -117.35, -172.15)"/>
        <path id="ID0.7009262666106224" fill="none" stroke="#000000" stroke-width="2" stroke-linecap="round" d="M 209.750 198.750 C 209.084 199.499 208.398 200.235 207.750 201 C 207.481 201.318 207 202 207 202 " transform="matrix(0.9861854314804077, 0.16564500331878662, -0.16564500331878662, 0.9861854314804077, -117.35, -172.15)"/>
        <path id="ID0.730502026155591" fill="none" stroke="#000000" stroke-width="2" stroke-linecap="round" d="M 210.250 200 C 210.250 200 209.250 198 209.250 198 Z " transform="matrix(0.9861854314804077, 0.16564500331878662, -0.16564500331878662, 0.9861854314804077, -117.35, -172.15)"/>
        <path id="ID0.47020154539495707" fill="none" stroke="#000000" stroke-width="2" stroke-linecap="round" d="M 209.750 199.750 C 209.750 199.750 211 201.500 211 201.500 Z " transform="matrix(0.9861854314804077, 0.16564500331878662, -0.16564500331878662, 0.9861854314804077, -117.35, -172.15)"/>
        <path id="ID0.831944246776402" fill="none" stroke="#000000" stroke-width="2" stroke-linecap="round" d="M 209.750 198.500 C 210.750 197.917 209.896 196.958 210.250 196.250 C 210.521 195.708 212.267 196.233 212.250 196.250 C 212.234 196.266 210.256 195.987 210 196.500 C 209.756 196.987 211.024 197.571 211.250 198.250 C 211.461 198.882 211.566 199.664 211.250 200.250 C 210.910 200.881 210.074 201.691 209.500 201.500 C 208.949 201.316 208.671 200.103 209 199.500 C 209.341 198.876 210.334 199 211 198.750 C 211.167 198.688 211.062 198.958 211 198.750 Z " transform="matrix(0.9861854314804077, 0.16564500331878662, -0.16564500331878662, 0.9861854314804077, -119.9, -169)"/>
      </g>
    </g>
    <g id="ID0.39507695380598307" transform="matrix(1.156738042831421, 0, 0, 1.156738042831421, -289.7, -130)">
      <path id="ID0.3696590852923691" fill="#cd8f00" stroke="none" stroke-width="0" d="M 267.500 180 C 267.500 196.016 255.188 209 240 209 C 224.812 209 212.500 196.016 212.500 180 C 212.500 163.984 224.812 151 240 151 C 255.188 151 267.500 163.984 267.500 180 Z " transform="matrix(1.4910058975219727, 0, 0, 1.4910058975219727, 13.15, 24.35)"/>
      <path id="ID0.32847774727270007" fill="#000000" stroke="none" stroke-width="0.5" d="M 250.953 167.500 C 250.953 166.119 252.072 165 253.453 165 C 254.834 165 255.953 166.119 255.953 167.500 C 255.953 168.881 254.834 170 253.453 170 C 252.072 170 250.953 168.881 250.953 167.500 Z " transform="matrix(1.4910058975219727, 0, 0, 1.4910058975219727, 13.15, 24.35)"/>
      <path id="ID0.597326863091439" fill="#000000" stroke="none" stroke-width="0.5" d="M 256.953 181.500 C 256.953 180.119 258.072 179 259.453 179 C 260.834 179 261.953 180.119 261.953 181.500 C 261.953 182.881 260.834 184 259.453 184 C 258.072 184 256.953 182.881 256.953 181.500 Z " transform="matrix(1.4910058975219727, 0, 0, 1.4910058975219727, 13.15, 24.35)"/>
      <path id="ID0.36096185725182295" fill="#000000" stroke="none" stroke-width="0.5" d="M 239.953 175.500 C 239.953 174.119 241.072 173 242.453 173 C 243.834 173 244.953 174.119 244.953 175.500 C 244.953 176.881 243.834 178 242.453 178 C 241.072 178 239.953 176.881 239.953 175.500 Z " transform="matrix(1.4910058975219727, 0, 0, 1.4910058975219727, 13.15, 24.35)"/>
      <path id="ID0.1351925847120583" fill="#cd8f00" stroke="none" stroke-width="0" d="M 260.250 165.145 C 260.250 168.931 257.340 172 253.750 172 C 250.160 172 247.250 168.931 247.250 165.145 C 247.250 161.360 250.160 158.291 253.750 158.291 C 257.340 158.291 260.250 161.360 260.250 165.145 Z " transform="matrix(1.4910058975219727, 0, 0, 1.4910058975219727, 13.15, 24.35)"/>
      <path id="ID0.8164398362860084" fill="#cd8f00" stroke="none" stroke-width="0" d="M 266.448 182 C 266.448 186.280 263.158 189.750 259.099 189.750 C 255.040 189.750 251.750 186.280 251.750 182 C 251.750 177.720 255.040 174.250 259.099 174.250 C 263.158 174.250 266.448 177.720 266.448 182 Z " transform="matrix(1.4910058975219727, 0, 0, 1.4910058975219727, 13.15, 24.35)"/>
      <path id="ID0.4303057095967233" fill="#cd8f00" stroke="none" stroke-width="0" d="M 250.500 172.577 C 250.500 177.091 247.030 180.750 242.750 180.750 C 238.470 180.750 235 177.091 235 172.577 C 235 168.064 238.470 164.405 242.750 164.405 C 247.030 164.405 250.500 168.064 250.500 172.577 Z " transform="matrix(1.4910058975219727, 0, 0, 1.4910058975219727, 13.15, 24.35)"/>
      <path id="ID0.8467237292788923" fill="#000000" stroke="none" stroke-width="0.5" d="M 232.549 155.463 C 232.549 154.082 233.668 152.963 235.049 152.963 C 236.430 152.963 237.549 154.082 237.549 155.463 C 237.549 156.844 236.430 157.963 235.049 157.963 C 233.668 157.963 232.549 156.844 232.549 155.463 Z " transform="matrix(1.4910058975219727, 0, 0, 1.4910058975219727, 13.15, 24.35)"/>
      <path id="ID0.23979460075497627" fill="#000000" stroke="none" stroke-width="0.5" d="M 241.290 163.611 C 241.290 162.230 242.409 161.111 243.790 161.111 C 245.171 161.111 246.290 162.230 246.290 163.611 C 246.290 164.992 245.171 166.111 243.790 166.111 C 242.409 166.111 241.290 164.992 241.290 163.611 Z " transform="matrix(1.4910058975219727, 0, 0, 1.4910058975219727, 13.15, 24.35)"/>
      <path id="ID0.6650764928199351" fill="#000000" stroke="none" stroke-width="0.5" d="M 227.855 165.731 C 227.855 164.351 228.974 163.231 230.355 163.231 C 231.735 163.231 232.855 164.351 232.855 165.731 C 232.855 167.112 231.735 168.231 230.355 168.231 C 228.974 168.231 227.855 167.112 227.855 165.731 Z " transform="matrix(1.4910058975219727, 0, 0, 1.4910058975219727, 13.15, 24.35)"/>
    </g>
  </g>
</svg>