<svg version="1.1" width="504" height="378" viewBox="-1 -1 504 378" xmlns="http://www.w3.org/2000/svg" xmlns:xlink="http://www.w3.org/1999/xlink">
  <!-- Exported by Scratch - http://scratch.mit.edu/ -->
  <path id="ID0.5576229556463659" fill="#666666" stroke="#343434" stroke-width="15" d="M 0 0 L 480 0 L 480 360 L 0 360 L 0 0 Z " transform="matrix(1, 0, 0, 1, 16, 8)"/>
  <path id="ID0.9752650517039001" fill="#B2B2B2" stroke="#B2B2B2" stroke-width="15" stroke-linecap="round" d="M 8 187 C 17.678 185 21.325 184.141 25 184 C 29.991 183.808 35.229 182.519 40 184 C 45.293 185.643 49.625 189.597 54 193 C 58.650 196.617 62.920 200.750 67 205 C 70.927 209.091 74.076 213.906 78 218 C 81.751 221.914 85.567 225.880 90 229 C 94.630 232.258 99.565 235.415 105 237 C 115.722 240.127 126.966 241.269 138 243 C 143.958 243.935 149.998 244.412 156 245 C 166.982 246.077 178.961 243.421 189 248 C 199.071 252.594 204.849 263.510 213 271 C 217.176 274.837 221.282 278.854 226 282 C 230.337 284.891 235.580 286.238 240 289 C 248.930 294.581 258.440 299.669 266 307 C 269.742 310.629 268.747 317.987 273 321 C 277.691 324.323 284.423 322.606 290 324 C 295.108 325.277 300.854 325.755 305 329 C 309.003 332.133 311.604 337.113 313 342 C 314.372 346.803 316.198 353.163 313 357 C 309.739 360.913 303.083 359.668 298 360 C 287.699 360.672 287.063 360 267 360 C 186.747 360 106.253 360 26 360 C 5.937 360 14.766 362.383 10 360 C 5.115 357.557 1.837 352.143 0 347 C -1.680 342.296 0 342.406 0 332 C 0 290.375 0 248.625 0 207 C 0 196.594 -2.458 196.348 0 192 C 2.501 187.575 8.454 186.273 13 184 C 14.137 183.432 13.080 185 14 185 Z " transform="matrix(1, 0, 0, 1, 16, 8)"/>
  <path id="ID0.6473889234475791" fill="#B2B2B2" stroke="none" d="M 403 26 C 415.415 26 426.665 31.042 434.811 39.189 C 442.958 47.335 448 58.585 448 71 C 448 83.415 442.958 94.665 434.811 102.811 C 426.665 110.958 415.415 116 403 116 C 390.585 116 379.335 110.958 371.189 102.811 C 363.042 94.665 358 83.415 358 71 C 358 58.585 363.042 47.335 371.189 39.189 C 379.335 31.042 390.585 26 403 26 Z " transform="matrix(1, 0, 0, 1, 16, 8)"/>
  <path id="ID0.8829043246805668" fill="none" stroke="#B2B2B2" stroke-width="2" stroke-linecap="round" d="M 411 124 C 411 124 410.167 130.658 410 134 C 409.834 137.326 410.222 140.677 410 144 C 409.887 145.694 409.279 147.325 409 149 C 408.613 151.323 408.462 153.691 408 156 C 407.793 157.033 407.070 157.670 407 159 C 406.720 164.321 407.231 169.677 407 175 C 406.898 177.352 406.511 179.701 406 182 C 405.838 182.727 405 184 405 184 " transform="matrix(1, 0, 0, 1, 16, 8)"/>
  <path id="ID0.4654965791851282" fill="none" stroke="#B2B2B2" stroke-width="2" stroke-linecap="round" d="M 373 114 C 373 114 370.235 117.941 369 120 C 368.234 121.277 367.866 122.788 367 124 C 366.179 125.150 364.904 125.915 364 127 C 363.231 127.922 362.977 129.302 362 130 C 360.541 131.042 358.492 131.005 357 132 C 355.433 133.045 354.332 134.668 353 136 C 352.001 136.999 351.176 138.216 350 139 C 349.124 139.584 347.942 139.529 347 140 C 345.263 140.868 343.553 141.835 342 143 C 340.870 143.848 340.227 145.299 339 146 C 337.808 146.681 336.192 146.319 335 147 C 333.773 147.701 333.103 149.117 332 150 C 331.419 150.465 330.638 150.617 330 151 C 328.970 151.618 327 153 327 153 " transform="matrix(1, 0, 0, 1, 16, 8)"/>
  <path id="ID0.40515802055597305" fill="none" stroke="#B2B2B2" stroke-width="2" stroke-linecap="round" d="M 337 63 C 337 63 329.646 63.514 326 64 C 324.639 64.181 323.315 64.605 322 65 C 319.983 65.605 318.059 66.559 316 67 C 313.375 67.563 310.664 67.667 308 68 C 305.336 68.333 302.658 68.620 300 69 C 297.995 69.286 295.974 69.545 294 70 C 291.638 70.545 289.300 71.233 287 72 C 285.299 72.567 283.758 73.648 282 74 C 280.367 74.327 278.648 73.765 277 74 C 276.263 74.105 275.620 74.587 275 75 C 274.608 75.261 274 76 274 76 " transform="matrix(1, 0, 0, 1, 16, 8)"/>
  <path id="ID0.8737193797715008" fill="none" stroke="#B2B2B2" stroke-width="2" stroke-linecap="round" d="M 457 114 C 457 114 458.334 115.334 459 116 C 459.666 116.666 460.412 117.265 461 118 C 461.750 118.938 462.554 119.885 463 121 C 463.247 121.618 462.838 122.354 463 123 C 463.181 123.722 463.819 124.278 464 125 C 464.162 125.646 463.702 126.404 464 127 C 464.421 127.842 465.435 128.247 466 129 C 466.447 129.596 466.553 130.404 467 131 C 467.565 131.753 468.247 132.435 469 133 C 469.596 133.447 470.404 133.553 471 134 C 471.753 134.565 472.192 135.515 473 136 C 473.903 136.542 475.032 136.585 476 137 C 477.369 137.587 478.947 137.947 480 139 C 480.471 139.471 480 140.334 480 141 C 480 141.666 480 142.334 480 143 C 480 143.666 480 144.334 480 145 C 480 145.666 480 146.334 480 147 C 480 147.167 480 147 480 147 " transform="matrix(1, 0, 0, 1, 16, 8)"/>
  <path id="ID0.9357936209999025" fill="none" stroke="#B2B2B2" stroke-width="2" stroke-linecap="round" d="M 372 20 C 372 20 370.471 17.413 370 16 C 369.789 15.368 370.369 14.554 370 14 C 369.587 13.380 368.413 13.620 368 13 C 367.631 12.446 368.298 11.596 368 11 C 367.255 9.511 365.968 8.355 365 7 C 364.302 6.023 363.618 5.030 363 4 C 362.617 3.362 362.527 2.527 362 2 C 361.151 1.151 360.115 0.446 359 0 C 358.382 -0.247 357.666 0 357 0 C 354.669 0 350 0 350 0 " transform="matrix(1, 0, 0, 1, 16, 8)"/>
  <path id="ID0.37237400468438864" fill="none" stroke="#B2B2B2" stroke-width="2" stroke-linecap="round" d="M 431 22 C 431 22 434.361 20.728 436 20 C 437.361 19.395 438.788 18.866 440 18 C 441.150 17.179 441.927 15.919 443 15 C 444.264 13.916 445.554 12.826 447 12 C 447.914 11.478 449.158 11.632 450 11 C 450.596 10.553 450.473 9.527 451 9 C 451.849 8.151 453.151 7.849 454 7 C 454.527 6.473 454.473 5.527 455 5 C 455.849 4.151 457.062 3.750 458 3 C 458.735 2.412 459.247 1.565 460 1 C 460.596 0.553 461.270 0.146 462 0 C 462.980 -0.196 465 0 465 0 " transform="matrix(1, 0, 0, 1, 16, 8)"/>
  <path id="ID0.5576229556463659" fill="none" stroke="#343434" stroke-width="15" d="M 0 0 L 480 0 L 480 360 L 0 360 L 0 0 Z " transform="matrix(1, 0, 0, 1, 15.85, 8.05)"/>
</svg>