<svg version="1.1" width="321" height="225" viewBox="-1 -1 321 225" xmlns="http://www.w3.org/2000/svg" xmlns:xlink="http://www.w3.org/1999/xlink">
  <!-- Exported by Scratch - http://scratch.mit.edu/ -->
  <g id="ID0.8858510656282306" transform="matrix(1, 0, 0, 1, -99, -66)">
    <g id="ID0.4529006564989686" transform="matrix(1, 0, 0, 1, 99, 66)">
      <path id="ID0.5492388708516955" fill="#00CCCC" stroke="#006666" stroke-width="2" stroke-linecap="round" d="M 114 61 L 120 57 L 390 61 L 401 63 L 404 70 L 402 219 L 402 230 L 395 239 L 123 242 L 116 240 L 113 230 L 114 73 L 114 61 Z " transform="matrix(1, 0, 0, 1, -112, -56)"/>
      <path id="ID0.518207885324955" fill="#009999" stroke="#006666" stroke-width="2" stroke-linecap="round" d="M 221 111 L 317 146 L 221 173 L 221 111 Z " transform="matrix(1, 0, 0, 1, -112, -56)"/>
    </g>
    <g id="ID0.40693248622119427" transform="matrix(0.42251673340797424, -0.22451727092266083, 0.22451727092266083, 0.42251673340797424, 261.35, 219.7)">
      <path id="ID0.7895852741785347" fill="#B2B2B2" stroke="none" d="M 156 107 C 170.346 107 183.346 112.827 192.760 122.240 C 202.173 131.654 208 144.654 208 159 C 208 173.346 202.173 186.346 192.760 195.760 C 183.346 205.173 170.346 211 156 211 C 141.654 211 128.654 205.173 119.240 195.760 C 109.827 186.346 104 173.346 104 159 C 104 144.654 109.827 131.654 119.240 122.240 C 128.654 112.827 141.654 107 156 107 Z " transform="matrix(1, 0, 0, 1, -104, -107)"/>
      <path id="ID0.15853746980428696" fill="#B2B2B2" stroke="none" d="M 289.500 122 C 302.605 122 314.480 127.323 323.079 135.921 C 331.677 144.520 337 156.395 337 169.500 C 337 182.605 331.677 194.480 323.079 203.079 C 314.480 211.677 302.605 217 289.500 217 C 276.395 217 264.520 211.677 255.921 203.079 C 247.323 194.480 242 182.605 242 169.500 C 242 156.395 247.323 144.520 255.921 135.921 C 264.520 127.323 276.395 122 289.500 122 Z " transform="matrix(1, 0, 0, 1, -109, -118)"/>
      <path id="ID0.9006733032874763" fill="#B2B2B2" stroke="none" d="M 126 194 L 340 194 L 340 330 L 126 330 L 126 194 Z " transform="matrix(1, 0, 0, 1, -104, -107)"/>
      <path id="ID0.7740838313475251" fill="#B2B2B2" stroke="none" stroke-linecap="round" d="M 333 233 L 415 195 L 423 313 L 330 304 L 333 233 Z " transform="matrix(1, 0, 0, 1, -104, -107)"/>
    </g>
  </g>
</svg>