<svg version="1.1" width="103" height="142" viewBox="-1 -1 103 142" xmlns="http://www.w3.org/2000/svg" xmlns:xlink="http://www.w3.org/1999/xlink">
  <!-- Exported by Scratch - http://scratch.mit.edu/ -->
  <path id="ID0.8575967089273036" fill="#FF0000" stroke="#FF9999" stroke-width="2" stroke-linecap="round" d="M 257 272 C 257.859 270.282 257.771 269.025 258 268 C 258.159 267.273 258.723 266.691 259 266 C 259.391 265.022 259.609 263.978 260 263 C 260.277 262.309 260.667 261.666 261 261 C 261.333 260.334 261.667 259.666 262 259 C 262.333 258.334 262.553 257.596 263 257 C 263.565 256.247 264.435 255.753 265 255 C 265.447 254.404 265.535 253.581 266 253 C 266.883 251.897 268.368 251.264 269 250 C 269.447 249.106 268.553 247.894 269 247 C 269.333 246.334 270.473 246.527 271 246 C 271.527 245.473 271.617 244.638 272 244 C 272.618 242.970 273.151 241.849 274 241 C 274.527 240.473 275.587 240.620 276 240 C 276.369 239.446 275.702 238.596 276 238 C 276.421 237.158 277.334 236.666 278 236 C 278.666 235.334 279.650 234.875 280 234 C 280.371 233.072 279.804 231.980 280 231 C 280.146 230.270 280.617 229.638 281 229 C 281.618 227.970 282.382 227.030 283 226 C 283.383 225.362 283.553 224.596 284 224 C 284.565 223.247 285.579 222.842 286 222 C 286.298 221.404 285.702 220.596 286 220 C 286.421 219.158 287.579 218.842 288 218 C 288.298 217.404 287.838 216.646 288 216 C 288.181 215.278 288.667 214.666 289 214 C 289.333 213.334 289.667 212.666 290 212 C 290.333 211.334 290.667 210.666 291 210 C 291.333 209.334 291.667 208.666 292 208 C 292.333 207.334 292.723 206.691 293 206 C 293.391 205.022 293.609 203.978 294 203 C 294.277 202.309 294.667 201.666 295 201 C 295.333 200.334 295.667 199.666 296 199 C 296.333 198.334 296.854 197.730 297 197 C 297.196 196.020 296.629 194.928 297 194 C 297.350 193.125 298.579 192.842 299 192 C 299.298 191.404 299 190.666 299 190 C 299 189.001 299 187.999 299 187 C 299 186.334 298.838 185.646 299 185 C 299.181 184.278 299.819 183.722 300 183 C 300.162 182.354 300 181.666 300 181 C 300 180.334 300 179.666 300 179 C 300 178.334 300 177.666 300 177 C 300 176.001 300.316 174.948 300 174 C 299.620 172.861 298.618 172.030 298 171 C 297.617 170.362 297.235 169.706 297 169 C 296.566 167.697 296.706 166.177 296 165 C 295.617 164.362 294.413 164.620 294 164 C 293.631 163.446 294 162.666 294 162 C 294 161.334 294.298 160.596 294 160 C 293.579 159.158 292.421 158.842 292 158 C 291.702 157.404 292.471 156.471 292 156 C 291.529 155.529 290.533 156.400 290 156 C 289.039 155.280 288.769 153.922 288 153 C 287.096 151.915 286.211 150.727 285 150 C 284.429 149.657 283.646 150.162 283 150 C 282.278 149.819 281.691 149.277 281 149 C 280.022 148.609 279.039 148.173 278 148 C 277.015 147.836 275.999 148 275 148 C 274.334 148 273.596 147.702 273 148 C 272.158 148.421 271.753 149.435 271 150 C 270.404 150.447 269.596 150.553 269 151 C 268.247 151.565 267.842 152.579 267 153 C 266.404 153.298 265.533 152.600 265 153 C 264.039 153.720 263.849 155.151 263 156 C 262.473 156.527 261.596 156.553 261 157 C 260.247 157.565 259.735 158.412 259 159 C 258.062 159.750 256.849 160.151 256 161 C 255.473 161.527 255.447 162.404 255 163 C 254.435 163.753 253.666 164.334 253 165 C 252.334 165.666 251.565 166.247 251 167 C 250.553 167.596 250.447 168.404 250 169 C 249.435 169.753 248 170.414 248 171 C 248 171.414 249.446 171.369 250 171 C 250.620 170.587 250.819 169.722 251 169 C 251.162 168.354 251 167.666 251 167 C 251 166.334 251 165.666 251 165 C 251 164.001 251 162.999 251 162 C 251 161.001 251 159.999 251 159 C 251 158.334 251 157.666 251 157 C 251 156.334 251 155.666 251 155 C 251 154.334 251 153.666 251 153 C 251 152.334 251 151.666 251 151 C 251 150.334 251.162 149.646 251 149 C 250.819 148.278 250.596 147.447 250 147 C 249.158 146.368 248.042 146.149 247 146 C 245.681 145.812 244.332 146 243 146 C 242.001 146 240.999 146 240 146 C 238.668 146 237.314 145.781 236 146 C 235.266 146.122 234.638 146.617 234 147 C 232.970 147.618 231.938 148.250 231 149 C 230.265 149.588 229.842 150.579 229 151 C 227.772 151.614 226.228 151.386 225 152 C 224.158 152.421 223.753 153.435 223 154 C 222.404 154.447 221.527 154.473 221 155 C 220.473 155.527 220.333 156.334 220 157 C 219.667 157.666 219.527 158.473 219 159 C 218.473 159.527 217.413 159.380 217 160 C 216.631 160.554 217.162 161.354 217 162 C 216.819 162.722 216.277 163.309 216 164 C 215.609 164.978 215.391 166.022 215 167 C 214.723 167.691 214.447 168.404 214 169 C 213.435 169.753 212.421 170.158 212 171 C 211.386 172.228 211.226 173.646 211 175 C 210.891 175.657 211.162 176.354 211 177 C 210.819 177.722 210.181 178.278 210 179 C 209.838 179.646 210.131 180.347 210 181 C 209.793 182.033 209.207 182.967 209 184 C 208.869 184.653 209 185.334 209 186 C 209 186.666 209 187.334 209 188 C 209 188.999 209 190.001 209 191 C 209 191.666 209 192.334 209 193 C 209 194.332 209 195.668 209 197 C 209 197.666 209 198.334 209 199 C 209 199.666 209 200.334 209 201 C 209 201.666 209 202.334 209 203 C 209 203.666 209 204.334 209 205 C 209 205.666 208.869 206.347 209 207 C 209.207 208.033 209.793 208.967 210 210 C 210.131 210.653 209.838 211.354 210 212 C 210.181 212.722 210.667 213.334 211 214 C 211.333 214.666 211.819 215.278 212 216 C 212.162 216.646 211.838 217.354 212 218 C 212.181 218.722 212.723 219.309 213 220 C 213.391 220.978 213.793 221.967 214 223 C 214.131 223.653 213.753 224.382 214 225 C 214.446 226.115 215.382 226.970 216 228 C 216.383 228.638 216.819 229.278 217 230 C 217.162 230.646 216.838 231.354 217 232 C 217.181 232.722 217.667 233.334 218 234 C 218.333 234.666 218.667 235.334 219 236 C 219.333 236.666 219.667 237.334 220 238 C 220.333 238.666 220.667 239.334 221 240 C 221.333 240.666 221.473 241.473 222 242 C 222.527 242.527 223.473 242.473 224 243 C 224.527 243.527 224.819 244.278 225 245 C 225.162 245.646 224.631 246.446 225 247 C 225.413 247.620 226.404 247.553 227 248 C 227.753 248.565 228.435 249.247 229 250 C 229.447 250.596 229.553 251.404 230 252 C 230.565 252.753 231.435 253.247 232 254 C 232.447 254.596 232.553 255.404 233 256 C 233.565 256.753 234.247 257.435 235 258 C 235.596 258.447 236.362 258.617 237 259 C 238.030 259.618 239.151 260.151 240 261 C 240.527 261.527 240.404 262.553 241 263 C 241.842 263.632 243.158 263.368 244 264 C 244.596 264.447 244.380 265.587 245 266 C 245.554 266.369 246.354 265.838 247 266 C 247.722 266.181 248.334 266.667 249 267 C 249.666 267.333 250.473 267.473 251 268 C 251.527 268.527 251.380 269.587 252 270 C 252.554 270.369 253.354 269.838 254 270 C 254.722 270.181 255.278 270.819 256 271 C 256.646 271.162 257.334 271 258 271 C 258.166 271 258 271.215 258 271 Z " transform="matrix(1.089180827140808, 0, 0, 1.089180827140808, -226.15, -157.45)"/>
</svg>